  0
SECTION
  2
HEADER
  9
$ACADVER
  1
AC1015
  9
$ACADMAINTVER
 70
     6
  9
$DWGCODEPAGE
  3
ANSI_1252
  9
$INSBASE
 10
0.0
 20
0.0
 30
0.0
  9
$EXTMIN
 10
0.0
 20
0.0
 30
0.0
  9
$EXTMAX
 10
594.0
 20
420.0
 30
0.0
  9
$LIMMIN
 10
0.0
 20
0.0
  9
$LIMMAX
 10
594.0
 20
420.0
  9
$ORTHOMODE
 70
     0
  9
$REGENMODE
 70
     1
  9
$FILLMODE
 70
     1
  9
$QTEXTMODE
 70
     0
  9
$MIRRTEXT
 70
     1
  9
$LTSCALE
 40
1.0
  9
$ATTMODE
 70
     1
  9
$TEXTSIZE
 40
0.2
  9
$TRACEWID
 40
0.05
  9
$TEXTSTYLE
  7
Standard
  9
$CLAYER
  8
0
  9
$CELTYPE
  6
ByLayer
  9
$CECOLOR
 62
   256
  9
$CELTSCALE
 40
25.4
  9
$DISPSILH
 70
     0
  9
$DIMSCALE
 40
1.0
  9
$DIMASZ
 40
0.18
  9
$DIMEXO
 40
0.0625
  9
$DIMDLI
 40
0.38
  9
$DIMRND
 40
0.0
  9
$DIMDLE
 40
0.0
  9
$DIMEXE
 40
0.18
  9
$DIMTP
 40
0.0
  9
$DIMTM
 40
0.0
  9
$DIMTXT
 40
0.18
  9
$DIMCEN
 40
0.09
  9
$DIMTSZ
 40
0.0
  9
$DIMTOL
 70
     0
  9
$DIMLIM
 70
     0
  9
$DIMTIH
 70
     1
  9
$DIMTOH
 70
     1
  9
$DIMSE1
 70
     0
  9
$DIMSE2
 70
     0
  9
$DIMTAD
 70
     0
  9
$DIMZIN
 70
     0
  9
$DIMBLK
  1

  9
$DIMASO
 70
     1
  9
$DIMSHO
 70
     1
  9
$DIMPOST
  1

  9
$DIMAPOST
  1

  9
$DIMALT
 70
     0
  9
$DIMALTD
 70
     2
  9
$DIMALTF
 40
25.4
  9
$DIMLFAC
 40
1.0
  9
$DIMTOFL
 70
     0
  9
$DIMTVP
 40
0.0
  9
$DIMTIX
 70
     0
  9
$DIMSOXD
 70
     0
  9
$DIMSAH
 70
     0
  9
$DIMBLK1
  1

  9
$DIMBLK2
  1

  9
$DIMSTYLE
  2
Standard
  9
$DIMCLRD
 70
     0
  9
$DIMCLRE
 70
     0
  9
$DIMCLRT
 70
     0
  9
$DIMTFAC
 40
1.0
  9
$DIMGAP
 40
0.09
  9
$DIMJUST
 70
     0
  9
$DIMSD1
 70
     0
  9
$DIMSD2
 70
     0
  9
$DIMTOLJ
 70
     1
  9
$DIMTZIN
 70
     0
  9
$DIMALTZ
 70
     0
  9
$DIMALTTZ
 70
     0
  9
$DIMUPT
 70
     0
  9
$DIMDEC
 70
     4
  9
$DIMTDEC
 70
     4
  9
$DIMALTU
 70
     2
  9
$DIMALTTD
 70
     2
  9
$DIMTXSTY
  7
Standard
  9
$DIMAUNIT
 70
     0
  9
$DIMADEC
 70
     0
  9
$DIMALTRND
 40
0.0
  9
$DIMAZIN
 70
     0
  9
$DIMDSEP
 70
    46
  9
$DIMATFIT
 70
     3
  9
$DIMFRAC
 70
     0
  9
$DIMLDRBLK
  1

  9
$DIMLUNIT
 70
     2
  9
$DIMLWD
 70
    -2
  9
$DIMLWE
 70
    -2
  9
$DIMTMOVE
 70
     0
  9
$LUNITS
 70
     2
  9
$LUPREC
 70
     4
  9
$SKETCHINC
 40
0.1
  9
$FILLETRAD
 40
0.5
  9
$AUNITS
 70
     0
  9
$AUPREC
 70
     0
  9
$MENU
  1
.
  9
$ELEVATION
 40
0.0
  9
$PELEVATION
 40
0.0
  9
$THICKNESS
 40
0.0
  9
$LIMCHECK
 70
     0
  9
$CHAMFERA
 40
0.5
  9
$CHAMFERB
 40
0.5
  9
$CHAMFERC
 40
1.0
  9
$CHAMFERD
 40
0.0
  9
$SKPOLY
 70
     0
  9
$TDCREATE
 40
2455862.796762153
  9
$TDUCREATE
 40
2455862.71342882
  9
$TDUPDATE
 40
2455862.796762164
  9
$TDUUPDATE
 40
2455862.713428831
  9
$TDINDWG
 40
0.0000000116
  9
$TDUSRTIMER
 40
0.0000000116
  9
$USRTIMER
 70
     1
  9
$ANGBASE
 50
0.0
  9
$ANGDIR
 70
     0
  9
$PDMODE
 70
     0
  9
$PDSIZE
 40
0.0
  9
$PLINEWID
 40
0.0
  9
$SPLFRAME
 70
     0
  9
$SPLINETYPE
 70
     6
  9
$SPLINESEGS
 70
     8
  9
$HANDSEED
  5
2A1
  9
$SURFTAB1
 70
     6
  9
$SURFTAB2
 70
     6
  9
$SURFTYPE
 70
     6
  9
$SURFU
 70
     6
  9
$SURFV
 70
     6
  9
$UCSBASE
  2

  9
$UCSNAME
  2

  9
$UCSORG
 10
0.0
 20
0.0
 30
0.0
  9
$UCSXDIR
 10
1.0
 20
0.0
 30
0.0
  9
$UCSYDIR
 10
0.0
 20
1.0
 30
0.0
  9
$UCSORTHOREF
  2

  9
$UCSORTHOVIEW
 70
     0
  9
$UCSORGTOP
 10
0.0
 20
0.0
 30
0.0
  9
$UCSORGBOTTOM
 10
0.0
 20
0.0
 30
0.0
  9
$UCSORGLEFT
 10
0.0
 20
0.0
 30
0.0
  9
$UCSORGRIGHT
 10
0.0
 20
0.0
 30
0.0
  9
$UCSORGFRONT
 10
0.0
 20
0.0
 30
0.0
  9
$UCSORGBACK
 10
0.0
 20
0.0
 30
0.0
  9
$PUCSBASE
  2

  9
$PUCSNAME
  2

  9
$PUCSORG
 10
0.0
 20
0.0
 30
0.0
  9
$PUCSXDIR
 10
1.0
 20
0.0
 30
0.0
  9
$PUCSYDIR
 10
0.0
 20
1.0
 30
0.0
  9
$PUCSORTHOREF
  2

  9
$PUCSORTHOVIEW
 70
     0
  9
$PUCSORGTOP
 10
0.0
 20
0.0
 30
0.0
  9
$PUCSORGBOTTOM
 10
0.0
 20
0.0
 30
0.0
  9
$PUCSORGLEFT
 10
0.0
 20
0.0
 30
0.0
  9
$PUCSORGRIGHT
 10
0.0
 20
0.0
 30
0.0
  9
$PUCSORGFRONT
 10
0.0
 20
0.0
 30
0.0
  9
$PUCSORGBACK
 10
0.0
 20
0.0
 30
0.0
  9
$USERI1
 70
     0
  9
$USERI2
 70
     0
  9
$USERI3
 70
     0
  9
$USERI4
 70
     0
  9
$USERI5
 70
     0
  9
$USERR1
 40
0.0
  9
$USERR2
 40
0.0
  9
$USERR3
 40
0.0
  9
$USERR4
 40
0.0
  9
$USERR5
 40
0.0
  9
$WORLDVIEW
 70
     1
  9
$SHADEDGE
 70
     3
  9
$SHADEDIF
 70
    70
  9
$TILEMODE
 70
     1
  9
$MAXACTVP
 70
    64
  9
$PINSBASE
 10
0.0
 20
0.0
 30
0.0
  9
$PLIMCHECK
 70
     0
  9
$PEXTMIN
 10
0.0
 20
0.0
 30
0.0
  9
$PEXTMAX
 10
594.0
 20
420.0
 30
0.0
  9
$PLIMMIN
 10
0.0
 20
0.0
  9
$PLIMMAX
 10
594.0
 20
420.0
  9
$UNITMODE
 70
     0
  9
$VISRETAIN
 70
     1
  9
$PLINEGEN
 70
     0
  9
$PSLTSCALE
 70
     1
  9
$TREEDEPTH
 70
  3020
  9
$CMLSTYLE
  2
Standard
  9
$CMLJUST
 70
     0
  9
$CMLSCALE
 40
1.0
  9
$PROXYGRAPHICS
 70
     1
  9
$MEASUREMENT
 70
     1
  9
$CELWEIGHT
370
    -1
  9
$ENDCAPS
280
     0
  9
$JOINSTYLE
280
     0
  9
$LWDISPLAY
290
     0
  9
$INSUNITS
 70
     1
  9
$HYPERLINKBASE
  1

  9
$STYLESHEET
  1

  9
$XEDIT
290
     1
  9
$CEPSNTYPE
380
     0
  9
$PSTYLEMODE
290
     1
  9
$FINGERPRINTGUID
  2
{96B13C09-4CDE-4045-A26C-1E9870E9E622}
  9
$VERSIONGUID
  2
{FAEB1C32-E019-11D5-929B-00C0DF256EC4}
  9
$EXTNAMES
290
     1
  9
$PSVPSCALE
 40
0.0
  9
$OLESTARTUP
290
     0
  0
ENDSEC
  0
SECTION
  2
CLASSES
  0
CLASS
  1
ACDBDICTIONARYWDFLT
  2
AcDbDictionaryWithDefault
  3
ObjectDBX Classes
 90
        0
280
     0
281
     0
  0
CLASS
  1
ACDBPLACEHOLDER
  2
AcDbPlaceHolder
  3
ObjectDBX Classes
 90
        0
280
     0
281
     0
  0
CLASS
  1
LAYOUT
  2
AcDbLayout
  3
ObjectDBX Classes
 90
        0
280
     0
281
     0
  0
ENDSEC
  0
SECTION
  2
TABLES
  0
TABLE
  2
VPORT
  5
8
330
0
100
AcDbSymbolTable
 70
     1
  0
VPORT
  5
29
330
8
100
AcDbSymbolTableRecord
100
AcDbViewportTableRecord
  2
*Active
 70
     0
 10
0.0
 20
0.0
 11
1.0
 21
1.0
 12
10.4299065421
 22
4.5
 13
0.0
 23
0.0
 14
0.5
 24
0.5
 15
0.5
 25
0.5
 16
0.0
 26
0.0
 36
1.0
 17
0.0
 27
0.0
 37
0.0
 40
9.0
 41
1.9729729729
 42
50.0
 43
0.0
 44
0.0
 50
0.0
 51
0.0
 71
     0
 72
   100
 73
     1
 74
     3
 75
     0
 76
     0
 77
     0
 78
     0
281
     0
 65
     1
110
0.0
120
0.0
130
0.0
111
1.0
121
0.0
131
0.0
112
0.0
122
1.0
132
0.0
 79
     0
146
0.0
  0
ENDTAB
  0
TABLE
  2
LTYPE
  5
5
330
0
100
AcDbSymbolTable
 70
     2
  0
LTYPE
  5
14
330
5
100
AcDbSymbolTableRecord
100
AcDbLinetypeTableRecord
  2
ByBlock
 70
     0
  3

 72
    65
 73
     0
 40
0.0
  0
LTYPE
  5
15
330
5
100
AcDbSymbolTableRecord
100
AcDbLinetypeTableRecord
  2
ByLayer
 70
     0
  3

 72
    65
 73
     0
 40
0.0
  0
LTYPE
  5
16
330
5
100
AcDbSymbolTableRecord
100
AcDbLinetypeTableRecord
  2
Continuous
 70
     0
  3
Solid line
 72
    65
 73
     0
 40
0.0
  0
LTYPE
  5
30
330
5
100
AcDbSymbolTableRecord
100
AcDbLinetypeTableRecord
  2
HIDDEN2
 70
     0
  3
_ _ _ _ _ _ _ _ _ _ _ _ _ _ _ _ _ _ _ _ _ _ _ _
 72
    65
 73
     2
 40
0.1875
 49
0.125
 74
     4
 75
     0
340
0
 46
0.0
 50
0.0
 44
0.0
 45
0.0
 49
-0.0625
 74
     4
 75
     0
340
0
 46
0.0
 50
0.0
 44
0.0
 45
0.0
  0
ENDTAB
  0
TABLE
  2
LAYER
  5
2
330
0
100
AcDbSymbolTable
 70
    21
  0
LAYER
  5
10
330
2
100
AcDbSymbolTableRecord
100
AcDbLayerTableRecord
  2
0
 70
     0
 62
     7
  6
Continuous
370
    -3
390
F
  0
LAYER
  5
2A
330
2
100
AcDbSymbolTableRecord
100
AcDbLayerTableRecord
  2
Default
 70
     0
 62
     7
  6
Continuous
370
    -3
390
F
  0
LAYER
  5
2D
330
2
100
AcDbSymbolTableRecord
100
AcDbLayerTableRecord
  2
DECKE_1OG
 70
     0
 62
     7
  6
Continuous
370
    -3
390
F
  0
LAYER
  5
3C
330
2
100
AcDbSymbolTableRecord
100
AcDbLayerTableRecord
  2
GRUNDRISS_2OG
 70
     0
 62
     7
  6
Continuous
370
    -3
390
F
  0
LAYER
  5
F3
330
2
100
AcDbSymbolTableRecord
100
AcDbLayerTableRecord
  2
ROHRVERKLEIDUNG
 70
     0
 62
     7
  6
Continuous
370
    -3
390
F
  0
LAYER
  5
10A
330
2
100
AcDbSymbolTableRecord
100
AcDbLayerTableRecord
  2
STUFE1
 70
     0
 62
     7
  6
Continuous
370
    -3
390
F
  0
LAYER
  5
115
330
2
100
AcDbSymbolTableRecord
100
AcDbLayerTableRecord
  2
STUFE2
 70
     0
 62
     7
  6
Continuous
370
    -3
390
F
  0
LAYER
  5
118
330
2
100
AcDbSymbolTableRecord
100
AcDbLayerTableRecord
  2
STUFE4
 70
     0
 62
     7
  6
Continuous
370
    -3
390
F
  0
LAYER
  5
11B
330
2
100
AcDbSymbolTableRecord
100
AcDbLayerTableRecord
  2
STUFE3
 70
     0
 62
     7
  6
Continuous
370
    -3
390
F
  0
LAYER
  5
11E
330
2
100
AcDbSymbolTableRecord
100
AcDbLayerTableRecord
  2
STUFE5
 70
     0
 62
     7
  6
Continuous
370
    -3
390
F
  0
LAYER
  5
122
330
2
100
AcDbSymbolTableRecord
100
AcDbLayerTableRecord
  2
KRUEMMLING
 70
     0
 62
     7
  6
Continuous
370
    -3
390
F
  0
LAYER
  5
127
330
2
100
AcDbSymbolTableRecord
100
AcDbLayerTableRecord
  2
STUFE6
 70
     0
 62
     7
  6
Continuous
370
    -3
390
F
  0
LAYER
  5
12B
330
2
100
AcDbSymbolTableRecord
100
AcDbLayerTableRecord
  2
STUFE7
 70
     0
 62
     7
  6
Continuous
370
    -3
390
F
  0
LAYER
  5
132
330
2
100
AcDbSymbolTableRecord
100
AcDbLayerTableRecord
  2
STUFE8
 70
     0
 62
     7
  6
Continuous
370
    -3
390
F
  0
LAYER
  5
136
330
2
100
AcDbSymbolTableRecord
100
AcDbLayerTableRecord
  2
WANGE_OR
 70
     0
 62
     7
  6
Continuous
370
    -3
390
F
  0
LAYER
  5
142
330
2
100
AcDbSymbolTableRecord
100
AcDbLayerTableRecord
  2
STUFE9
 70
     0
 62
     7
  6
Continuous
370
    -3
390
F
  0
LAYER
  5
146
330
2
100
AcDbSymbolTableRecord
100
AcDbLayerTableRecord
  2
WANGE_UR
 70
     0
 62
     7
  6
Continuous
370
    -3
390
F
  0
LAYER
  5
14E
330
2
100
AcDbSymbolTableRecord
100
AcDbLayerTableRecord
  2
WANGE_UL
 70
     0
 62
     7
  6
Continuous
370
    -3
390
F
  0
LAYER
  5
155
330
2
100
AcDbSymbolTableRecord
100
AcDbLayerTableRecord
  2
WANGE_OL
 70
     0
 62
     7
  6
Continuous
370
    -3
390
F
  0
LAYER
  5
161
330
2
100
AcDbSymbolTableRecord
100
AcDbLayerTableRecord
  2
DECKE_2OG
 70
     0
 62
     7
  6
Continuous
370
    -3
390
F
  0
LAYER
  5
19F
330
2
100
AcDbSymbolTableRecord
100
AcDbLayerTableRecord
  2
GRUNDRISS_3OG
 70
     0
 62
     7
  6
Continuous
370
    -3
390
F
  0
ENDTAB
  0
TABLE
  2
STYLE
  5
3
330
0
100
AcDbSymbolTable
 70
     5
  0
STYLE
  5
11
330
3
100
AcDbSymbolTableRecord
100
AcDbTextStyleTableRecord
  2
Standard
 70
     0
 40
0.0
 41
1.0
 50
0.0
 71
     0
 42
0.2
  3
txt
  4

  0
STYLE
  5
25F
330
3
100
AcDbSymbolTableRecord
100
AcDbTextStyleTableRecord
  2
SEACAD_seiso_ttf
 70
     0
 40
0.2
 41
1.0
 50
0.0
 71
     0
 42
0.2
  3
seiso.ttf
  4

  0
STYLE
  5
274
330
3
100
AcDbSymbolTableRecord
100
AcDbTextStyleTableRecord
  2
SEACAD_arial_ttfB
 70
     0
 40
0.2
 41
1.0
 50
0.0
 71
     0
 42
0.2
  3
arial.ttf
  4

  0
STYLE
  5
276
330
3
100
AcDbSymbolTableRecord
100
AcDbTextStyleTableRecord
  2
SEACAD_arial_ttfI
 70
     0
 40
0.2
 41
1.0
 50
0.0
 71
     0
 42
0.2
  3
arial.ttf
  4

  0
STYLE
  5
27E
330
3
100
AcDbSymbolTableRecord
100
AcDbTextStyleTableRecord
  2
SEACAD_seiso_ttfB
 70
     0
 40
0.2
 41
1.0
 50
0.0
 71
     0
 42
0.2
  3
seiso.ttf
  4

  0
ENDTAB
  0
TABLE
  2
VIEW
  5
6
330
0
100
AcDbSymbolTable
 70
     0
  0
ENDTAB
  0
TABLE
  2
UCS
  5
7
330
0
100
AcDbSymbolTable
 70
     0
  0
ENDTAB
  0
TABLE
  2
APPID
  5
9
330
0
100
AcDbSymbolTable
 70
     1
  0
APPID
  5
12
330
9
100
AcDbSymbolTableRecord
100
AcDbRegAppTableRecord
  2
ACAD
 70
     0
  0
ENDTAB
  0
TABLE
  2
DIMSTYLE
  5
A
330
0
100
AcDbSymbolTable
 70
     1
100
AcDbDimStyleTable
  0
DIMSTYLE
105
27
330
A
100
AcDbSymbolTableRecord
100
AcDbDimStyleTableRecord
  2
Standard
 70
     0
340
11
  0
ENDTAB
  0
TABLE
  2
BLOCK_RECORD
  5
1
330
0
100
AcDbSymbolTable
 70
    10
  0
BLOCK_RECORD
  5
1F
330
1
100
AcDbSymbolTableRecord
100
AcDbBlockTableRecord
  2
*Model_Space
340
22
  0
BLOCK_RECORD
  5
1B
330
1
100
AcDbSymbolTableRecord
100
AcDbBlockTableRecord
  2
*Paper_Space
340
1E
  0
BLOCK_RECORD
  5
2B
330
1
100
AcDbSymbolTableRecord
100
AcDbBlockTableRecord
  2
SE
340
0
102
{BLKREFS
331
2C
102
}
  0
BLOCK_RECORD
  5
15F
330
1
100
AcDbSymbolTableRecord
100
AcDbBlockTableRecord
  2
SE1
340
0
102
{BLKREFS
331
160
102
}
  0
BLOCK_RECORD
  5
269
330
1
100
AcDbSymbolTableRecord
100
AcDbBlockTableRecord
  2
SEANNOT_GROUP
340
0
102
{BLKREFS
331
26A
102
}
  0
BLOCK_RECORD
  5
26F
330
1
100
AcDbSymbolTableRecord
100
AcDbBlockTableRecord
  2
SEANNOT_GROUP1
340
0
102
{BLKREFS
331
270
102
}
  0
BLOCK_RECORD
  5
279
330
1
100
AcDbSymbolTableRecord
100
AcDbBlockTableRecord
  2
SEANNOT_GROUP2
340
0
102
{BLKREFS
331
27A
102
}
  0
BLOCK_RECORD
  5
281
330
1
100
AcDbSymbolTableRecord
100
AcDbBlockTableRecord
  2
SEANNOT_GROUP3
340
0
102
{BLKREFS
331
282
102
}
  0
BLOCK_RECORD
  5
286
330
1
100
AcDbSymbolTableRecord
100
AcDbBlockTableRecord
  2
SEANNOT_GROUP4
340
0
102
{BLKREFS
331
287
102
}
  0
BLOCK_RECORD
  5
28A
330
1
100
AcDbSymbolTableRecord
100
AcDbBlockTableRecord
  2
SEANNOT_GROUP5
340
0
102
{BLKREFS
331
28B
102
}
  0
BLOCK_RECORD
  5
291
330
1
100
AcDbSymbolTableRecord
100
AcDbBlockTableRecord
  2
SEANNOT_GROUP6
340
0
102
{BLKREFS
331
292
102
}
  0
ENDTAB
  0
ENDSEC
  0
SECTION
  2
BLOCKS
  0
BLOCK
  5
20
330
1F
100
AcDbEntity
  8
0
100
AcDbBlockBegin
  2
*Model_Space
 70
     0
 71
     0
 10
0.0
 20
0.0
 30
0.0
  3
*Model_Space
  1

  0
ENDBLK
  5
21
330
1F
100
AcDbEntity
  8
0
100
AcDbBlockEnd
  0
BLOCK
  5
1C
330
1B
100
AcDbEntity
 67
     1
  8
0
100
AcDbBlockBegin
  2
*Paper_Space
 70
     0
 71
     0
 10
0.0
 20
0.0
 30
0.0
  3
*Paper_Space
  1

  0
ENDBLK
  5
1D
330
1B
100
AcDbEntity
 67
     1
  8
0
100
AcDbBlockEnd
  0
BLOCK
  5
15D
330
2B
100
AcDbEntity
  8
0
100
AcDbBlockBegin
  2
SE
 70
     0
 71
     0
 10
0.0
 20
0.0
 30
0.0
  3
SE
  1

  0
LINE
  5
2E
330
2B
100
AcDbEntity
  8
DECKE_1OG
  6
Continuous
 62
     7
 48
25.4
100
AcDbLine
 10
58.2261446207
 20
109.0112075864
 30
0.0
 11
254.2261446207
 21
109.0112075864
 31
0.0
  0
LINE
  5
2F
330
2B
100
AcDbEntity
  8
DECKE_1OG
  6
Continuous
 62
     7
 48
25.4
100
AcDbLine
 10
254.2261446207
 20
109.0112075864
 30
0.0
 11
254.2261446207
 21
112.3035915572
 31
0.0
  0
LINE
  5
31
330
2B
100
AcDbEntity
  8
DECKE_1OG
  6
HIDDEN2
 62
     7
 48
25.4
100
AcDbLine
 10
254.2261446207
 20
112.3035915572
 30
0.0
 11
254.2261446207
 21
153.4317649027
 31
0.0
  0
LINE
  5
32
330
2B
100
AcDbEntity
  8
DECKE_1OG
  6
HIDDEN2
 62
     7
 48
25.4
100
AcDbLine
 10
254.2261446207
 20
268.5906502701
 30
0.0
 11
254.2261446207
 21
309.7188236156
 31
0.0
  0
LINE
  5
33
330
2B
100
AcDbEntity
  8
DECKE_1OG
  6
Continuous
 62
     7
 48
25.4
100
AcDbLine
 10
254.2261446207
 20
309.7188236156
 30
0.0
 11
254.2261446207
 21
313.0112075864
 31
0.0
  0
LINE
  5
34
330
2B
100
AcDbEntity
  8
DECKE_1OG
  6
Continuous
 62
     7
 48
25.4
100
AcDbLine
 10
254.2261446207
 20
313.0112075864
 30
0.0
 11
58.2261446207
 21
313.0112075864
 31
0.0
  0
LINE
  5
35
330
2B
100
AcDbEntity
  8
DECKE_1OG
  6
Continuous
 62
     7
 48
25.4
100
AcDbLine
 10
58.2261446207
 20
313.0112075864
 30
0.0
 11
58.2261446207
 21
109.0112075864
 31
0.0
  0
LINE
  5
36
330
2B
100
AcDbEntity
  8
DECKE_1OG
  6
HIDDEN2
 62
     7
 48
25.4
100
AcDbLine
 10
108.6261446207
 20
295.0112075864
 30
0.0
 11
108.6261446207
 21
306.6112075864
 31
0.0
  0
LINE
  5
37
330
2B
100
AcDbEntity
  8
DECKE_1OG
  6
HIDDEN2
 62
     7
 48
25.4
100
AcDbLine
 10
64.6261446207
 20
246.6112075864
 30
0.0
 11
69.1238189298
 21
246.6112075864
 31
0.0
  0
LINE
  5
38
330
2B
100
AcDbEntity
  8
DECKE_1OG
  6
Continuous
 62
     7
 48
25.4
100
AcDbLine
 10
69.1238189298
 20
246.6112075864
 30
0.0
 11
108.6261446207
 21
246.6112075864
 31
0.0
  0
LINE
  5
39
330
2B
100
AcDbEntity
  8
DECKE_1OG
  6
Continuous
 62
     7
 48
25.4
100
AcDbLine
 10
64.6261446207
 20
306.6112075864
 30
0.0
 11
64.6261446207
 21
246.6112075864
 31
0.0
  0
LINE
  5
3A
330
2B
100
AcDbEntity
  8
DECKE_1OG
  6
Continuous
 62
     7
 48
25.4
100
AcDbLine
 10
108.6261446207
 20
306.6112075864
 30
0.0
 11
64.6261446207
 21
306.6112075864
 31
0.0
  0
CIRCLE
  5
3B
330
2B
100
AcDbEntity
  8
DECKE_1OG
  6
Continuous
 62
     7
 48
25.4
100
AcDbCircle
 10
234.6261446207
 20
186.8112075864
 30
0.0
 40
0.5
  0
LINE
  5
3D
330
2B
100
AcDbEntity
  8
GRUNDRISS_2OG
  6
Continuous
 62
     7
 48
25.4
100
AcDbLine
 10
114.6261446207
 20
198.2112075864
 30
0.0
 11
88.7110189869
 21
198.2112075864
 31
0.0
  0
LINE
  5
3E
330
2B
100
AcDbEntity
  8
GRUNDRISS_2OG
  6
Continuous
 62
     7
 48
25.4
100
AcDbLine
 10
251.0261446207
 20
203.2112075864
 30
0.0
 11
251.0261446207
 21
153.4317649027
 31
0.0
  0
LINE
  5
3F
330
2B
100
AcDbEntity
  8
GRUNDRISS_2OG
  6
Continuous
 62
     7
 48
25.4
100
AcDbLine
 10
157.8261446207
 20
203.2112075864
 30
0.0
 11
245.4261446207
 21
203.2112075864
 31
0.0
  0
LINE
  5
40
330
2B
100
AcDbEntity
  8
GRUNDRISS_2OG
  6
Continuous
 62
     7
 48
25.4
100
AcDbLine
 10
144.6261446207
 20
205.6112075864
 30
0.0
 11
145.6261446207
 21
205.6112075864
 31
0.0
  0
LINE
  5
41
330
2B
100
AcDbEntity
  8
GRUNDRISS_2OG
  6
Continuous
 62
     7
 48
25.4
100
AcDbLine
 10
144.6261446207
 20
198.2112075864
 30
0.0
 11
144.6261446207
 21
205.6112075864
 31
0.0
  0
LINE
  5
42
330
2B
100
AcDbEntity
  8
GRUNDRISS_2OG
  6
Continuous
 62
     7
 48
25.4
100
AcDbLine
 10
111.0261446207
 20
233.8112075864
 30
0.0
 11
111.0261446207
 21
214.2112075864
 31
0.0
  0
LINE
  5
43
330
2B
100
AcDbEntity
  8
GRUNDRISS_2OG
  6
Continuous
 62
     7
 48
25.4
100
AcDbLine
 10
189.4261446207
 20
233.8112075864
 30
0.0
 11
152.8261446207
 21
233.8112075864
 31
0.0
  0
LINE
  5
44
330
2B
100
AcDbEntity
  8
GRUNDRISS_2OG
  6
Continuous
 62
     7
 48
25.4
100
AcDbLine
 10
189.4261446207
 20
205.6112075864
 30
0.0
 11
189.4261446207
 21
233.8112075864
 31
0.0
  0
LINE
  5
45
330
2B
100
AcDbEntity
  8
GRUNDRISS_2OG
  6
Continuous
 62
     7
 48
25.4
100
AcDbLine
 10
145.4261446207
 20
243.6112075864
 30
0.0
 11
145.4261446207
 21
265.4830342409
 31
0.0
  0
LINE
  5
46
330
2B
100
AcDbEntity
  8
GRUNDRISS_2OG
  6
Continuous
 62
     7
 48
25.4
100
AcDbLine
 10
153.8261446207
 20
243.6112075864
 30
0.0
 11
152.8261446207
 21
243.6112075864
 31
0.0
  0
LINE
  5
47
330
2B
100
AcDbEntity
  8
GRUNDRISS_2OG
  6
Continuous
 62
     7
 48
25.4
100
AcDbLine
 10
153.8261446207
 20
236.2112075864
 30
0.0
 11
153.8261446207
 21
243.6112075864
 31
0.0
  0
LINE
  5
48
330
2B
100
AcDbEntity
  8
GRUNDRISS_2OG
  6
Continuous
 62
     7
 48
25.4
100
AcDbLine
 10
189.4261446207
 20
236.2112075864
 30
0.0
 11
153.8261446207
 21
236.2112075864
 31
0.0
  0
LINE
  5
49
330
2B
100
AcDbEntity
  8
GRUNDRISS_2OG
  6
Continuous
 62
     7
 48
25.4
100
AcDbLine
 10
155.4261446207
 20
195.8112075864
 30
0.0
 11
155.4261446207
 21
156.5393809319
 31
0.0
  0
LINE
  5
4A
330
2B
100
AcDbEntity
  8
GRUNDRISS_2OG
  6
Continuous
 62
     7
 48
25.4
100
AcDbLine
 10
111.0261446207
 20
236.2112075864
 30
0.0
 11
111.0261446207
 21
265.4830342409
 31
0.0
  0
LINE
  5
4B
330
2B
100
AcDbEntity
  8
GRUNDRISS_2OG
  6
Continuous
 62
     7
 48
25.4
100
AcDbLine
 10
143.0261446207
 20
236.2112075864
 30
0.0
 11
111.0261446207
 21
236.2112075864
 31
0.0
  0
LINE
  5
4C
330
2B
100
AcDbEntity
  8
GRUNDRISS_2OG
  6
Continuous
 62
     7
 48
25.4
100
AcDbLine
 10
191.8261446207
 20
205.6112075864
 30
0.0
 11
191.8261446207
 21
265.4830342409
 31
0.0
  0
LINE
  5
4D
330
2B
100
AcDbEntity
  8
GRUNDRISS_2OG
  6
Continuous
 62
     7
 48
25.4
100
AcDbLine
 10
245.4261446207
 20
205.6112075864
 30
0.0
 11
191.8261446207
 21
205.6112075864
 31
0.0
  0
LINE
  5
4E
330
2B
100
AcDbEntity
  8
GRUNDRISS_2OG
  6
HIDDEN2
 62
     7
 48
25.4
100
AcDbLine
 10
106.2261446207
 20
130.8112075864
 30
0.0
 11
100.6261446207
 21
130.8112075864
 31
0.0
  0
LINE
  5
4F
330
2B
100
AcDbEntity
  8
GRUNDRISS_2OG
  6
Continuous
 62
     7
 48
25.4
100
AcDbLine
 10
74.9061446207
 20
130.8112075864
 30
0.0
 11
74.9061446207
 21
132.96569492
 31
0.0
  0
LINE
  5
50
330
2B
100
AcDbEntity
  8
GRUNDRISS_2OG
  6
Continuous
 62
     7
 48
25.4
100
AcDbLine
 10
111.0261446207
 20
295.0112075864
 30
0.0
 11
111.0261446207
 21
306.6112075864
 31
0.0
  0
LINE
  5
51
330
2B
100
AcDbEntity
  8
GRUNDRISS_2OG
  6
Continuous
 62
     7
 48
25.4
100
AcDbLine
 10
108.6261446207
 20
306.6112075864
 30
0.0
 11
108.6261446207
 21
295.0112075864
 31
0.0
  0
LINE
  5
52
330
2B
100
AcDbEntity
  8
GRUNDRISS_2OG
  6
Continuous
 62
     7
 48
25.4
100
AcDbLine
 10
108.6261446207
 20
306.6112075864
 30
0.0
 11
111.0261446207
 21
306.6112075864
 31
0.0
  0
LINE
  5
53
330
2B
100
AcDbEntity
  8
GRUNDRISS_2OG
  6
HIDDEN2
 62
     7
 48
25.4
100
AcDbLine
 10
136.0261446207
 20
236.2112075864
 30
0.0
 11
136.0261446207
 21
233.8112075864
 31
0.0
  0
LINE
  5
54
330
2B
100
AcDbEntity
  8
GRUNDRISS_2OG
  6
HIDDEN2
 62
     7
 48
25.4
100
AcDbLine
 10
120.2261446207
 20
236.2112075864
 30
0.0
 11
120.2261446207
 21
233.8112075864
 31
0.0
  0
LINE
  5
55
330
2B
100
AcDbEntity
  8
GRUNDRISS_2OG
  6
HIDDEN2
 62
     7
 48
25.4
100
AcDbLine
 10
173.4261446207
 20
236.2112075864
 30
0.0
 11
173.4261446207
 21
233.8112075864
 31
0.0
  0
LINE
  5
56
330
2B
100
AcDbEntity
  8
GRUNDRISS_2OG
  6
HIDDEN2
 62
     7
 48
25.4
100
AcDbLine
 10
157.6261446207
 20
236.2112075864
 30
0.0
 11
157.6261446207
 21
233.8112075864
 31
0.0
  0
LINE
  5
57
330
2B
100
AcDbEntity
  8
GRUNDRISS_2OG
  6
HIDDEN2
 62
     7
 48
25.4
100
AcDbLine
 10
191.8261446207
 20
211.2112075864
 30
0.0
 11
189.4261446207
 21
211.2112075864
 31
0.0
  0
LINE
  5
58
330
2B
100
AcDbEntity
  8
GRUNDRISS_2OG
  6
HIDDEN2
 62
     7
 48
25.4
100
AcDbLine
 10
191.8261446207
 20
229.6112075864
 30
0.0
 11
189.4261446207
 21
229.6112075864
 31
0.0
  0
LINE
  5
59
330
2B
100
AcDbEntity
  8
GRUNDRISS_2OG
  6
HIDDEN2
 62
     7
 48
25.4
100
AcDbLine
 10
166.0261446207
 20
203.2112075864
 30
0.0
 11
166.0261446207
 21
205.6112075864
 31
0.0
  0
LINE
  5
5A
330
2B
100
AcDbEntity
  8
GRUNDRISS_2OG
  6
HIDDEN2
 62
     7
 48
25.4
100
AcDbLine
 10
184.4261446207
 20
203.2112075864
 30
0.0
 11
184.4261446207
 21
205.6112075864
 31
0.0
  0
LINE
  5
5B
330
2B
100
AcDbEntity
  8
GRUNDRISS_2OG
  6
HIDDEN2
 62
     7
 48
25.4
100
AcDbLine
 10
124.2261446207
 20
195.8112075864
 30
0.0
 11
124.2261446207
 21
198.2112075864
 31
0.0
  0
LINE
  5
5C
330
2B
100
AcDbEntity
  8
GRUNDRISS_2OG
  6
HIDDEN2
 62
     7
 48
25.4
100
AcDbLine
 10
142.6261446207
 20
195.8112075864
 30
0.0
 11
142.6261446207
 21
198.2112075864
 31
0.0
  0
LINE
  5
5D
330
2B
100
AcDbEntity
  8
GRUNDRISS_2OG
  6
HIDDEN2
 62
     7
 48
25.4
100
AcDbLine
 10
111.0261446207
 20
214.8112075864
 30
0.0
 11
108.6261446207
 21
214.8112075864
 31
0.0
  0
LINE
  5
5E
330
2B
100
AcDbEntity
  8
GRUNDRISS_2OG
  6
HIDDEN2
 62
     7
 48
25.4
100
AcDbLine
 10
111.0261446207
 20
232.8112075864
 30
0.0
 11
108.6261446207
 21
232.8112075864
 31
0.0
  0
LINE
  5
5F
330
2B
100
AcDbEntity
  8
GRUNDRISS_2OG
  6
Continuous
 62
     7
 48
25.4
100
AcDbLine
 10
143.0261446207
 20
233.8112075864
 30
0.0
 11
111.0261446207
 21
233.8112075864
 31
0.0
  0
LINE
  5
60
330
2B
100
AcDbEntity
  8
GRUNDRISS_2OG
  6
Continuous
 62
     7
 48
25.4
100
AcDbLine
 10
143.0261446207
 20
233.8112075864
 30
0.0
 11
143.0261446207
 21
243.6112075864
 31
0.0
  0
LINE
  5
61
330
2B
100
AcDbEntity
  8
GRUNDRISS_2OG
  6
Continuous
 62
     7
 48
25.4
100
AcDbLine
 10
143.0261446207
 20
243.6112075864
 30
0.0
 11
152.8261446207
 21
243.6112075864
 31
0.0
  0
LINE
  5
62
330
2B
100
AcDbEntity
  8
GRUNDRISS_2OG
  6
Continuous
 62
     7
 48
25.4
100
AcDbLine
 10
152.8261446207
 20
243.6112075864
 30
0.0
 11
152.8261446207
 21
233.8112075864
 31
0.0
  0
LINE
  5
63
330
2B
100
AcDbEntity
  8
GRUNDRISS_2OG
  6
Continuous
 62
     7
 48
25.4
100
AcDbLine
 10
152.8261446207
 20
233.8112075864
 30
0.0
 11
143.0261446207
 21
233.8112075864
 31
0.0
  0
LINE
  5
64
330
2B
100
AcDbEntity
  8
GRUNDRISS_2OG
  6
Continuous
 62
     7
 48
25.4
100
AcDbLine
 10
145.4261446207
 20
241.2112075864
 30
0.0
 11
150.4261446207
 21
241.2112075864
 31
0.0
  0
LINE
  5
65
330
2B
100
AcDbEntity
  8
GRUNDRISS_2OG
  6
Continuous
 62
     7
 48
25.4
100
AcDbLine
 10
150.4261446207
 20
241.2112075864
 30
0.0
 11
150.4261446207
 21
236.2112075864
 31
0.0
  0
LINE
  5
66
330
2B
100
AcDbEntity
  8
GRUNDRISS_2OG
  6
Continuous
 62
     7
 48
25.4
100
AcDbLine
 10
150.4261446207
 20
236.2112075864
 30
0.0
 11
145.4261446207
 21
236.2112075864
 31
0.0
  0
LINE
  5
67
330
2B
100
AcDbEntity
  8
GRUNDRISS_2OG
  6
Continuous
 62
     7
 48
25.4
100
AcDbLine
 10
145.4261446207
 20
236.2112075864
 30
0.0
 11
145.4261446207
 21
241.2112075864
 31
0.0
  0
LINE
  5
68
330
2B
100
AcDbEntity
  8
GRUNDRISS_2OG
  6
Continuous
 62
     7
 48
25.4
100
AcDbLine
 10
155.4261446207
 20
205.6112075864
 30
0.0
 11
189.4261446207
 21
205.6112075864
 31
0.0
  0
LINE
  5
69
330
2B
100
AcDbEntity
  8
GRUNDRISS_2OG
  6
Continuous
 62
     7
 48
25.4
100
AcDbLine
 10
155.4261446207
 20
195.8112075864
 30
0.0
 11
155.4261446207
 21
205.6112075864
 31
0.0
  0
LINE
  5
6A
330
2B
100
AcDbEntity
  8
GRUNDRISS_2OG
  6
Continuous
 62
     7
 48
25.4
100
AcDbLine
 10
155.4261446207
 20
205.6112075864
 30
0.0
 11
145.6261446207
 21
205.6112075864
 31
0.0
  0
LINE
  5
6B
330
2B
100
AcDbEntity
  8
GRUNDRISS_2OG
  6
Continuous
 62
     7
 48
25.4
100
AcDbLine
 10
145.6261446207
 20
205.6112075864
 30
0.0
 11
145.6261446207
 21
195.8112075864
 31
0.0
  0
LINE
  5
6C
330
2B
100
AcDbEntity
  8
GRUNDRISS_2OG
  6
Continuous
 62
     7
 48
25.4
100
AcDbLine
 10
145.6261446207
 20
195.8112075864
 30
0.0
 11
155.4261446207
 21
195.8112075864
 31
0.0
  0
LINE
  5
6D
330
2B
100
AcDbEntity
  8
GRUNDRISS_2OG
  6
Continuous
 62
     7
 48
25.4
100
AcDbLine
 10
148.0261446207
 20
203.2112075864
 30
0.0
 11
153.0261446207
 21
203.2112075864
 31
0.0
  0
LINE
  5
6E
330
2B
100
AcDbEntity
  8
GRUNDRISS_2OG
  6
Continuous
 62
     7
 48
25.4
100
AcDbLine
 10
153.0261446207
 20
203.2112075864
 30
0.0
 11
153.0261446207
 21
198.2112075864
 31
0.0
  0
LINE
  5
6F
330
2B
100
AcDbEntity
  8
GRUNDRISS_2OG
  6
Continuous
 62
     7
 48
25.4
100
AcDbLine
 10
153.0261446207
 20
198.2112075864
 30
0.0
 11
148.0261446207
 21
198.2112075864
 31
0.0
  0
LINE
  5
70
330
2B
100
AcDbEntity
  8
GRUNDRISS_2OG
  6
Continuous
 62
     7
 48
25.4
100
AcDbLine
 10
148.0261446207
 20
198.2112075864
 30
0.0
 11
148.0261446207
 21
203.2112075864
 31
0.0
  0
LINE
  5
71
330
2B
100
AcDbEntity
  8
GRUNDRISS_2OG
  6
Continuous
 62
     7
 48
25.4
100
AcDbLine
 10
254.2261446207
 20
213.0112075864
 30
0.0
 11
254.2261446207
 21
268.5906502701
 31
0.0
  0
LINE
  5
72
330
2B
100
AcDbEntity
  8
GRUNDRISS_2OG
  6
Continuous
 62
     7
 48
25.4
100
AcDbLine
 10
252.8261446207
 20
205.6112075864
 30
0.0
 11
247.8261446207
 21
205.6112075864
 31
0.0
  0
LINE
  5
73
330
2B
100
AcDbEntity
  8
GRUNDRISS_2OG
  6
Continuous
 62
     7
 48
25.4
100
AcDbLine
 10
247.8261446207
 20
205.6112075864
 30
0.0
 11
247.8261446207
 21
210.6112075864
 31
0.0
  0
LINE
  5
74
330
2B
100
AcDbEntity
  8
GRUNDRISS_2OG
  6
Continuous
 62
     7
 48
25.4
100
AcDbLine
 10
247.8261446207
 20
210.6112075864
 30
0.0
 11
252.8261446207
 21
210.6112075864
 31
0.0
  0
LINE
  5
75
330
2B
100
AcDbEntity
  8
GRUNDRISS_2OG
  6
Continuous
 62
     7
 48
25.4
100
AcDbLine
 10
252.8261446207
 20
210.6112075864
 30
0.0
 11
252.8261446207
 21
205.6112075864
 31
0.0
  0
LINE
  5
76
330
2B
100
AcDbEntity
  8
GRUNDRISS_2OG
  6
Continuous
 62
     7
 48
25.4
100
AcDbLine
 10
254.2261446207
 20
213.0112075864
 30
0.0
 11
245.4261446207
 21
213.0112075864
 31
0.0
  0
LINE
  5
77
330
2B
100
AcDbEntity
  8
GRUNDRISS_2OG
  6
Continuous
 62
     7
 48
25.4
100
AcDbLine
 10
245.4261446207
 20
213.0112075864
 30
0.0
 11
245.4261446207
 21
203.2112075864
 31
0.0
  0
LINE
  5
78
330
2B
100
AcDbEntity
  8
GRUNDRISS_2OG
  6
Continuous
 62
     7
 48
25.4
100
AcDbLine
 10
245.4261446207
 20
203.2112075864
 30
0.0
 11
254.2261446207
 21
203.2112075864
 31
0.0
  0
LINE
  5
79
330
2B
100
AcDbEntity
  8
GRUNDRISS_2OG
  6
Continuous
 62
     7
 48
25.4
100
AcDbLine
 10
254.2261446207
 20
203.2112075864
 30
0.0
 11
254.2261446207
 21
213.0112075864
 31
0.0
  0
LINE
  5
7A
330
2B
100
AcDbEntity
  8
GRUNDRISS_2OG
  6
Continuous
 62
     7
 48
25.4
100
AcDbLine
 10
72.2390129125
 20
128.4112075864
 30
0.0
 11
100.6261446207
 21
128.4112075864
 31
0.0
  0
LINE
  5
7B
330
2B
100
AcDbEntity
  8
GRUNDRISS_2OG
  6
Continuous
 62
     7
 48
25.4
100
AcDbLine
 10
74.9061446207
 20
132.96569492
 30
0.0
 11
72.2390129125
 21
128.4112075864
 31
0.0
  0
LINE
  5
7C
330
2B
100
AcDbEntity
  8
GRUNDRISS_2OG
  6
Continuous
 62
     7
 48
25.4
100
AcDbLine
 10
64.6261446207
 20
246.6112075864
 30
0.0
 11
64.6261446207
 21
244.4112075864
 31
0.0
  0
LINE
  5
7D
330
2B
100
AcDbEntity
  8
GRUNDRISS_2OG
  6
Continuous
 62
     7
 48
25.4
100
AcDbLine
 10
64.6261446207
 20
130.8112075864
 30
0.0
 11
64.6261446207
 21
128.4112075864
 31
0.0
  0
LINE
  5
7E
330
2B
100
AcDbEntity
  8
GRUNDRISS_2OG
  6
Continuous
 62
     7
 48
25.4
100
AcDbLine
 10
69.1238189298
 20
226.8112075864
 30
0.0
 11
69.1238189298
 21
246.6112075864
 31
0.0
  0
LINE
  5
7F
330
2B
100
AcDbEntity
  8
GRUNDRISS_2OG
  6
Continuous
 62
     7
 48
25.4
100
AcDbLine
 10
69.1238189298
 20
246.6112075864
 30
0.0
 11
64.6261446207
 21
246.6112075864
 31
0.0
  0
LINE
  5
80
330
2B
100
AcDbEntity
  8
GRUNDRISS_2OG
  6
Continuous
 62
     7
 48
25.4
100
AcDbLine
 10
64.6261446207
 20
244.4112075864
 30
0.0
 11
66.7238189298
 21
244.4112075864
 31
0.0
  0
LINE
  5
81
330
2B
100
AcDbEntity
  8
GRUNDRISS_2OG
  6
Continuous
 62
     7
 48
25.4
100
AcDbLine
 10
66.7238189298
 20
244.4112075864
 30
0.0
 11
66.7238189298
 21
226.8112075864
 31
0.0
  0
LINE
  5
82
330
2B
100
AcDbEntity
  8
GRUNDRISS_2OG
  6
Continuous
 62
     7
 48
25.4
100
AcDbLine
 10
66.7238189298
 20
198.2112075864
 30
0.0
 11
64.6261446207
 21
198.2112075864
 31
0.0
  0
LINE
  5
83
330
2B
100
AcDbEntity
  8
GRUNDRISS_2OG
  6
Continuous
 62
     7
 48
25.4
100
AcDbLine
 10
72.5061446207
 20
195.8112075864
 30
0.0
 11
72.5061446207
 21
130.8112075864
 31
0.0
  0
LINE
  5
84
330
2B
100
AcDbEntity
  8
GRUNDRISS_2OG
  6
Continuous
 62
     7
 48
25.4
100
AcDbLine
 10
72.5061446207
 20
130.8112075864
 30
0.0
 11
64.6261446207
 21
130.8112075864
 31
0.0
  0
LINE
  5
85
330
2B
100
AcDbEntity
  8
GRUNDRISS_2OG
  6
Continuous
 62
     7
 48
25.4
100
AcDbLine
 10
64.6261446207
 20
195.8112075864
 30
0.0
 11
66.7238189298
 21
195.8112075864
 31
0.0
  0
LINE
  5
86
330
2B
100
AcDbEntity
  8
GRUNDRISS_2OG
  6
Continuous
 62
     7
 48
25.4
100
AcDbLine
 10
74.9061446207
 20
132.96569492
 30
0.0
 11
74.9061446207
 21
195.8112075864
 31
0.0
  0
LINE
  5
87
330
2B
100
AcDbEntity
  8
GRUNDRISS_2OG
  6
Continuous
 62
     7
 48
25.4
100
AcDbLine
 10
64.6261446207
 20
128.4112075864
 30
0.0
 11
72.2390129125
 21
128.4112075864
 31
0.0
  0
LINE
  5
88
330
2B
100
AcDbEntity
  8
GRUNDRISS_2OG
  6
Continuous
 62
     7
 48
25.4
100
AcDbLine
 10
64.6261446207
 20
198.2112075864
 30
0.0
 11
64.6261446207
 21
195.8112075864
 31
0.0
  0
LINE
  5
89
330
2B
100
AcDbEntity
  8
GRUNDRISS_2OG
  6
Continuous
 62
     7
 48
25.4
100
AcDbLine
 10
100.6261446207
 20
130.8112075864
 30
0.0
 11
74.9061446207
 21
130.8112075864
 31
0.0
  0
LINE
  5
8A
330
2B
100
AcDbEntity
  8
GRUNDRISS_2OG
  6
HIDDEN2
 62
     7
 48
25.4
100
AcDbLine
 10
69.1238189298
 20
224.4112075864
 30
0.0
 11
69.1238189298
 21
226.8112075864
 31
0.0
  0
LINE
  5
8B
330
2B
100
AcDbEntity
  8
GRUNDRISS_2OG
  6
HIDDEN2
 62
     7
 48
25.4
100
AcDbLine
 10
107.4261446207
 20
128.4112075864
 30
0.0
 11
107.4261446207
 21
130.8112075864
 31
0.0
  0
LINE
  5
8C
330
2B
100
AcDbEntity
  8
GRUNDRISS_2OG
  6
HIDDEN2
 62
     7
 48
25.4
100
AcDbLine
 10
142.4261446207
 20
128.4112075864
 30
0.0
 11
142.4261446207
 21
130.8112075864
 31
0.0
  0
LINE
  5
8D
330
2B
100
AcDbEntity
  8
GRUNDRISS_2OG
  6
HIDDEN2
 62
     7
 48
25.4
100
AcDbLine
 10
234.4261446207
 20
128.4112075864
 30
0.0
 11
234.4261446207
 21
130.8112075864
 31
0.0
  0
LINE
  5
8E
330
2B
100
AcDbEntity
  8
GRUNDRISS_2OG
  6
HIDDEN2
 62
     7
 48
25.4
100
AcDbLine
 10
199.4261446207
 20
128.4112075864
 30
0.0
 11
199.4261446207
 21
130.8112075864
 31
0.0
  0
LINE
  5
8F
330
2B
100
AcDbEntity
  8
GRUNDRISS_2OG
  6
HIDDEN2
 62
     7
 48
25.4
100
AcDbLine
 10
66.7238189298
 20
223.2112075864
 30
0.0
 11
69.1238189298
 21
223.2112075864
 31
0.0
  0
LINE
  5
90
330
2B
100
AcDbEntity
  8
GRUNDRISS_2OG
  6
HIDDEN2
 62
     7
 48
25.4
100
AcDbLine
 10
66.7238189298
 20
199.2112075864
 30
0.0
 11
69.1238189298
 21
199.2112075864
 31
0.0
  0
LINE
  5
91
330
2B
100
AcDbEntity
  8
GRUNDRISS_2OG
  6
HIDDEN2
 62
     7
 48
25.4
100
AcDbLine
 10
175.4261446207
 20
295.0112075864
 30
0.0
 11
175.4261446207
 21
292.6112075864
 31
0.0
  0
LINE
  5
92
330
2B
100
AcDbEntity
  8
GRUNDRISS_2OG
  6
HIDDEN2
 62
     7
 48
25.4
100
AcDbLine
 10
153.4261446207
 20
295.0112075864
 30
0.0
 11
153.4261446207
 21
292.6112075864
 31
0.0
  0
LINE
  5
93
330
2B
100
AcDbEntity
  8
GRUNDRISS_2OG
  6
HIDDEN2
 62
     7
 48
25.4
100
AcDbLine
 10
142.0261446207
 20
295.0112075864
 30
0.0
 11
142.0261446207
 21
292.6112075864
 31
0.0
  0
LINE
  5
94
330
2B
100
AcDbEntity
  8
GRUNDRISS_2OG
  6
HIDDEN2
 62
     7
 48
25.4
100
AcDbLine
 10
131.0261446207
 20
295.0112075864
 30
0.0
 11
131.0261446207
 21
292.6112075864
 31
0.0
  0
LINE
  5
95
330
2B
100
AcDbEntity
  8
GRUNDRISS_2OG
  6
HIDDEN2
 62
     7
 48
25.4
100
AcDbLine
 10
242.0261446207
 20
295.0112075864
 30
0.0
 11
242.0261446207
 21
292.6112075864
 31
0.0
  0
LINE
  5
96
330
2B
100
AcDbEntity
  8
GRUNDRISS_2OG
  6
HIDDEN2
 62
     7
 48
25.4
100
AcDbLine
 10
207.0261446207
 20
295.0112075864
 30
0.0
 11
207.0261446207
 21
292.6112075864
 31
0.0
  0
LINE
  5
97
330
2B
100
AcDbEntity
  8
GRUNDRISS_2OG
  6
Continuous
 62
     7
 48
25.4
100
AcDbLine
 10
100.6261446207
 20
128.4112075864
 30
0.0
 11
100.6261446207
 21
150.4524112768
 31
0.0
  0
LINE
  5
98
330
2B
100
AcDbEntity
  8
GRUNDRISS_2OG
  6
Continuous
 62
     7
 48
25.4
100
AcDbLine
 10
157.8261446207
 20
156.5393809319
 30
0.0
 11
157.8261446207
 21
203.2112075864
 31
0.0
  0
LINE
  5
99
330
2B
100
AcDbEntity
  8
GRUNDRISS_2OG
  6
Continuous
 62
     7
 48
25.4
100
AcDbLine
 10
254.2261446207
 20
153.4317649027
 30
0.0
 11
254.2261446207
 21
203.2112075864
 31
0.0
  0
LINE
  5
9A
330
2B
100
AcDbEntity
  8
GRUNDRISS_2OG
  6
Continuous
 62
     7
 48
25.4
100
AcDbLine
 10
251.0261446207
 20
130.8112075864
 30
0.0
 11
157.8261446207
 21
130.8112075864
 31
0.0
  0
LINE
  5
9B
330
2B
100
AcDbEntity
  8
GRUNDRISS_2OG
  6
Continuous
 62
     7
 48
25.4
100
AcDbLine
 10
157.8261446207
 20
130.8112075864
 30
0.0
 11
157.8261446207
 21
150.4524112768
 31
0.0
  0
LINE
  5
9C
330
2B
100
AcDbEntity
  8
GRUNDRISS_2OG
  6
Continuous
 62
     7
 48
25.4
100
AcDbLine
 10
251.0261446207
 20
147.3447952476
 30
0.0
 11
251.0261446207
 21
130.8112075864
 31
0.0
  0
LINE
  5
9D
330
2B
100
AcDbEntity
  8
GRUNDRISS_2OG
  6
Continuous
 62
     7
 48
25.4
100
AcDbLine
 10
155.4261446207
 20
150.4524112768
 30
0.0
 11
155.4261446207
 21
130.8112075864
 31
0.0
  0
LINE
  5
9E
330
2B
100
AcDbEntity
  8
GRUNDRISS_2OG
  6
Continuous
 62
     7
 48
25.4
100
AcDbLine
 10
155.4261446207
 20
130.8112075864
 30
0.0
 11
106.2261446207
 21
130.8112075864
 31
0.0
  0
LINE
  5
9F
330
2B
100
AcDbEntity
  8
GRUNDRISS_2OG
  6
Continuous
 62
     7
 48
25.4
100
AcDbLine
 10
106.2261446207
 20
130.8112075864
 30
0.0
 11
106.2261446207
 21
150.4524112768
 31
0.0
  0
LINE
  5
A0
330
2B
100
AcDbEntity
  8
GRUNDRISS_2OG
  6
Continuous
 62
     7
 48
25.4
100
AcDbLine
 10
100.6261446207
 20
150.4524112768
 30
0.0
 11
106.2261446207
 21
150.4524112768
 31
0.0
  0
LINE
  5
A1
330
2B
100
AcDbEntity
  8
GRUNDRISS_2OG
  6
Continuous
 62
     7
 48
25.4
100
AcDbLine
 10
155.4261446207
 20
150.4524112768
 30
0.0
 11
157.8261446207
 21
150.4524112768
 31
0.0
  0
LINE
  5
A2
330
2B
100
AcDbEntity
  8
GRUNDRISS_2OG
  6
Continuous
 62
     7
 48
25.4
100
AcDbLine
 10
100.6261446207
 20
128.4112075864
 30
0.0
 11
254.2061446207
 21
128.4112075864
 31
0.0
  0
LINE
  5
A3
330
2B
100
AcDbEntity
  8
GRUNDRISS_2OG
  6
Continuous
 62
     7
 48
25.4
100
AcDbLine
 10
157.8261446207
 20
150.4524112768
 30
0.0
 11
157.8261446207
 21
156.5393809319
 31
0.0
  0
LINE
  5
A4
330
2B
100
AcDbEntity
  8
GRUNDRISS_2OG
  6
Continuous
 62
     7
 48
25.4
100
AcDbLine
 10
155.4261446207
 20
156.5393809319
 30
0.0
 11
157.8261446207
 21
156.5393809319
 31
0.0
  0
LINE
  5
A5
330
2B
100
AcDbEntity
  8
GRUNDRISS_2OG
  6
Continuous
 62
     7
 48
25.4
100
AcDbLine
 10
155.4261446207
 20
156.5393809319
 30
0.0
 11
155.4261446207
 21
150.4524112768
 31
0.0
  0
LINE
  5
A6
330
2B
100
AcDbEntity
  8
GRUNDRISS_2OG
  6
Continuous
 62
     7
 48
25.4
100
AcDbLine
 10
191.8261446207
 20
265.4830342409
 30
0.0
 11
191.8261446207
 21
269.5958515754
 31
0.0
  0
LINE
  5
A7
330
2B
100
AcDbEntity
  8
GRUNDRISS_2OG
  6
Continuous
 62
     7
 48
25.4
100
AcDbLine
 10
191.8261446207
 20
269.5958515754
 30
0.0
 11
191.8261446207
 21
292.6112075864
 31
0.0
  0
LINE
  5
A8
330
2B
100
AcDbEntity
  8
GRUNDRISS_2OG
  6
Continuous
 62
     7
 48
25.4
100
AcDbLine
 10
251.0261446207
 20
268.5906502701
 30
0.0
 11
251.0261446207
 21
213.0112075864
 31
0.0
  0
LINE
  5
A9
330
2B
100
AcDbEntity
  8
GRUNDRISS_2OG
  6
Continuous
 62
     7
 48
25.4
100
AcDbLine
 10
143.0261446207
 20
265.4830342409
 30
0.0
 11
143.0261446207
 21
243.6112075864
 31
0.0
  0
LINE
  5
AA
330
2B
100
AcDbEntity
  8
GRUNDRISS_2OG
  6
Continuous
 62
     7
 48
25.4
100
AcDbLine
 10
189.4261446207
 20
265.4830342409
 30
0.0
 11
189.4261446207
 21
236.2112075864
 31
0.0
  0
LINE
  5
AB
330
2B
100
AcDbEntity
  8
GRUNDRISS_2OG
  6
Continuous
 62
     7
 48
25.4
100
AcDbLine
 10
108.6261446207
 20
265.4830342409
 30
0.0
 11
108.6261446207
 21
213.2112075864
 31
0.0
  0
LINE
  5
AC
330
2B
100
AcDbEntity
  8
GRUNDRISS_2OG
  6
Continuous
 62
     7
 48
25.4
100
AcDbLine
 10
108.6261446207
 20
272.7034676046
 30
0.0
 11
108.6261446207
 21
269.5958515754
 31
0.0
  0
LINE
  5
AD
330
2B
100
AcDbEntity
  8
GRUNDRISS_2OG
  6
Continuous
 62
     7
 48
25.4
100
AcDbLine
 10
145.4261446207
 20
269.5958515754
 30
0.0
 11
145.4261446207
 21
292.6112075864
 31
0.0
  0
LINE
  5
AE
330
2B
100
AcDbEntity
  8
GRUNDRISS_2OG
  6
Continuous
 62
     7
 48
25.4
100
AcDbLine
 10
145.4261446207
 20
292.6112075864
 30
0.0
 11
189.4261446207
 21
292.6112075864
 31
0.0
  0
LINE
  5
AF
330
2B
100
AcDbEntity
  8
GRUNDRISS_2OG
  6
Continuous
 62
     7
 48
25.4
100
AcDbLine
 10
189.4261446207
 20
292.6112075864
 30
0.0
 11
189.4261446207
 21
269.5958515754
 31
0.0
  0
LINE
  5
B0
330
2B
100
AcDbEntity
  8
GRUNDRISS_2OG
  6
Continuous
 62
     7
 48
25.4
100
AcDbLine
 10
111.0261446207
 20
269.5958515754
 30
0.0
 11
111.0261446207
 21
275.1112075864
 31
0.0
  0
LINE
  5
B1
330
2B
100
AcDbEntity
  8
GRUNDRISS_2OG
  6
Continuous
 62
     7
 48
25.4
100
AcDbLine
 10
111.0261446207
 20
292.6112075864
 30
0.0
 11
143.0261446207
 21
292.6112075864
 31
0.0
  0
LINE
  5
B2
330
2B
100
AcDbEntity
  8
GRUNDRISS_2OG
  6
Continuous
 62
     7
 48
25.4
100
AcDbLine
 10
143.0261446207
 20
292.6112075864
 30
0.0
 11
143.0261446207
 21
269.5958515754
 31
0.0
  0
LINE
  5
B3
330
2B
100
AcDbEntity
  8
GRUNDRISS_2OG
  6
Continuous
 62
     7
 48
25.4
100
AcDbLine
 10
191.8261446207
 20
292.6112075864
 30
0.0
 11
251.0261446207
 21
292.6112075864
 31
0.0
  0
LINE
  5
B4
330
2B
100
AcDbEntity
  8
GRUNDRISS_2OG
  6
Continuous
 62
     7
 48
25.4
100
AcDbLine
 10
251.0261446207
 20
292.6112075864
 30
0.0
 11
251.0261446207
 21
272.7034676046
 31
0.0
  0
LINE
  5
B5
330
2B
100
AcDbEntity
  8
GRUNDRISS_2OG
  6
Continuous
 62
     7
 48
25.4
100
AcDbLine
 10
108.6261446207
 20
269.5958515754
 30
0.0
 11
108.6261446207
 21
265.4830342409
 31
0.0
  0
LINE
  5
B6
330
2B
100
AcDbEntity
  8
GRUNDRISS_2OG
  6
Continuous
 62
     7
 48
25.4
100
AcDbLine
 10
145.4261446207
 20
265.4830342409
 30
0.0
 11
145.4261446207
 21
269.5958515754
 31
0.0
  0
LINE
  5
B7
330
2B
100
AcDbEntity
  8
GRUNDRISS_2OG
  6
Continuous
 62
     7
 48
25.4
100
AcDbLine
 10
189.4261446207
 20
269.5958515754
 30
0.0
 11
189.4261446207
 21
265.4830342409
 31
0.0
  0
LINE
  5
B8
330
2B
100
AcDbEntity
  8
GRUNDRISS_2OG
  6
Continuous
 62
     7
 48
25.4
100
AcDbLine
 10
143.0261446207
 20
269.5958515754
 30
0.0
 11
145.4261446207
 21
269.5958515754
 31
0.0
  0
LINE
  5
B9
330
2B
100
AcDbEntity
  8
GRUNDRISS_2OG
  6
Continuous
 62
     7
 48
25.4
100
AcDbLine
 10
111.0261446207
 20
265.4830342409
 30
0.0
 11
111.0261446207
 21
269.5958515754
 31
0.0
  0
LINE
  5
BA
330
2B
100
AcDbEntity
  8
GRUNDRISS_2OG
  6
Continuous
 62
     7
 48
25.4
100
AcDbLine
 10
143.0261446207
 20
269.5958515754
 30
0.0
 11
143.0261446207
 21
265.4830342409
 31
0.0
  0
LINE
  5
BB
330
2B
100
AcDbEntity
  8
GRUNDRISS_2OG
  6
Continuous
 62
     7
 48
25.4
100
AcDbLine
 10
108.6261446207
 20
269.5958515754
 30
0.0
 11
111.0261446207
 21
269.5958515754
 31
0.0
  0
LINE
  5
BC
330
2B
100
AcDbEntity
  8
GRUNDRISS_2OG
  6
Continuous
 62
     7
 48
25.4
100
AcDbLine
 10
108.6261446207
 20
265.4830342409
 30
0.0
 11
111.0261446207
 21
265.4830342409
 31
0.0
  0
LINE
  5
BD
330
2B
100
AcDbEntity
  8
GRUNDRISS_2OG
  6
Continuous
 62
     7
 48
25.4
100
AcDbLine
 10
143.0261446207
 20
265.4830342409
 30
0.0
 11
145.4261446207
 21
265.4830342409
 31
0.0
  0
LINE
  5
BE
330
2B
100
AcDbEntity
  8
GRUNDRISS_2OG
  6
Continuous
 62
     7
 48
25.4
100
AcDbLine
 10
189.4261446207
 20
265.4830342409
 30
0.0
 11
191.8261446207
 21
265.4830342409
 31
0.0
  0
LINE
  5
BF
330
2B
100
AcDbEntity
  8
GRUNDRISS_2OG
  6
Continuous
 62
     7
 48
25.4
100
AcDbLine
 10
108.6461446207
 20
295.0112075864
 30
0.0
 11
254.2061446207
 21
295.0112075864
 31
0.0
  0
LINE
  5
C0
330
2B
100
AcDbEntity
  8
GRUNDRISS_2OG
  6
Continuous
 62
     7
 48
25.4
100
AcDbLine
 10
189.4261446207
 20
269.5958515754
 30
0.0
 11
191.8261446207
 21
269.5958515754
 31
0.0
  0
LINE
  5
C1
330
2B
100
AcDbEntity
  8
GRUNDRISS_2OG
  6
Continuous
 62
     7
 48
25.4
100
AcDbLine
 10
84.375741601
 20
224.4112075864
 30
0.0
 11
84.375741601
 21
226.8112075864
 31
0.0
  0
LINE
  5
C2
330
2B
100
AcDbEntity
  8
GRUNDRISS_2OG
  6
Continuous
 62
     7
 48
25.4
100
AcDbLine
 10
88.7110189869
 20
195.8112075864
 30
0.0
 11
145.6261446207
 21
195.8112075864
 31
0.0
  0
LINE
  5
C3
330
2B
100
AcDbEntity
  8
GRUNDRISS_2OG
  6
Continuous
 62
     7
 48
25.4
100
AcDbLine
 10
88.7110189869
 20
198.2112075864
 30
0.0
 11
84.375741601
 21
198.2112075864
 31
0.0
  0
LINE
  5
C4
330
2B
100
AcDbEntity
  8
GRUNDRISS_2OG
  6
Continuous
 62
     7
 48
25.4
100
AcDbLine
 10
84.375741601
 20
226.8112075864
 30
0.0
 11
66.7238189298
 21
226.8112075864
 31
0.0
  0
LINE
  5
C5
330
2B
100
AcDbEntity
  8
GRUNDRISS_2OG
  6
Continuous
 62
     7
 48
25.4
100
AcDbLine
 10
84.375741601
 20
198.2112075864
 30
0.0
 11
69.1238189298
 21
198.2112075864
 31
0.0
  0
LINE
  5
C6
330
2B
100
AcDbEntity
  8
GRUNDRISS_2OG
  6
Continuous
 62
     7
 48
25.4
100
AcDbLine
 10
69.1238189298
 20
198.2112075864
 30
0.0
 11
69.1238189298
 21
224.4112075864
 31
0.0
  0
LINE
  5
C7
330
2B
100
AcDbEntity
  8
GRUNDRISS_2OG
  6
Continuous
 62
     7
 48
25.4
100
AcDbLine
 10
88.7110189869
 20
198.2112075864
 30
0.0
 11
88.7110189869
 21
195.8112075864
 31
0.0
  0
LINE
  5
C8
330
2B
100
AcDbEntity
  8
GRUNDRISS_2OG
  6
Continuous
 62
     7
 48
25.4
100
AcDbLine
 10
88.7110189869
 20
195.8112075864
 30
0.0
 11
84.375741601
 21
195.8112075864
 31
0.0
  0
LINE
  5
C9
330
2B
100
AcDbEntity
  8
GRUNDRISS_2OG
  6
Continuous
 62
     7
 48
25.4
100
AcDbLine
 10
84.375741601
 20
224.4112075864
 30
0.0
 11
69.1238189298
 21
224.4112075864
 31
0.0
  0
LINE
  5
CA
330
2B
100
AcDbEntity
  8
GRUNDRISS_2OG
  6
Continuous
 62
     7
 48
25.4
100
AcDbLine
 10
84.375741601
 20
198.2112075864
 30
0.0
 11
84.375741601
 21
195.8112075864
 31
0.0
  0
LINE
  5
CB
330
2B
100
AcDbEntity
  8
GRUNDRISS_2OG
  6
Continuous
 62
     7
 48
25.4
100
AcDbLine
 10
84.375741601
 20
195.8112075864
 30
0.0
 11
81.0998057863
 21
195.8112075864
 31
0.0
  0
LINE
  5
CC
330
2B
100
AcDbEntity
  8
GRUNDRISS_2OG
  6
Continuous
 62
     7
 48
25.4
100
AcDbLine
 10
66.7238189298
 20
226.8112075864
 30
0.0
 11
66.7238189298
 21
195.8312075864
 31
0.0
  0
LINE
  5
CD
330
2B
100
AcDbEntity
  8
GRUNDRISS_2OG
  6
Continuous
 62
     7
 48
25.4
100
AcDbLine
 10
111.0261446207
 20
278.1112075864
 30
0.0
 11
111.0261446207
 21
292.6112075864
 31
0.0
  0
LINE
  5
CE
330
2B
100
AcDbEntity
  8
GRUNDRISS_2OG
  6
HIDDEN2
 62
     7
 48
25.4
100
AcDbLine
 10
114.2261446207
 20
262.6112075864
 30
0.0
 11
114.0261446207
 21
262.6112075864
 31
0.0
  0
LINE
  5
CF
330
2B
100
AcDbEntity
  8
GRUNDRISS_2OG
  6
Continuous
 62
     7
 48
25.4
100
AcDbLine
 10
114.0261446207
 20
262.6112075864
 30
0.0
 11
111.0261446207
 21
262.6112075864
 31
0.0
  0
LINE
  5
D0
330
2B
100
AcDbEntity
  8
GRUNDRISS_2OG
  6
Continuous
 62
     7
 48
25.4
100
AcDbLine
 10
114.2261446207
 20
275.1112075864
 30
0.0
 11
111.0261446207
 21
275.1112075864
 31
0.0
  0
LINE
  5
D1
330
2B
100
AcDbEntity
  8
GRUNDRISS_2OG
  6
Continuous
 62
     7
 48
25.4
100
AcDbLine
 10
114.2261446207
 20
275.1112075864
 30
0.0
 11
114.2261446207
 21
278.1112075864
 31
0.0
  0
LINE
  5
D2
330
2B
100
AcDbEntity
  8
GRUNDRISS_2OG
  6
Continuous
 62
     7
 48
25.4
100
AcDbLine
 10
114.2261446207
 20
278.1112075864
 30
0.0
 11
111.0261446207
 21
278.1112075864
 31
0.0
  0
LINE
  5
D3
330
2B
100
AcDbEntity
  8
GRUNDRISS_2OG
  6
Continuous
 62
     7
 48
25.4
100
AcDbLine
 10
114.2261446207
 20
278.1112075864
 30
0.0
 11
114.2261446207
 21
292.6112075864
 31
0.0
  0
LINE
  5
D4
330
2B
100
AcDbEntity
  8
GRUNDRISS_2OG
  6
Continuous
 62
     7
 48
25.4
100
AcDbLine
 10
111.0261446207
 20
275.1112075864
 30
0.0
 11
111.0261446207
 21
278.1112075864
 31
0.0
  0
LINE
  5
D5
330
2B
100
AcDbEntity
  8
GRUNDRISS_2OG
  6
Continuous
 62
     7
 48
25.4
100
AcDbLine
 10
254.2061446207
 20
295.0112075864
 30
0.0
 11
254.2061446207
 21
272.7034676046
 31
0.0
  0
LINE
  5
D6
330
2B
100
AcDbEntity
  8
GRUNDRISS_2OG
  6
Continuous
 62
     7
 48
25.4
100
AcDbLine
 10
254.2261446207
 20
268.5906502701
 30
0.0
 11
254.2261446207
 21
309.7188236156
 31
0.0
  0
LINE
  5
D7
330
2B
100
AcDbEntity
  8
GRUNDRISS_2OG
  6
Continuous
 62
     7
 48
25.4
100
AcDbLine
 10
254.2061446207
 20
147.3447952476
 30
0.0
 11
254.2061446207
 21
128.4112075864
 31
0.0
  0
LINE
  5
D8
330
2B
100
AcDbEntity
  8
GRUNDRISS_2OG
  6
Continuous
 62
     7
 48
25.4
100
AcDbLine
 10
254.2261446207
 20
112.3035915572
 30
0.0
 11
254.2261446207
 21
153.4317649027
 31
0.0
  0
LINE
  5
D9
330
2B
100
AcDbEntity
  8
GRUNDRISS_2OG
  6
Continuous
 62
     7
 48
25.4
100
AcDbLine
 10
108.6461446207
 20
295.0112075864
 30
0.0
 11
108.6261446207
 21
295.0112075864
 31
0.0
  0
LINE
  5
DA
330
2B
100
AcDbEntity
  8
GRUNDRISS_2OG
  6
Continuous
 62
     7
 48
25.4
100
AcDbLine
 10
108.6261446207
 20
272.7034676046
 30
0.0
 11
108.6261446207
 21
295.0112075864
 31
0.0
  0
LINE
  5
DB
330
2B
100
AcDbEntity
  8
GRUNDRISS_2OG
  6
Continuous
 62
     7
 48
25.4
100
AcDbLine
 10
108.6461446207
 20
272.7034676046
 30
0.0
 11
108.6261446207
 21
272.7034676046
 31
0.0
  0
LINE
  5
DC
330
2B
100
AcDbEntity
  8
GRUNDRISS_2OG
  6
Continuous
 62
     7
 48
25.4
100
AcDbLine
 10
108.6461446207
 20
295.0112075864
 30
0.0
 11
108.6461446207
 21
272.7034676046
 31
0.0
  0
LINE
  5
DD
330
2B
100
AcDbEntity
  8
GRUNDRISS_2OG
  6
Continuous
 62
     7
 48
25.4
100
AcDbLine
 10
81.0998057863
 20
195.8312075864
 30
0.0
 11
81.0998057863
 21
195.8112075864
 31
0.0
  0
LINE
  5
DE
330
2B
100
AcDbEntity
  8
GRUNDRISS_2OG
  6
Continuous
 62
     7
 48
25.4
100
AcDbLine
 10
81.0998057863
 20
195.8312075864
 30
0.0
 11
66.7238189298
 21
195.8312075864
 31
0.0
  0
LINE
  5
DF
330
2B
100
AcDbEntity
  8
GRUNDRISS_2OG
  6
Continuous
 62
     7
 48
25.4
100
AcDbLine
 10
66.7238189298
 20
195.8312075864
 30
0.0
 11
66.7238189298
 21
195.8112075864
 31
0.0
  0
LINE
  5
E0
330
2B
100
AcDbEntity
  8
GRUNDRISS_2OG
  6
Continuous
 62
     7
 48
25.4
100
AcDbLine
 10
66.7238189298
 20
195.8112075864
 30
0.0
 11
81.0998057863
 21
195.8112075864
 31
0.0
  0
LINE
  5
E1
330
2B
100
AcDbEntity
  8
GRUNDRISS_2OG
  6
Continuous
 62
     7
 48
25.4
100
AcDbLine
 10
251.0261446207
 20
112.3035915572
 30
0.0
 11
251.0261446207
 21
128.4112075864
 31
0.0
  0
LINE
  5
E2
330
2B
100
AcDbEntity
  8
GRUNDRISS_2OG
  6
Continuous
 62
     7
 48
25.4
100
AcDbLine
 10
251.0261446207
 20
112.3035915572
 30
0.0
 11
254.2261446207
 21
112.3035915572
 31
0.0
  0
LINE
  5
E3
330
2B
100
AcDbEntity
  8
GRUNDRISS_2OG
  6
Continuous
 62
     7
 48
25.4
100
AcDbLine
 10
254.2061446207
 20
147.3447952476
 30
0.0
 11
251.0261446207
 21
147.3447952476
 31
0.0
  0
LINE
  5
E4
330
2B
100
AcDbEntity
  8
GRUNDRISS_2OG
  6
Continuous
 62
     7
 48
25.4
100
AcDbLine
 10
251.0261446207
 20
153.4317649027
 30
0.0
 11
254.2261446207
 21
153.4317649027
 31
0.0
  0
LINE
  5
E5
330
2B
100
AcDbEntity
  8
GRUNDRISS_2OG
  6
Continuous
 62
     7
 48
25.4
100
AcDbLine
 10
251.0261446207
 20
147.3447952476
 30
0.0
 11
251.0261446207
 21
153.4317649027
 31
0.0
  0
LINE
  5
E6
330
2B
100
AcDbEntity
  8
GRUNDRISS_2OG
  6
Continuous
 62
     7
 48
25.4
100
AcDbLine
 10
251.0261446207
 20
295.0112075864
 30
0.0
 11
251.0261446207
 21
309.7188236156
 31
0.0
  0
LINE
  5
E7
330
2B
100
AcDbEntity
  8
GRUNDRISS_2OG
  6
Continuous
 62
     7
 48
25.4
100
AcDbLine
 10
251.0261446207
 20
268.5906502701
 30
0.0
 11
251.0261446207
 21
272.7034676046
 31
0.0
  0
LINE
  5
E8
330
2B
100
AcDbEntity
  8
GRUNDRISS_2OG
  6
Continuous
 62
     7
 48
25.4
100
AcDbLine
 10
251.0261446207
 20
272.7034676046
 30
0.0
 11
254.2061446207
 21
272.7034676046
 31
0.0
  0
LINE
  5
E9
330
2B
100
AcDbEntity
  8
GRUNDRISS_2OG
  6
Continuous
 62
     7
 48
25.4
100
AcDbLine
 10
251.0261446207
 20
268.5906502701
 30
0.0
 11
254.2261446207
 21
268.5906502701
 31
0.0
  0
LINE
  5
EA
330
2B
100
AcDbEntity
  8
GRUNDRISS_2OG
  6
Continuous
 62
     7
 48
25.4
100
AcDbLine
 10
251.0261446207
 20
309.7188236156
 30
0.0
 11
254.2261446207
 21
309.7188236156
 31
0.0
  0
LINE
  5
EB
330
2B
100
AcDbEntity
  8
GRUNDRISS_2OG
  6
HIDDEN2
 62
     7
 48
25.4
100
AcDbLine
 10
111.0261446207
 20
214.2112075864
 30
0.0
 11
111.0261446207
 21
198.2112075864
 31
0.0
  0
LINE
  5
EC
330
2B
100
AcDbEntity
  8
GRUNDRISS_2OG
  6
Continuous
 62
     7
 48
25.4
100
AcDbLine
 10
117.1801712747
 20
198.2112075864
 30
0.0
 11
144.6261446207
 21
198.2112075864
 31
0.0
  0
LINE
  5
ED
330
2B
100
AcDbEntity
  8
GRUNDRISS_2OG
  6
Continuous
 62
     7
 48
25.4
100
AcDbLine
 10
114.6261446207
 20
213.2112075864
 30
0.0
 11
114.6261446207
 21
198.2112075864
 31
0.0
  0
LINE
  5
EE
330
2B
100
AcDbEntity
  8
GRUNDRISS_2OG
  6
Continuous
 62
     7
 48
25.4
100
AcDbLine
 10
117.1801712747
 20
214.2112075864
 30
0.0
 11
117.1801712747
 21
198.2112075864
 31
0.0
  0
LINE
  5
EF
330
2B
100
AcDbEntity
  8
GRUNDRISS_2OG
  6
HIDDEN2
 62
     7
 48
25.4
100
AcDbLine
 10
117.1801712747
 20
198.2112075864
 30
0.0
 11
114.6261446207
 21
198.2112075864
 31
0.0
  0
LINE
  5
F0
330
2B
100
AcDbEntity
  8
GRUNDRISS_2OG
  6
Continuous
 62
     7
 48
25.4
100
AcDbLine
 10
111.0261446207
 20
214.2112075864
 30
0.0
 11
117.1801712747
 21
214.2112075864
 31
0.0
  0
LINE
  5
F1
330
2B
100
AcDbEntity
  8
GRUNDRISS_2OG
  6
Continuous
 62
     7
 48
25.4
100
AcDbLine
 10
108.6261446207
 20
213.2112075864
 30
0.0
 11
114.6261446207
 21
213.2112075864
 31
0.0
  0
LINE
  5
F2
330
2B
100
AcDbEntity
  8
GRUNDRISS_2OG
  6
Continuous
 62
     7
 48
25.4
100
AcDbLine
 10
108.6261446207
 20
213.2112075864
 30
0.0
 11
108.6261446207
 21
198.2112075864
 31
0.0
  0
LINE
  5
F4
330
2B
100
AcDbEntity
  8
ROHRVERKLEIDUNG
  6
Continuous
 62
     7
 48
25.4
100
AcDbLine
 10
114.2261446207
 20
254.6112075864
 30
0.0
 11
114.2261446207
 21
260.6112075864
 31
0.0
  0
LINE
  5
F5
330
2B
100
AcDbEntity
  8
ROHRVERKLEIDUNG
  6
Continuous
 62
     7
 48
25.4
100
AcDbLine
 10
114.2261446207
 20
260.6112075864
 30
0.0
 11
114.2261446207
 21
265.4830342409
 31
0.0
  0
LINE
  5
F6
330
2B
100
AcDbEntity
  8
ROHRVERKLEIDUNG
  6
Continuous
 62
     7
 48
25.4
100
AcDbLine
 10
114.2261446207
 20
265.4830342409
 30
0.0
 11
114.2261446207
 21
269.5958515754
 31
0.0
  0
LINE
  5
F7
330
2B
100
AcDbEntity
  8
ROHRVERKLEIDUNG
  6
Continuous
 62
     7
 48
25.4
100
AcDbLine
 10
114.2261446207
 20
269.5958515754
 30
0.0
 11
114.2261446207
 21
275.1112075864
 31
0.0
  0
LINE
  5
F8
330
2B
100
AcDbEntity
  8
ROHRVERKLEIDUNG
  6
Continuous
 62
     7
 48
25.4
100
AcDbLine
 10
114.2261446207
 20
278.1112075864
 30
0.0
 11
114.2261446207
 21
292.6112075864
 31
0.0
  0
LINE
  5
F9
330
2B
100
AcDbEntity
  8
ROHRVERKLEIDUNG
  6
Continuous
 62
     7
 48
25.4
100
AcDbLine
 10
111.0261446207
 20
260.6112075864
 30
0.0
 11
111.0261446207
 21
260.8112075864
 31
0.0
  0
LINE
  5
FA
330
2B
100
AcDbEntity
  8
ROHRVERKLEIDUNG
  6
HIDDEN2
 62
     7
 48
25.4
100
AcDbLine
 10
114.2261446207
 20
278.0112075864
 30
0.0
 11
111.0261446207
 21
278.0112075864
 31
0.0
  0
LINE
  5
FB
330
2B
100
AcDbEntity
  8
ROHRVERKLEIDUNG
  6
Continuous
 62
     7
 48
25.4
100
AcDbLine
 10
114.2261446207
 20
269.5958515754
 30
0.0
 11
114.0261446207
 21
269.5958515754
 31
0.0
  0
LINE
  5
FC
330
2B
100
AcDbEntity
  8
ROHRVERKLEIDUNG
  6
Continuous
 62
     7
 48
25.4
100
AcDbLine
 10
114.2261446207
 20
265.4830342409
 30
0.0
 11
114.0261446207
 21
265.4830342409
 31
0.0
  0
LINE
  5
FD
330
2B
100
AcDbEntity
  8
ROHRVERKLEIDUNG
  6
Continuous
 62
     7
 48
25.4
100
AcDbLine
 10
114.2261446207
 20
260.6112075864
 30
0.0
 11
111.0261446207
 21
260.6112075864
 31
0.0
  0
LINE
  5
FE
330
2B
100
AcDbEntity
  8
ROHRVERKLEIDUNG
  6
Continuous
 62
     7
 48
25.4
100
AcDbLine
 10
114.2261446207
 20
254.6112075864
 30
0.0
 11
111.0261446207
 21
254.6112075864
 31
0.0
  0
LINE
  5
FF
330
2B
100
AcDbEntity
  8
ROHRVERKLEIDUNG
  6
HIDDEN2
 62
     7
 48
25.4
100
AcDbLine
 10
114.0261446207
 20
277.8112075864
 30
0.0
 11
114.0261446207
 21
292.6112075864
 31
0.0
  0
LINE
  5
100
330
2B
100
AcDbEntity
  8
ROHRVERKLEIDUNG
  6
HIDDEN2
 62
     7
 48
25.4
100
AcDbLine
 10
114.0261446207
 20
254.8112075864
 30
0.0
 11
111.0261446207
 21
254.8112075864
 31
0.0
  0
LINE
  5
101
330
2B
100
AcDbEntity
  8
ROHRVERKLEIDUNG
  6
HIDDEN2
 62
     7
 48
25.4
100
AcDbLine
 10
114.0261446207
 20
254.8112075864
 30
0.0
 11
114.0261446207
 21
260.8112075864
 31
0.0
  0
LINE
  5
102
330
2B
100
AcDbEntity
  8
ROHRVERKLEIDUNG
  6
Continuous
 62
     7
 48
25.4
100
AcDbLine
 10
114.0261446207
 20
260.8112075864
 30
0.0
 11
111.0261446207
 21
260.8112075864
 31
0.0
  0
LINE
  5
103
330
2B
100
AcDbEntity
  8
ROHRVERKLEIDUNG
  6
Continuous
 62
     7
 48
25.4
100
AcDbLine
 10
114.0261446207
 20
260.8112075864
 30
0.0
 11
114.0261446207
 21
265.4830342409
 31
0.0
  0
LINE
  5
104
330
2B
100
AcDbEntity
  8
ROHRVERKLEIDUNG
  6
Continuous
 62
     7
 48
25.4
100
AcDbLine
 10
114.0261446207
 20
265.4830342409
 30
0.0
 11
114.0261446207
 21
269.5958515754
 31
0.0
  0
LINE
  5
105
330
2B
100
AcDbEntity
  8
ROHRVERKLEIDUNG
  6
Continuous
 62
     7
 48
25.4
100
AcDbLine
 10
114.0261446207
 20
269.5958515754
 30
0.0
 11
114.0261446207
 21
275.1112075864
 31
0.0
  0
LINE
  5
106
330
2B
100
AcDbEntity
  8
ROHRVERKLEIDUNG
  6
HIDDEN2
 62
     7
 48
25.4
100
AcDbLine
 10
114.0261446207
 20
275.1112075864
 30
0.0
 11
114.0261446207
 21
277.8112075864
 31
0.0
  0
LINE
  5
107
330
2B
100
AcDbEntity
  8
ROHRVERKLEIDUNG
  6
HIDDEN2
 62
     7
 48
25.4
100
AcDbLine
 10
114.0261446207
 20
277.8112075864
 30
0.0
 11
111.0261446207
 21
277.8112075864
 31
0.0
  0
LINE
  5
108
330
2B
100
AcDbEntity
  8
ROHRVERKLEIDUNG
  6
HIDDEN2
 62
     7
 48
25.4
100
AcDbLine
 10
114.0261446207
 20
272.6112075864
 30
0.0
 11
114.2261446207
 21
272.6112075864
 31
0.0
  0
LINE
  5
109
330
2B
100
AcDbEntity
  8
ROHRVERKLEIDUNG
  6
HIDDEN2
 62
     7
 48
25.4
100
AcDbLine
 10
114.0261446207
 20
266.6112075864
 30
0.0
 11
114.2261446207
 21
266.6112075864
 31
0.0
  0
LINE
  5
10B
330
2B
100
AcDbEntity
  8
STUFE1
  6
Continuous
 62
     7
 48
25.4
100
AcDbLine
 10
236.2261446207
 20
158.3132075864
 30
0.0
 11
250.0261446207
 21
158.3132075864
 31
0.0
  0
LINE
  5
10C
330
2B
100
AcDbEntity
  8
STUFE1
  6
HIDDEN2
 62
     7
 48
25.4
100
AcDbLine
 10
250.0261446207
 20
163.2932075864
 30
0.0
 11
236.2261446207
 21
163.2932075864
 31
0.0
  0
LINE
  5
10D
330
2B
100
AcDbEntity
  8
STUFE1
  6
Continuous
 62
     7
 48
25.4
100
AcDbLine
 10
236.2261446207
 20
162.4932075864
 30
0.0
 11
250.0261446207
 21
162.4932075864
 31
0.0
  0
LINE
  5
10E
330
2B
100
AcDbEntity
  8
STUFE1
  6
HIDDEN2
 62
     7
 48
25.4
100
AcDbLine
 10
250.0261446207
 20
167.4732075864
 30
0.0
 11
236.2261446207
 21
167.4732075864
 31
0.0
  0
LINE
  5
10F
330
2B
100
AcDbEntity
  8
STUFE1
  6
Continuous
 62
     7
 48
25.4
100
AcDbLine
 10
236.2261446207
 20
166.6732075864
 30
0.0
 11
250.0261446207
 21
166.6732075864
 31
0.0
  0
LINE
  5
110
330
2B
100
AcDbEntity
  8
STUFE1
  6
HIDDEN2
 62
     7
 48
25.4
100
AcDbLine
 10
250.0261446207
 20
171.6532075864
 30
0.0
 11
236.2261446207
 21
171.6532075864
 31
0.0
  0
LINE
  5
111
330
2B
100
AcDbEntity
  8
STUFE1
  6
Continuous
 62
     7
 48
25.4
100
AcDbLine
 10
236.2261446207
 20
170.8532075864
 30
0.0
 11
250.0261446207
 21
170.8532075864
 31
0.0
  0
LINE
  5
112
330
2B
100
AcDbEntity
  8
STUFE1
  6
HIDDEN2
 62
     7
 48
25.4
100
AcDbLine
 10
250.0261446207
 20
175.8332075864
 30
0.0
 11
236.2261446207
 21
175.8332075864
 31
0.0
  0
LINE
  5
113
330
2B
100
AcDbEntity
  8
STUFE1
  6
Continuous
 62
     7
 48
25.4
100
AcDbLine
 10
236.2261446207
 20
175.0332075864
 30
0.0
 11
250.0261446207
 21
175.0332075864
 31
0.0
  0
LINE
  5
114
330
2B
100
AcDbEntity
  8
STUFE1
  6
HIDDEN2
 62
     7
 48
25.4
100
AcDbLine
 10
250.0261446207
 20
180.0132075864
 30
0.0
 11
236.2261446207
 21
180.0132075864
 31
0.0
  0
LINE
  5
116
330
2B
100
AcDbEntity
  8
STUFE2
  6
Continuous
 62
     7
 48
25.4
100
AcDbLine
 10
236.2261446207
 20
179.2132075864
 30
0.0
 11
250.0261446207
 21
179.2132075864
 31
0.0
  0
LINE
  5
117
330
2B
100
AcDbEntity
  8
STUFE2
  6
HIDDEN2
 62
     7
 48
25.4
100
AcDbLine
 10
250.0261446207
 20
185.7890323991
 30
0.0
 11
236.2261446207
 21
182.6385484362
 31
0.0
  0
LINE
  5
119
330
2B
100
AcDbEntity
  8
STUFE4
  6
HIDDEN2
 62
     7
 48
25.4
100
AcDbLine
 10
250.0261446207
 20
198.7620257419
 30
0.0
 11
235.9047441939
 21
187.4971282093
 31
0.0
  0
LINE
  5
11A
330
2B
100
AcDbEntity
  8
STUFE4
  6
Continuous
 62
     7
 48
25.4
100
AcDbLine
 10
236.2261446207
 20
184.2700777551
 30
0.0
 11
250.0261446207
 21
190.9175030802
 31
0.0
  0
LINE
  5
11C
330
2B
100
AcDbEntity
  8
STUFE3
  6
Continuous
 62
     7
 48
25.4
100
AcDbLine
 10
236.2261446207
 20
181.8385484362
 30
0.0
 11
250.0261446207
 21
184.9890323991
 31
0.0
  0
LINE
  5
11D
330
2B
100
AcDbEntity
  8
STUFE3
  6
HIDDEN2
 62
     7
 48
25.4
100
AcDbLine
 10
250.0261446207
 20
191.8054787445
 30
0.0
 11
236.2261446207
 21
185.1580534194
 31
0.0
  0
LINE
  5
11F
330
2B
100
AcDbEntity
  8
STUFE5
  6
Continuous
 62
     7
 48
25.4
100
AcDbLine
 10
236.2032025337
 20
186.7118533399
 30
0.0
 11
250.0261446207
 21
197.7386652356
 31
0.0
  0
LINE
  5
120
330
2B
100
AcDbEntity
  8
STUFE5
  6
Continuous
 62
     7
 48
25.4
100
AcDbLine
 10
250.0261446207
 20
202.2097904177
 30
0.0
 11
245.5565318265
 21
202.2097904177
 31
0.0
  0
LINE
  5
121
330
2B
100
AcDbEntity
  8
STUFE5
  6
HIDDEN2
 62
     7
 48
25.4
100
AcDbLine
 10
244.5331713202
 20
202.2097904177
 30
0.0
 11
233.524660744
 21
188.4097904177
 31
0.0
  0
ARC
  5
123
330
2B
100
AcDbEntity
  8
KRUEMMLING
  6
Continuous
 62
     7
 48
25.4
100
AcDbCircle
 10
234.2261446207
 20
186.4097904177
 30
0.0
 40
1.999999999999997
100
AcDbArc
 50
0.0
 51
90.0
  0
LINE
  5
124
330
2B
100
AcDbEntity
  8
KRUEMMLING
  6
Continuous
 62
     7
 48
25.4
100
AcDbLine
 10
236.2261446207
 20
186.4097904177
 30
0.0
 11
235.4261446207
 21
186.4097904177
 31
0.0
  0
ARC
  5
125
330
2B
100
AcDbEntity
  8
KRUEMMLING
  6
Continuous
 62
     7
 48
25.4
100
AcDbCircle
 10
234.2261446207
 20
186.4097904177
 30
0.0
 40
1.200000000000003
100
AcDbArc
 50
0.0
 51
90.0
  0
LINE
  5
126
330
2B
100
AcDbEntity
  8
KRUEMMLING
  6
Continuous
 62
     7
 48
25.4
100
AcDbLine
 10
234.2261446207
 20
187.6097904177
 30
0.0
 11
234.2261446207
 21
188.4097904177
 31
0.0
  0
LINE
  5
128
330
2B
100
AcDbEntity
  8
STUFE6
  6
Continuous
 62
     7
 48
25.4
100
AcDbLine
 10
234.5295552938
 20
188.3866419456
 30
0.0
 11
245.5565318265
 21
202.2097904177
 31
0.0
  0
LINE
  5
129
330
2B
100
AcDbEntity
  8
STUFE6
  6
Continuous
 62
     7
 48
25.4
100
AcDbLine
 10
245.5565318265
 20
202.2097904177
 30
0.0
 11
238.5898572833
 21
202.2097904177
 31
0.0
  0
LINE
  5
12A
330
2B
100
AcDbEntity
  8
STUFE6
  6
HIDDEN2
 62
     7
 48
25.4
100
AcDbLine
 10
237.701881619
 20
202.2097904177
 30
0.0
 11
231.0544562939
 21
188.4097904177
 31
0.0
  0
LINE
  5
12C
330
2B
100
AcDbEntity
  8
STUFE7
  6
Continuous
 62
     7
 48
25.4
100
AcDbLine
 10
238.5898572833
 20
202.2097904177
 30
0.0
 11
232.6613866022
 21
202.2097904177
 31
0.0
  0
LINE
  5
12D
330
2B
100
AcDbEntity
  8
STUFE7
  6
HIDDEN2
 62
     7
 48
25.4
100
AcDbLine
 10
231.8408037709
 20
202.2097904177
 30
0.0
 11
228.690319808
 21
188.4097904177
 31
0.0
  0
LINE
  5
12E
330
2B
100
AcDbEntity
  8
STUFE7
  6
Continuous
 62
     7
 48
25.4
100
AcDbLine
 10
231.9424319582
 20
188.4097904177
 30
0.0
 11
238.5898572833
 21
202.2097904177
 31
0.0
  0
LINE
  5
12F
330
2B
100
AcDbEntity
  8
STUFE1
  6
Continuous
 62
     7
 48
25.4
100
AcDbLine
 10
226.9061446207
 20
188.4097904177
 30
0.0
 11
226.9061446207
 21
202.2097904177
 31
0.0
  0
LINE
  5
130
330
2B
100
AcDbEntity
  8
STUFE1
  6
Continuous
 62
     7
 48
25.4
100
AcDbLine
 10
226.9061446207
 20
202.2097904177
 30
0.0
 11
222.7261446207
 21
202.2097904177
 31
0.0
  0
LINE
  5
131
330
2B
100
AcDbEntity
  8
STUFE1
  6
HIDDEN2
 62
     7
 48
25.4
100
AcDbLine
 10
221.9261446207
 20
202.2097904177
 30
0.0
 11
221.9261446207
 21
188.4097904177
 31
0.0
  0
LINE
  5
133
330
2B
100
AcDbEntity
  8
STUFE8
  6
Continuous
 62
     7
 48
25.4
100
AcDbLine
 10
229.5109026393
 20
188.4097904177
 30
0.0
 11
232.6613866022
 21
202.2097904177
 31
0.0
  0
LINE
  5
134
330
2B
100
AcDbEntity
  8
STUFE8
  6
Continuous
 62
     7
 48
25.4
100
AcDbLine
 10
232.6613866022
 20
202.2097904177
 30
0.0
 11
226.9061446207
 21
202.2097904177
 31
0.0
  0
LINE
  5
135
330
2B
100
AcDbEntity
  8
STUFE8
  6
HIDDEN2
 62
     7
 48
25.4
100
AcDbLine
 10
226.1061446207
 20
202.2097904177
 30
0.0
 11
226.1061446207
 21
188.4097904177
 31
0.0
  0
LINE
  5
137
330
2B
100
AcDbEntity
  8
WANGE_OR
  6
Continuous
 62
     7
 48
25.4
100
AcDbLine
 10
250.8261446207
 20
203.0112075864
 30
0.0
 11
250.0261446207
 21
203.0112075864
 31
0.0
  0
LINE
  5
138
330
2B
100
AcDbEntity
  8
WANGE_OR
  6
Continuous
 62
     7
 48
25.4
100
AcDbLine
 10
250.0261446207
 20
203.0112075864
 30
0.0
 11
223.2040258251
 21
203.0112075864
 31
0.0
  0
LINE
  5
139
330
2B
100
AcDbEntity
  8
WANGE_OR
  6
Continuous
 62
     7
 48
25.4
100
AcDbLine
 10
223.2040258251
 20
203.0112075864
 30
0.0
 11
202.7261446207
 21
203.0112075864
 31
0.0
  0
LINE
  5
13A
330
2B
100
AcDbEntity
  8
WANGE_OR
  6
Continuous
 62
     7
 48
25.4
100
AcDbLine
 10
250.0261446207
 20
202.2112075864
 30
0.0
 11
223.2040258251
 21
202.2112075864
 31
0.0
  0
LINE
  5
13B
330
2B
100
AcDbEntity
  8
WANGE_OR
  6
Continuous
 62
     7
 48
25.4
100
AcDbLine
 10
250.8261446207
 20
202.2112075864
 30
0.0
 11
250.0261446207
 21
202.2112075864
 31
0.0
  0
LINE
  5
13C
330
2B
100
AcDbEntity
  8
WANGE_OR
  6
Continuous
 62
     7
 48
25.4
100
AcDbLine
 10
223.2040258251
 20
202.2112075864
 30
0.0
 11
202.7261446207
 21
202.2112075864
 31
0.0
  0
LINE
  5
13D
330
2B
100
AcDbEntity
  8
WANGE_OR
  6
Continuous
 62
     7
 48
25.4
100
AcDbLine
 10
223.2040258251
 20
203.0112075864
 30
0.0
 11
223.2040258251
 21
202.2112075864
 31
0.0
  0
LINE
  5
13E
330
2B
100
AcDbEntity
  8
WANGE_OR
  6
Continuous
 62
     7
 48
25.4
100
AcDbLine
 10
250.0261446207
 20
203.0112075864
 30
0.0
 11
250.0261446207
 21
202.2112075864
 31
0.0
  0
LINE
  5
13F
330
2B
100
AcDbEntity
  8
WANGE_OR
  6
Continuous
 62
     7
 48
25.4
100
AcDbLine
 10
250.8261446207
 20
203.0112075864
 30
0.0
 11
250.8261446207
 21
202.2112075864
 31
0.0
  0
LINE
  5
140
330
2B
100
AcDbEntity
  8
WANGE_OR
  6
HIDDEN2
 62
     7
 48
25.4
100
AcDbLine
 10
220.3261446207
 20
203.0112075864
 30
0.0
 11
220.3261446207
 21
202.2112075864
 31
0.0
  0
LINE
  5
141
330
2B
100
AcDbEntity
  8
WANGE_OR
  6
Continuous
 62
     7
 48
25.4
100
AcDbLine
 10
202.7261446207
 20
203.0112075864
 30
0.0
 11
202.7261446207
 21
202.2112075864
 31
0.0
  0
LINE
  5
143
330
2B
100
AcDbEntity
  8
STUFE9
  6
Continuous
 62
     7
 48
25.4
100
AcDbLine
 10
222.7261446207
 20
202.2097904177
 30
0.0
 11
222.7261446207
 21
188.4097904177
 31
0.0
  0
LINE
  5
144
330
2B
100
AcDbEntity
  8
STUFE9
  6
Continuous
 62
     7
 48
25.4
100
AcDbLine
 10
202.7261446207
 20
188.4097904177
 30
0.0
 11
202.7261446207
 21
202.2097904177
 31
0.0
  0
LINE
  5
145
330
2B
100
AcDbEntity
  8
STUFE9
  6
Continuous
 62
     7
 48
25.4
100
AcDbLine
 10
202.7261446207
 20
202.2097904177
 30
0.0
 11
222.7261446207
 21
202.2097904177
 31
0.0
  0
LINE
  5
147
330
2B
100
AcDbEntity
  8
WANGE_UR
  6
Continuous
 62
     7
 48
25.4
100
AcDbLine
 10
250.8261446207
 20
157.9132075864
 30
0.0
 11
250.8261446207
 21
179.2132075864
 31
0.0
  0
LINE
  5
148
330
2B
100
AcDbEntity
  8
WANGE_UR
  6
Continuous
 62
     7
 48
25.4
100
AcDbLine
 10
250.8261446207
 20
179.2132075864
 30
0.0
 11
250.8261446207
 21
202.2097904177
 31
0.0
  0
LINE
  5
149
330
2B
100
AcDbEntity
  8
WANGE_UR
  6
Continuous
 62
     7
 48
25.4
100
AcDbLine
 10
250.0261446207
 20
179.2132075864
 30
0.0
 11
250.0261446207
 21
202.2097904177
 31
0.0
  0
LINE
  5
14A
330
2B
100
AcDbEntity
  8
WANGE_UR
  6
Continuous
 62
     7
 48
25.4
100
AcDbLine
 10
250.0261446207
 20
157.9132075864
 30
0.0
 11
250.0261446207
 21
179.2132075864
 31
0.0
  0
LINE
  5
14B
330
2B
100
AcDbEntity
  8
WANGE_UR
  6
Continuous
 62
     7
 48
25.4
100
AcDbLine
 10
250.8261446207
 20
202.2097904177
 30
0.0
 11
250.0261446207
 21
202.2097904177
 31
0.0
  0
LINE
  5
14C
330
2B
100
AcDbEntity
  8
WANGE_UR
  6
Continuous
 62
     7
 48
25.4
100
AcDbLine
 10
250.8261446207
 20
157.9132075864
 30
0.0
 11
250.0261446207
 21
157.9132075864
 31
0.0
  0
LINE
  5
14D
330
2B
100
AcDbEntity
  8
WANGE_UR
  6
HIDDEN2
 62
     7
 48
25.4
100
AcDbLine
 10
250.8261446207
 20
160.6083532175
 30
0.0
 11
250.0261446207
 21
160.6083532175
 31
0.0
  0
LINE
  5
14F
330
2B
100
AcDbEntity
  8
WANGE_UL
  6
Continuous
 62
     7
 48
25.4
100
AcDbLine
 10
235.4261446207
 20
157.9132075864
 30
0.0
 11
235.4261446207
 21
172.5122266497
 31
0.0
  0
LINE
  5
150
330
2B
100
AcDbEntity
  8
WANGE_UL
  6
Continuous
 62
     7
 48
25.4
100
AcDbLine
 10
235.4261446207
 20
172.5122266497
 30
0.0
 11
235.4261446207
 21
186.4097904177
 31
0.0
  0
LINE
  5
151
330
2B
100
AcDbEntity
  8
WANGE_UL
  6
Continuous
 62
     7
 48
25.4
100
AcDbLine
 10
236.2261446207
 20
172.5122266497
 30
0.0
 11
236.2261446207
 21
186.4097904177
 31
0.0
  0
LINE
  5
152
330
2B
100
AcDbEntity
  8
WANGE_UL
  6
Continuous
 62
     7
 48
25.4
100
AcDbLine
 10
236.2261446207
 20
157.9132075864
 30
0.0
 11
236.2261446207
 21
172.5122266497
 31
0.0
  0
LINE
  5
153
330
2B
100
AcDbEntity
  8
WANGE_UL
  6
Continuous
 62
     7
 48
25.4
100
AcDbLine
 10
235.4261446207
 20
157.9132075864
 30
0.0
 11
236.2261446207
 21
157.9132075864
 31
0.0
  0
LINE
  5
154
330
2B
100
AcDbEntity
  8
WANGE_UL
  6
HIDDEN2
 62
     7
 48
25.4
100
AcDbLine
 10
235.4261446207
 20
160.6083532175
 30
0.0
 11
236.2261446207
 21
160.6083532175
 31
0.0
  0
LINE
  5
156
330
2B
100
AcDbEntity
  8
WANGE_OL
  6
Continuous
 62
     7
 48
25.4
100
AcDbLine
 10
234.2260731458
 20
187.6097904177
 30
0.0
 11
222.7261446207
 21
187.6097904177
 31
0.0
  0
LINE
  5
157
330
2B
100
AcDbEntity
  8
WANGE_OL
  6
Continuous
 62
     7
 48
25.4
100
AcDbLine
 10
222.7261446207
 20
187.6097904177
 30
0.0
 11
202.7261446207
 21
187.6097904177
 31
0.0
  0
LINE
  5
158
330
2B
100
AcDbEntity
  8
WANGE_OL
  6
Continuous
 62
     7
 48
25.4
100
AcDbLine
 10
234.2260731458
 20
188.4097904177
 30
0.0
 11
222.7261446207
 21
188.4097904177
 31
0.0
  0
LINE
  5
159
330
2B
100
AcDbEntity
  8
WANGE_OL
  6
Continuous
 62
     7
 48
25.4
100
AcDbLine
 10
222.7261446207
 20
188.4097904177
 30
0.0
 11
202.7261446207
 21
188.4097904177
 31
0.0
  0
LINE
  5
15A
330
2B
100
AcDbEntity
  8
WANGE_OL
  6
Continuous
 62
     7
 48
25.4
100
AcDbLine
 10
222.7261446207
 20
187.6097904177
 30
0.0
 11
222.7261446207
 21
188.4097904177
 31
0.0
  0
LINE
  5
15B
330
2B
100
AcDbEntity
  8
WANGE_OL
  6
HIDDEN2
 62
     7
 48
25.4
100
AcDbLine
 10
220.3261446207
 20
187.6097904177
 30
0.0
 11
220.3261446207
 21
188.4097904177
 31
0.0
  0
LINE
  5
15C
330
2B
100
AcDbEntity
  8
WANGE_OL
  6
Continuous
 62
     7
 48
25.4
100
AcDbLine
 10
202.7261446207
 20
187.6097904177
 30
0.0
 11
202.7261446207
 21
188.4097904177
 31
0.0
  0
ENDBLK
  5
15E
330
2B
100
AcDbEntity
  8
0
100
AcDbBlockEnd
  0
BLOCK
  5
248
330
15F
100
AcDbEntity
  8
0
100
AcDbBlockBegin
  2
SE1
 70
     0
 71
     0
 10
0.0
 20
0.0
 30
0.0
  3
SE1
  1

  0
LINE
  5
162
330
15F
100
AcDbEntity
  8
DECKE_2OG
  6
HIDDEN2
 62
     7
 48
25.4
100
AcDbLine
 10
490.3211231153
 20
238.1656490808
 30
0.0
 11
490.3211231153
 21
282.1258125101
 31
0.0
  0
LINE
  5
163
330
15F
100
AcDbEntity
  8
DECKE_2OG
  6
HIDDEN2
 62
     7
 48
25.4
100
AcDbLine
 10
490.3211231153
 20
220.3656490808
 30
0.0
 11
487.1211231153
 21
220.3656490808
 31
0.0
  0
LINE
  5
164
330
15F
100
AcDbEntity
  8
DECKE_2OG
  6
HIDDEN2
 62
     7
 48
25.4
100
AcDbLine
 10
487.1211231153
 20
220.3656490808
 30
0.0
 11
487.1211231153
 21
177.3131016807
 31
0.0
  0
LINE
  5
165
330
15F
100
AcDbEntity
  8
DECKE_2OG
  6
Continuous
 62
     7
 48
25.4
100
AcDbLine
 10
439.1211231153
 20
177.3131016807
 30
0.0
 11
439.1211231153
 21
204.7642319121
 31
0.0
  0
LINE
  5
166
330
15F
100
AcDbEntity
  8
DECKE_2OG
  6
HIDDEN2
 62
     7
 48
25.4
100
AcDbLine
 10
439.1211231153
 20
204.7642319121
 30
0.0
 11
439.1211231153
 21
219.3642319121
 31
0.0
  0
LINE
  5
167
330
15F
100
AcDbEntity
  8
DECKE_2OG
  6
Continuous
 62
     7
 48
25.4
100
AcDbLine
 10
439.1211231153
 20
219.3642319121
 30
0.0
 11
439.1211231153
 21
219.3656490808
 31
0.0
  0
LINE
  5
168
330
15F
100
AcDbEntity
  8
DECKE_2OG
  6
HIDDEN2
 62
     7
 48
25.4
100
AcDbLine
 10
439.1211231153
 20
219.3656490808
 30
0.0
 11
439.1211231153
 21
220.1656490808
 31
0.0
  0
LINE
  5
169
330
15F
100
AcDbEntity
  8
DECKE_2OG
  6
Continuous
 62
     7
 48
25.4
100
AcDbLine
 10
439.1211231153
 20
220.1656490808
 30
0.0
 11
439.1211231153
 21
220.3656490808
 31
0.0
  0
LINE
  5
16A
330
15F
100
AcDbEntity
  8
DECKE_2OG
  6
Continuous
 62
     7
 48
25.4
100
AcDbLine
 10
439.1211231153
 20
220.3656490808
 30
0.0
 11
481.5211231153
 21
220.3656490808
 31
0.0
  0
LINE
  5
16B
330
15F
100
AcDbEntity
  8
DECKE_2OG
  6
HIDDEN2
 62
     7
 48
25.4
100
AcDbLine
 10
485.3211231153
 20
230.1656490808
 30
0.0
 11
490.3211231153
 21
230.1656490808
 31
0.0
  0
LINE
  5
16C
330
15F
100
AcDbEntity
  8
DECKE_2OG
  6
Continuous
 62
     7
 48
25.4
100
AcDbLine
 10
381.7211231153
 20
212.9656490808
 30
0.0
 11
391.5211231153
 21
212.9656490808
 31
0.0
  0
LINE
  5
16D
330
15F
100
AcDbEntity
  8
DECKE_2OG
  6
HIDDEN2
 62
     7
 48
25.4
100
AcDbLine
 10
381.7211231153
 20
213.1602493595
 30
0.0
 11
381.7211231153
 21
212.9656490808
 31
0.0
  0
LINE
  5
16E
330
15F
100
AcDbEntity
  8
DECKE_2OG
  6
HIDDEN2
 62
     7
 48
25.4
100
AcDbLine
 10
391.5211231153
 20
222.7656490808
 30
0.0
 11
381.7211231153
 21
222.7656490808
 31
0.0
  0
LINE
  5
16F
330
15F
100
AcDbEntity
  8
DECKE_2OG
  6
Continuous
 62
     7
 48
25.4
100
AcDbLine
 10
350.1211231153
 20
229.7656490808
 30
0.0
 11
327.7211231153
 21
229.7656490808
 31
0.0
  0
LINE
  5
170
330
15F
100
AcDbEntity
  8
DECKE_2OG
  6
Continuous
 62
     7
 48
25.4
100
AcDbLine
 10
350.1211231153
 20
215.7656490808
 30
0.0
 11
350.1211231153
 21
229.7656490808
 31
0.0
  0
LINE
  5
171
330
15F
100
AcDbEntity
  8
DECKE_2OG
  6
Continuous
 62
     7
 48
25.4
100
AcDbLine
 10
327.7211231153
 20
215.7656490808
 30
0.0
 11
350.1211231153
 21
215.7656490808
 31
0.0
  0
LINE
  5
172
330
15F
100
AcDbEntity
  8
DECKE_2OG
  6
Continuous
 62
     7
 48
25.4
100
AcDbLine
 10
327.7211231153
 20
229.7656490808
 30
0.0
 11
327.7211231153
 21
215.7656490808
 31
0.0
  0
LINE
  5
173
330
15F
100
AcDbEntity
  8
DECKE_2OG
  6
HIDDEN2
 62
     7
 48
25.4
100
AcDbLine
 10
336.7211231153
 20
173.6938224263
 30
0.0
 11
439.1211231153
 21
173.6938224263
 31
0.0
  0
LINE
  5
174
330
15F
100
AcDbEntity
  8
DECKE_2OG
  6
HIDDEN2
 62
     7
 48
25.4
100
AcDbLine
 10
336.7211231153
 20
167.6068527712
 30
0.0
 11
490.3211231153
 21
167.6068527712
 31
0.0
  0
LINE
  5
175
330
15F
100
AcDbEntity
  8
DECKE_2OG
  6
HIDDEN2
 62
     7
 48
25.4
100
AcDbLine
 10
490.3211231153
 20
174.2054856515
 30
0.0
 11
490.3211231153
 21
218.1355409088
 31
0.0
  0
LINE
  5
176
330
15F
100
AcDbEntity
  8
DECKE_2OG
  6
Continuous
 62
     7
 48
25.4
100
AcDbLine
 10
336.7211231153
 20
145.5656490808
 30
0.0
 11
490.3011231153
 21
145.5656490808
 31
0.0
  0
LINE
  5
177
330
15F
100
AcDbEntity
  8
DECKE_2OG
  6
Continuous
 62
     7
 48
25.4
100
AcDbLine
 10
336.7211231153
 20
145.5656490808
 30
0.0
 11
336.7211231153
 21
169.4346175435
 31
0.0
  0
LINE
  5
178
330
15F
100
AcDbEntity
  8
DECKE_2OG
  6
Continuous
 62
     7
 48
25.4
100
AcDbLine
 10
336.7211231153
 20
169.4346175435
 30
0.0
 11
490.3011231153
 21
169.4346175435
 31
0.0
  0
LINE
  5
179
330
15F
100
AcDbEntity
  8
DECKE_2OG
  6
Continuous
 62
     7
 48
25.4
100
AcDbLine
 10
336.7211231153
 20
169.4346175435
 30
0.0
 11
336.7211231153
 21
170.5862063971
 31
0.0
  0
LINE
  5
17A
330
15F
100
AcDbEntity
  8
DECKE_2OG
  6
Continuous
 62
     7
 48
25.4
100
AcDbLine
 10
490.3211231153
 20
164.499236742
 30
0.0
 11
490.3211231153
 21
174.2054856515
 31
0.0
  0
LINE
  5
17B
330
15F
100
AcDbEntity
  8
DECKE_2OG
  6
HIDDEN2
 62
     7
 48
25.4
100
AcDbLine
 10
344.7211231153
 20
286.7502930699
 30
0.0
 11
490.3211231153
 21
286.7502930699
 31
0.0
  0
LINE
  5
17C
330
15F
100
AcDbEntity
  8
DECKE_2OG
  6
HIDDEN2
 62
     7
 48
25.4
100
AcDbLine
 10
344.7211231153
 20
282.6374757353
 30
0.0
 11
490.3211231153
 21
282.6374757353
 31
0.0
  0
LINE
  5
17D
330
15F
100
AcDbEntity
  8
DECKE_2OG
  6
Continuous
 62
     7
 48
25.4
100
AcDbLine
 10
344.7211231153
 20
312.1656490808
 30
0.0
 11
344.7211231153
 21
284.9225282976
 31
0.0
  0
LINE
  5
17E
330
15F
100
AcDbEntity
  8
DECKE_2OG
  6
Continuous
 62
     7
 48
25.4
100
AcDbLine
 10
344.7211231153
 20
284.9225282976
 30
0.0
 11
490.3011231153
 21
284.9225282976
 31
0.0
  0
LINE
  5
17F
330
15F
100
AcDbEntity
  8
DECKE_2OG
  6
Continuous
 62
     7
 48
25.4
100
AcDbLine
 10
490.3211231153
 20
289.8579090991
 30
0.0
 11
490.3211231153
 21
282.1258125101
 31
0.0
  0
LINE
  5
180
330
15F
100
AcDbEntity
  8
DECKE_2OG
  6
Continuous
 62
     7
 48
25.4
100
AcDbLine
 10
344.7211231153
 20
312.1656490808
 30
0.0
 11
490.3011231153
 21
312.1656490808
 31
0.0
  0
LINE
  5
181
330
15F
100
AcDbEntity
  8
DECKE_2OG
  6
HIDDEN2
 62
     7
 48
25.4
100
AcDbLine
 10
320.4707200955
 20
212.9656490808
 30
0.0
 11
320.4707200955
 21
243.9656490808
 31
0.0
  0
LINE
  5
182
330
15F
100
AcDbEntity
  8
DECKE_2OG
  6
HIDDEN2
 62
     7
 48
25.4
100
AcDbLine
 10
324.8059974814
 20
212.9656490808
 30
0.0
 11
324.8059974814
 21
243.9656490808
 31
0.0
  0
LINE
  5
183
330
15F
100
AcDbEntity
  8
DECKE_2OG
  6
HIDDEN2
 62
     7
 48
25.4
100
AcDbLine
 10
324.8059974814
 20
212.9656490808
 30
0.0
 11
322.1420704886
 21
212.9656490808
 31
0.0
  0
LINE
  5
184
330
15F
100
AcDbEntity
  8
DECKE_2OG
  6
HIDDEN2
 62
     7
 48
25.4
100
AcDbLine
 10
344.7211231153
 20
284.9225282976
 30
0.0
 11
344.7211231153
 21
282.6374757353
 31
0.0
  0
LINE
  5
185
330
15F
100
AcDbEntity
  8
DECKE_2OG
  6
Continuous
 62
     7
 48
25.4
100
AcDbLine
 10
344.7211231153
 20
285.7450917645
 30
0.0
 11
322.1420704886
 21
285.7450917645
 31
0.0
  0
LINE
  5
186
330
15F
100
AcDbEntity
  8
DECKE_2OG
  6
Continuous
 62
     7
 48
25.4
100
AcDbLine
 10
336.7211231153
 20
170.5862063971
 30
0.0
 11
322.1420704886
 21
170.5862063971
 31
0.0
  0
LINE
  5
187
330
15F
100
AcDbEntity
  8
DECKE_2OG
  6
HIDDEN2
 62
     7
 48
25.4
100
AcDbLine
 10
336.7211231153
 20
170.5862063971
 30
0.0
 11
336.7211231153
 21
173.6938224263
 31
0.0
  0
LINE
  5
188
330
15F
100
AcDbEntity
  8
DECKE_2OG
  6
Continuous
 62
     7
 48
25.4
100
AcDbLine
 10
324.2615394328
 20
282.1258125101
 30
0.0
 11
490.3211231153
 21
282.1258125101
 31
0.0
  0
LINE
  5
189
330
15F
100
AcDbEntity
  8
DECKE_2OG
  6
Continuous
 62
     7
 48
25.4
100
AcDbLine
 10
324.2615394328
 20
282.1258125101
 30
0.0
 11
322.1420704886
 21
285.7450917645
 31
0.0
  0
LINE
  5
18A
330
15F
100
AcDbEntity
  8
DECKE_2OG
  6
HIDDEN2
 62
     7
 48
25.4
100
AcDbLine
 10
322.1420704886
 20
243.9656490808
 30
0.0
 11
324.8059974814
 21
243.9656490808
 31
0.0
  0
LINE
  5
18B
330
15F
100
AcDbEntity
  8
DECKE_2OG
  6
Continuous
 62
     7
 48
25.4
100
AcDbLine
 10
324.2615394328
 20
282.1258125101
 30
0.0
 11
324.2615394328
 21
174.2054856515
 31
0.0
  0
LINE
  5
18C
330
15F
100
AcDbEntity
  8
DECKE_2OG
  6
Continuous
 62
     7
 48
25.4
100
AcDbLine
 10
322.1420704886
 20
285.7450917645
 30
0.0
 11
322.1420704886
 21
243.9656490808
 31
0.0
  0
LINE
  5
18D
330
15F
100
AcDbEntity
  8
DECKE_2OG
  6
Continuous
 62
     7
 48
25.4
100
AcDbLine
 10
324.2615394328
 20
174.2054856515
 30
0.0
 11
490.3211231153
 21
174.2054856515
 31
0.0
  0
LINE
  5
18E
330
15F
100
AcDbEntity
  8
DECKE_2OG
  6
Continuous
 62
     7
 48
25.4
100
AcDbLine
 10
322.1420704886
 20
170.5862063971
 30
0.0
 11
324.2615394328
 21
174.2054856515
 31
0.0
  0
LINE
  5
18F
330
15F
100
AcDbEntity
  8
DECKE_2OG
  6
Continuous
 62
     7
 48
25.4
100
AcDbLine
 10
302.8187974244
 20
212.9656490808
 30
0.0
 11
320.6969780266
 21
212.9656490808
 31
0.0
  0
LINE
  5
190
330
15F
100
AcDbEntity
  8
DECKE_2OG
  6
Continuous
 62
     7
 48
25.4
100
AcDbLine
 10
320.6969780266
 20
212.9656490808
 30
0.0
 11
322.1420704886
 21
212.9656490808
 31
0.0
  0
LINE
  5
191
330
15F
100
AcDbEntity
  8
DECKE_2OG
  6
Continuous
 62
     7
 48
25.4
100
AcDbLine
 10
320.6969780266
 20
212.9656490808
 30
0.0
 11
320.6969780266
 21
243.9656490808
 31
0.0
  0
LINE
  5
192
330
15F
100
AcDbEntity
  8
DECKE_2OG
  6
Continuous
 62
     7
 48
25.4
100
AcDbLine
 10
320.6969780266
 20
243.9656490808
 30
0.0
 11
322.1420704886
 21
243.9656490808
 31
0.0
  0
LINE
  5
193
330
15F
100
AcDbEntity
  8
DECKE_2OG
  6
Continuous
 62
     7
 48
25.4
100
AcDbLine
 10
322.1420704886
 20
170.5862063971
 30
0.0
 11
322.1420704886
 21
212.9656490808
 31
0.0
  0
LINE
  5
194
330
15F
100
AcDbEntity
  8
DECKE_2OG
  6
Continuous
 62
     7
 48
25.4
100
AcDbLine
 10
302.8187974244
 20
212.9656490808
 30
0.0
 11
302.8187974244
 21
243.9656490808
 31
0.0
  0
LINE
  5
195
330
15F
100
AcDbEntity
  8
DECKE_2OG
  6
Continuous
 62
     7
 48
25.4
100
AcDbLine
 10
302.8187974244
 20
243.9656490808
 30
0.0
 11
320.6969780266
 21
243.9656490808
 31
0.0
  0
LINE
  5
196
330
15F
100
AcDbEntity
  8
DECKE_2OG
  6
HIDDEN2
 62
     7
 48
25.4
100
AcDbLine
 10
487.1211231153
 20
173.6938224263
 30
0.0
 11
490.3211231153
 21
173.6938224263
 31
0.0
  0
LINE
  5
197
330
15F
100
AcDbEntity
  8
DECKE_2OG
  6
Continuous
 62
     7
 48
25.4
100
AcDbLine
 10
439.1211231153
 20
177.3131016807
 30
0.0
 11
485.3211231153
 21
177.3131016807
 31
0.0
  0
LINE
  5
198
330
15F
100
AcDbEntity
  8
DECKE_2OG
  6
HIDDEN2
 62
     7
 48
25.4
100
AcDbLine
 10
485.3211231153
 20
177.3131016807
 30
0.0
 11
487.1211231153
 21
177.3131016807
 31
0.0
  0
LINE
  5
199
330
15F
100
AcDbEntity
  8
DECKE_2OG
  6
HIDDEN2
 62
     7
 48
25.4
100
AcDbLine
 10
439.1211231153
 20
177.3131016807
 30
0.0
 11
439.1211231153
 21
173.6938224263
 31
0.0
  0
LINE
  5
19A
330
15F
100
AcDbEntity
  8
DECKE_2OG
  6
HIDDEN2
 62
     7
 48
25.4
100
AcDbLine
 10
487.1211231153
 20
173.6938224263
 30
0.0
 11
487.1211231153
 21
177.3131016807
 31
0.0
  0
LINE
  5
19B
330
15F
100
AcDbEntity
  8
DECKE_2OG
  6
Continuous
 62
     7
 48
25.4
100
AcDbLine
 10
490.3011231153
 20
289.8579090991
 30
0.0
 11
490.3211231153
 21
289.8579090991
 31
0.0
  0
LINE
  5
19C
330
15F
100
AcDbEntity
  8
DECKE_2OG
  6
Continuous
 62
     7
 48
25.4
100
AcDbLine
 10
490.3011231153
 20
284.9225282976
 30
0.0
 11
490.3011231153
 21
312.1656490808
 31
0.0
  0
LINE
  5
19D
330
15F
100
AcDbEntity
  8
DECKE_2OG
  6
Continuous
 62
     7
 48
25.4
100
AcDbLine
 10
490.3011231153
 20
164.499236742
 30
0.0
 11
490.3211231153
 21
164.499236742
 31
0.0
  0
LINE
  5
19E
330
15F
100
AcDbEntity
  8
DECKE_2OG
  6
Continuous
 62
     7
 48
25.4
100
AcDbLine
 10
490.3011231153
 20
169.4346175435
 30
0.0
 11
490.3011231153
 21
145.5656490808
 31
0.0
  0
LINE
  5
1A0
330
15F
100
AcDbEntity
  8
GRUNDRISS_3OG
  6
Continuous
 62
     7
 48
25.4
100
AcDbLine
 10
393.9211231153
 20
218.4412750262
 30
0.0
 11
393.9211231153
 21
237.8900231354
 31
0.0
  0
LINE
  5
1A1
330
15F
100
AcDbEntity
  8
GRUNDRISS_3OG
  6
Continuous
 62
     7
 48
25.4
100
AcDbLine
 10
391.5211231153
 20
184.5410294212
 30
0.0
 11
391.5211231153
 21
218.4412750262
 31
0.0
  0
LINE
  5
1A2
330
15F
100
AcDbEntity
  8
GRUNDRISS_3OG
  6
Continuous
 62
     7
 48
25.4
100
AcDbLine
 10
391.5211231153
 20
218.4412750262
 30
0.0
 11
393.9211231153
 21
218.4412750262
 31
0.0
  0
LINE
  5
1A3
330
15F
100
AcDbEntity
  8
GRUNDRISS_3OG
  6
Continuous
 62
     7
 48
25.4
100
AcDbLine
 10
393.9211231153
 20
184.5410294212
 30
0.0
 11
393.9211231153
 21
218.4412750262
 31
0.0
  0
LINE
  5
1A4
330
15F
100
AcDbEntity
  8
GRUNDRISS_3OG
  6
Continuous
 62
     7
 48
25.4
100
AcDbLine
 10
391.5211231153
 20
237.8900231354
 30
0.0
 11
391.5211231153
 21
218.4412750262
 31
0.0
  0
LINE
  5
1A5
330
15F
100
AcDbEntity
  8
GRUNDRISS_3OG
  6
Continuous
 62
     7
 48
25.4
100
AcDbLine
 10
391.5211231153
 20
270.3451418057
 30
0.0
 11
391.5211231153
 21
237.8900231354
 31
0.0
  0
LINE
  5
1A6
330
15F
100
AcDbEntity
  8
GRUNDRISS_3OG
  6
Continuous
 62
     7
 48
25.4
100
AcDbLine
 10
393.9211231153
 20
270.3451418057
 30
0.0
 11
393.9211231153
 21
237.8900231354
 31
0.0
  0
LINE
  5
1A7
330
15F
100
AcDbEntity
  8
GRUNDRISS_3OG
  6
Continuous
 62
     7
 48
25.4
100
AcDbLine
 10
391.5211231153
 20
237.8900231354
 30
0.0
 11
393.9211231153
 21
237.8900231354
 31
0.0
  0
LINE
  5
1A8
330
15F
100
AcDbEntity
  8
GRUNDRISS_3OG
  6
Continuous
 62
     7
 48
25.4
100
AcDbLine
 10
481.5411231153
 20
218.1656490808
 30
0.0
 11
490.3211231153
 21
218.1656490808
 31
0.0
  0
LINE
  5
1A9
330
15F
100
AcDbEntity
  8
GRUNDRISS_3OG
  6
Continuous
 62
     7
 48
25.4
100
AcDbLine
 10
481.5411231153
 20
238.1656490808
 30
0.0
 11
490.3211231153
 21
238.1656490808
 31
0.0
  0
LINE
  5
1AA
330
15F
100
AcDbEntity
  8
GRUNDRISS_3OG
  6
Continuous
 62
     7
 48
25.4
100
AcDbLine
 10
481.5211231153
 20
238.1656490808
 30
0.0
 11
481.5411231153
 21
238.1656490808
 31
0.0
  0
LINE
  5
1AB
330
15F
100
AcDbEntity
  8
GRUNDRISS_3OG
  6
HIDDEN2
 62
     7
 48
25.4
100
AcDbLine
 10
481.5211231153
 20
230.1656490808
 30
0.0
 11
485.3211231153
 21
230.1656490808
 31
0.0
  0
LINE
  5
1AC
330
15F
100
AcDbEntity
  8
GRUNDRISS_3OG
  6
HIDDEN2
 62
     7
 48
25.4
100
AcDbLine
 10
481.5211231153
 20
220.3656490808
 30
0.0
 11
485.3211231153
 21
220.3656490808
 31
0.0
  0
LINE
  5
1AD
330
15F
100
AcDbEntity
  8
GRUNDRISS_3OG
  6
Continuous
 62
     7
 48
25.4
100
AcDbLine
 10
490.3211231153
 20
218.1656490808
 30
0.0
 11
490.3211231153
 21
238.1656490808
 31
0.0
  0
LINE
  5
1AE
330
15F
100
AcDbEntity
  8
GRUNDRISS_3OG
  6
HIDDEN2
 62
     7
 48
25.4
100
AcDbLine
 10
485.3211231153
 20
220.3656490808
 30
0.0
 11
485.3211231153
 21
218.6843135945
 31
0.0
  0
LINE
  5
1AF
330
15F
100
AcDbEntity
  8
GRUNDRISS_3OG
  6
HIDDEN2
 62
     7
 48
25.4
100
AcDbLine
 10
485.3211231153
 20
218.6843135945
 30
0.0
 11
490.3211231153
 21
218.6843135942
 31
0.0
  0
LINE
  5
1B0
330
15F
100
AcDbEntity
  8
GRUNDRISS_3OG
  6
HIDDEN2
 62
     7
 48
25.4
100
AcDbLine
 10
485.3211231153
 20
237.405910726
 30
0.0
 11
485.3211231153
 21
230.1656490808
 31
0.0
  0
LINE
  5
1B1
330
15F
100
AcDbEntity
  8
GRUNDRISS_3OG
  6
Continuous
 62
     7
 48
25.4
100
AcDbLine
 10
483.9211231153
 20
227.7656490808
 30
0.0
 11
488.9211231153
 21
227.7656490808
 31
0.0
  0
LINE
  5
1B2
330
15F
100
AcDbEntity
  8
GRUNDRISS_3OG
  6
Continuous
 62
     7
 48
25.4
100
AcDbLine
 10
488.9211231153
 20
227.7656490808
 30
0.0
 11
488.9211231153
 21
222.7656490808
 31
0.0
  0
LINE
  5
1B3
330
15F
100
AcDbEntity
  8
GRUNDRISS_3OG
  6
Continuous
 62
     7
 48
25.4
100
AcDbLine
 10
488.9211231153
 20
222.7656490808
 30
0.0
 11
483.9211231153
 21
222.7656490808
 31
0.0
  0
LINE
  5
1B4
330
15F
100
AcDbEntity
  8
GRUNDRISS_3OG
  6
Continuous
 62
     7
 48
25.4
100
AcDbLine
 10
483.9211231153
 20
222.7656490808
 30
0.0
 11
483.9211231153
 21
227.7656490808
 31
0.0
  0
LINE
  5
1B5
330
15F
100
AcDbEntity
  8
GRUNDRISS_3OG
  6
Continuous
 62
     7
 48
25.4
100
AcDbLine
 10
391.5211231153
 20
212.9656490808
 30
0.0
 11
381.7211231153
 21
212.9656490808
 31
0.0
  0
LINE
  5
1B6
330
15F
100
AcDbEntity
  8
GRUNDRISS_3OG
  6
Continuous
 62
     7
 48
25.4
100
AcDbLine
 10
381.7211231153
 20
212.9656490808
 30
0.0
 11
381.7211231153
 21
213.1602493595
 31
0.0
  0
LINE
  5
1B7
330
15F
100
AcDbEntity
  8
GRUNDRISS_3OG
  6
Continuous
 62
     7
 48
25.4
100
AcDbLine
 10
384.1211231153
 20
220.3656490808
 30
0.0
 11
389.1211231153
 21
220.3656490808
 31
0.0
  0
LINE
  5
1B8
330
15F
100
AcDbEntity
  8
GRUNDRISS_3OG
  6
HIDDEN2
 62
     7
 48
25.4
100
AcDbLine
 10
389.1211231153
 20
215.3656490808
 30
0.0
 11
384.1211231153
 21
215.3656490808
 31
0.0
  0
LINE
  5
1B9
330
15F
100
AcDbEntity
  8
GRUNDRISS_3OG
  6
HIDDEN2
 62
     7
 48
25.4
100
AcDbLine
 10
388.9211231153
 20
250.9656490808
 30
0.0
 11
388.9211231153
 21
260.7656490808
 31
0.0
  0
LINE
  5
1BA
330
15F
100
AcDbEntity
  8
GRUNDRISS_3OG
  6
Continuous
 62
     7
 48
25.4
100
AcDbLine
 10
388.9211231153
 20
260.7656490808
 30
0.0
 11
379.1211231153
 21
260.7656490808
 31
0.0
  0
LINE
  5
1BB
330
15F
100
AcDbEntity
  8
GRUNDRISS_3OG
  6
Continuous
 62
     7
 48
25.4
100
AcDbLine
 10
379.1211231153
 20
260.7656490808
 30
0.0
 11
379.1211231153
 21
250.9656490808
 31
0.0
  0
LINE
  5
1BC
330
15F
100
AcDbEntity
  8
GRUNDRISS_3OG
  6
HIDDEN2
 62
     7
 48
25.4
100
AcDbLine
 10
379.1211231153
 20
250.9656490808
 30
0.0
 11
388.9211231153
 21
250.9656490808
 31
0.0
  0
LINE
  5
1BD
330
15F
100
AcDbEntity
  8
GRUNDRISS_3OG
  6
HIDDEN2
 62
     7
 48
25.4
100
AcDbLine
 10
386.5211231153
 20
258.3656490808
 30
0.0
 11
386.5211231153
 21
257.7656490808
 31
0.0
  0
LINE
  5
1BE
330
15F
100
AcDbEntity
  8
GRUNDRISS_3OG
  6
Continuous
 62
     7
 48
25.4
100
AcDbLine
 10
386.5211231153
 20
253.3656490808
 30
0.0
 11
381.6062385078
 21
253.3656490808
 31
0.0
  0
LINE
  5
1BF
330
15F
100
AcDbEntity
  8
GRUNDRISS_3OG
  6
HIDDEN2
 62
     7
 48
25.4
100
AcDbLine
 10
381.6062385078
 20
253.3656490808
 30
0.0
 11
381.5211231153
 21
253.3656490808
 31
0.0
  0
LINE
  5
1C0
330
15F
100
AcDbEntity
  8
GRUNDRISS_3OG
  6
HIDDEN2
 62
     7
 48
25.4
100
AcDbLine
 10
381.5211231153
 20
253.3656490808
 30
0.0
 11
381.5211231153
 21
257.7656490808
 31
0.0
  0
LINE
  5
1C1
330
15F
100
AcDbEntity
  8
GRUNDRISS_3OG
  6
HIDDEN2
 62
     7
 48
25.4
100
AcDbLine
 10
381.5211231153
 20
258.3656490808
 30
0.0
 11
386.5211231153
 21
258.3656490808
 31
0.0
  0
LINE
  5
1C2
330
15F
100
AcDbEntity
  8
GRUNDRISS_3OG
  6
Continuous
 62
     7
 48
25.4
100
AcDbLine
 10
379.1211231153
 20
260.7656490808
 30
0.0
 11
379.2062385078
 21
260.0257999
 31
0.0
  0
LINE
  5
1C3
330
15F
100
AcDbEntity
  8
GRUNDRISS_3OG
  6
Continuous
 62
     7
 48
25.4
100
AcDbLine
 10
379.1211231153
 20
250.9656490808
 30
0.0
 11
379.2062385078
 21
250.2257999
 31
0.0
  0
LINE
  5
1C4
330
15F
100
AcDbEntity
  8
GRUNDRISS_3OG
  6
HIDDEN2
 62
     7
 48
25.4
100
AcDbLine
 10
388.9211231153
 20
250.9656490808
 30
0.0
 11
389.0062385078
 21
250.2257999
 31
0.0
  0
LINE
  5
1C5
330
15F
100
AcDbEntity
  8
GRUNDRISS_3OG
  6
Continuous
 62
     7
 48
25.4
100
AcDbLine
 10
388.9211231153
 20
260.7656490808
 30
0.0
 11
389.0062385078
 21
260.0257999
 31
0.0
  0
LINE
  5
1C6
330
15F
100
AcDbEntity
  8
GRUNDRISS_3OG
  6
Continuous
 62
     7
 48
25.4
100
AcDbLine
 10
481.5411231153
 20
238.1656490808
 30
0.0
 11
481.5411231153
 21
218.1656490808
 31
0.0
  0
LINE
  5
1C7
330
15F
100
AcDbEntity
  8
GRUNDRISS_3OG
  6
Continuous
 62
     7
 48
25.4
100
AcDbLine
 10
481.5211231153
 20
218.2923418593
 30
0.0
 11
481.5211231153
 21
238.1656490808
 31
0.0
  0
LINE
  5
1C8
330
15F
100
AcDbEntity
  8
GRUNDRISS_3OG
  6
Continuous
 62
     7
 48
25.4
100
AcDbLine
 10
481.5211231153
 20
218.2923418593
 30
0.0
 11
481.5411231153
 21
218.2923418593
 31
0.0
  0
LINE
  5
1C9
330
15F
100
AcDbEntity
  8
GRUNDRISS_3OG
  6
HIDDEN2
 62
     7
 48
25.4
100
AcDbLine
 10
381.5211231153
 20
257.7656490808
 30
0.0
 11
381.5211231153
 21
258.3656490808
 31
0.0
  0
LINE
  5
1CA
330
15F
100
AcDbEntity
  8
GRUNDRISS_3OG
  6
Continuous
 62
     7
 48
25.4
100
AcDbLine
 10
386.5211231153
 20
253.3656490808
 30
0.0
 11
386.5211231153
 21
252.7656490808
 31
0.0
  0
LINE
  5
1CB
330
15F
100
AcDbEntity
  8
GRUNDRISS_3OG
  6
Continuous
 62
     7
 48
25.4
100
AcDbLine
 10
386.5211231153
 20
252.7656490808
 30
0.0
 11
381.6062385078
 21
252.7656490808
 31
0.0
  0
LINE
  5
1CC
330
15F
100
AcDbEntity
  8
GRUNDRISS_3OG
  6
HIDDEN2
 62
     7
 48
25.4
100
AcDbLine
 10
381.6062385078
 20
252.7656490808
 30
0.0
 11
381.5211231153
 21
252.7656490808
 31
0.0
  0
LINE
  5
1CD
330
15F
100
AcDbEntity
  8
GRUNDRISS_3OG
  6
HIDDEN2
 62
     7
 48
25.4
100
AcDbLine
 10
381.5211231153
 20
252.7656490808
 30
0.0
 11
381.5211231153
 21
253.3656490808
 31
0.0
  0
LINE
  5
1CE
330
15F
100
AcDbEntity
  8
GRUNDRISS_3OG
  6
HIDDEN2
 62
     7
 48
25.4
100
AcDbLine
 10
386.5211231153
 20
257.7656490808
 30
0.0
 11
386.5211231153
 21
257.0257999
 31
0.0
  0
LINE
  5
1CF
330
15F
100
AcDbEntity
  8
GRUNDRISS_3OG
  6
Continuous
 62
     7
 48
25.4
100
AcDbLine
 10
386.5211231153
 20
257.0257999
 30
0.0
 11
386.5211231153
 21
253.3656490808
 31
0.0
  0
LINE
  5
1D0
330
15F
100
AcDbEntity
  8
GRUNDRISS_3OG
  6
HIDDEN2
 62
     7
 48
25.4
100
AcDbLine
 10
381.5211231153
 20
257.7656490808
 30
0.0
 11
386.5211231153
 21
257.7656490808
 31
0.0
  0
LINE
  5
1D1
330
15F
100
AcDbEntity
  8
GRUNDRISS_3OG
  6
HIDDEN2
 62
     7
 48
25.4
100
AcDbLine
 10
386.5211231153
 20
257.7656490808
 30
0.0
 11
386.6062385078
 21
257.0257999
 31
0.0
  0
LINE
  5
1D2
330
15F
100
AcDbEntity
  8
GRUNDRISS_3OG
  6
Continuous
 62
     7
 48
25.4
100
AcDbLine
 10
386.5211231153
 20
252.7656490808
 30
0.0
 11
386.6062385078
 21
252.0257999
 31
0.0
  0
LINE
  5
1D3
330
15F
100
AcDbEntity
  8
GRUNDRISS_3OG
  6
HIDDEN2
 62
     7
 48
25.4
100
AcDbLine
 10
381.5211231153
 20
252.7656490808
 30
0.0
 11
381.6062385078
 21
252.0257999
 31
0.0
  0
LINE
  5
1D4
330
15F
100
AcDbEntity
  8
GRUNDRISS_3OG
  6
HIDDEN2
 62
     7
 48
25.4
100
AcDbLine
 10
381.5211231153
 20
257.7656490808
 30
0.0
 11
381.6062385078
 21
257.0257999
 31
0.0
  0
LINE
  5
1D5
330
15F
100
AcDbEntity
  8
GRUNDRISS_3OG
  6
Continuous
 62
     7
 48
25.4
100
AcDbLine
 10
381.6062385078
 20
257.0257999
 30
0.0
 11
386.6062385078
 21
257.0257999
 31
0.0
  0
LINE
  5
1D6
330
15F
100
AcDbEntity
  8
GRUNDRISS_3OG
  6
HIDDEN2
 62
     7
 48
25.4
100
AcDbLine
 10
384.1211231153
 20
215.5766188571
 30
0.0
 11
384.1211231153
 21
215.3656490808
 31
0.0
  0
LINE
  5
1D7
330
15F
100
AcDbEntity
  8
GRUNDRISS_3OG
  6
HIDDEN2
 62
     7
 48
25.4
100
AcDbLine
 10
389.1211231153
 20
215.5766188571
 30
0.0
 11
389.1211231153
 21
215.3656490808
 31
0.0
  0
LINE
  5
1D8
330
15F
100
AcDbEntity
  8
GRUNDRISS_3OG
  6
Continuous
 62
     7
 48
25.4
100
AcDbLine
 10
389.0062385078
 20
250.2257999
 30
0.0
 11
389.0062385078
 21
260.0257999
 31
0.0
  0
LINE
  5
1D9
330
15F
100
AcDbEntity
  8
GRUNDRISS_3OG
  6
Continuous
 62
     7
 48
25.4
100
AcDbLine
 10
389.0062385078
 20
260.0257999
 30
0.0
 11
379.2062385078
 21
260.0257999
 31
0.0
  0
LINE
  5
1DA
330
15F
100
AcDbEntity
  8
GRUNDRISS_3OG
  6
Continuous
 62
     7
 48
25.4
100
AcDbLine
 10
379.2062385078
 20
260.0257999
 30
0.0
 11
379.2062385078
 21
250.2257999
 31
0.0
  0
LINE
  5
1DB
330
15F
100
AcDbEntity
  8
GRUNDRISS_3OG
  6
Continuous
 62
     7
 48
25.4
100
AcDbLine
 10
379.2062385078
 20
250.2257999
 30
0.0
 11
389.0062385078
 21
250.2257999
 31
0.0
  0
LINE
  5
1DC
330
15F
100
AcDbEntity
  8
GRUNDRISS_3OG
  6
Continuous
 62
     7
 48
25.4
100
AcDbLine
 10
389.1211231153
 20
220.576618857
 30
0.0
 11
384.1211231153
 21
220.5766188571
 31
0.0
  0
LINE
  5
1DD
330
15F
100
AcDbEntity
  8
GRUNDRISS_3OG
  6
Continuous
 62
     7
 48
25.4
100
AcDbLine
 10
384.1211231153
 20
220.5766188571
 30
0.0
 11
384.1211231153
 21
215.5766188571
 31
0.0
  0
LINE
  5
1DE
330
15F
100
AcDbEntity
  8
GRUNDRISS_3OG
  6
Continuous
 62
     7
 48
25.4
100
AcDbLine
 10
384.1211231153
 20
215.5766188571
 30
0.0
 11
389.1211231153
 21
215.5766188571
 31
0.0
  0
LINE
  5
1DF
330
15F
100
AcDbEntity
  8
GRUNDRISS_3OG
  6
Continuous
 62
     7
 48
25.4
100
AcDbLine
 10
389.1211231153
 20
215.5766188571
 30
0.0
 11
389.1211231153
 21
220.576618857
 31
0.0
  0
LINE
  5
1E0
330
15F
100
AcDbEntity
  8
GRUNDRISS_3OG
  6
Continuous
 62
     7
 48
25.4
100
AcDbLine
 10
381.7211231153
 20
213.1602493595
 30
0.0
 11
381.7211231153
 21
222.9602493595
 31
0.0
  0
LINE
  5
1E1
330
15F
100
AcDbEntity
  8
GRUNDRISS_3OG
  6
Continuous
 62
     7
 48
25.4
100
AcDbLine
 10
381.7211231153
 20
222.9602493595
 30
0.0
 11
391.5211231153
 21
222.9602493595
 31
0.0
  0
LINE
  5
1E2
330
15F
100
AcDbEntity
  8
GRUNDRISS_3OG
  6
Continuous
 62
     7
 48
25.4
100
AcDbLine
 10
391.5211231153
 20
213.1602493595
 30
0.0
 11
381.7211231153
 21
213.1602493595
 31
0.0
  0
LINE
  5
1E3
330
15F
100
AcDbEntity
  8
GRUNDRISS_3OG
  6
Continuous
 62
     7
 48
25.4
100
AcDbLine
 10
386.6062385078
 20
257.0257999
 30
0.0
 11
386.6062385078
 21
252.0257999
 31
0.0
  0
LINE
  5
1E4
330
15F
100
AcDbEntity
  8
GRUNDRISS_3OG
  6
Continuous
 62
     7
 48
25.4
100
AcDbLine
 10
386.6062385078
 20
252.0257999
 30
0.0
 11
381.6062385078
 21
252.0257999
 31
0.0
  0
LINE
  5
1E5
330
15F
100
AcDbEntity
  8
GRUNDRISS_3OG
  6
Continuous
 62
     7
 48
25.4
100
AcDbLine
 10
381.6062385078
 20
252.0257999
 30
0.0
 11
381.6062385078
 21
257.0257999
 31
0.0
  0
LINE
  5
1E6
330
15F
100
AcDbEntity
  8
GRUNDRISS_3OG
  6
Continuous
 62
     7
 48
25.4
100
AcDbLine
 10
393.9211231153
 20
270.3451418057
 30
0.0
 11
391.5211231153
 21
270.3451418057
 31
0.0
  0
LINE
  5
1E7
330
15F
100
AcDbEntity
  8
GRUNDRISS_3OG
  6
Continuous
 62
     7
 48
25.4
100
AcDbLine
 10
393.9211231153
 20
184.5410294212
 30
0.0
 11
391.5211231153
 21
184.5410294212
 31
0.0
  0
LINE
  5
1E8
330
15F
100
AcDbEntity
  8
GRUNDRISS_3OG
  6
HIDDEN2
 62
     7
 48
25.4
100
AcDbLine
 10
490.3211231153
 20
218.2808340252
 30
0.0
 11
485.3211231153
 21
218.2808340252
 31
0.0
  0
LINE
  5
1E9
330
15F
100
AcDbEntity
  8
GRUNDRISS_3OG
  6
Continuous
 62
     7
 48
25.4
100
AcDbLine
 10
485.3211231153
 20
174.2054856515
 30
0.0
 11
490.3211231153
 21
174.2054856515
 31
0.0
  0
LINE
  5
1EA
330
15F
100
AcDbEntity
  8
GRUNDRISS_3OG
  6
HIDDEN2
 62
     7
 48
25.4
100
AcDbLine
 10
485.3211231153
 20
218.3159335936
 30
0.0
 11
490.3211231153
 21
218.3159335936
 31
0.0
  0
LINE
  5
1EB
330
15F
100
AcDbEntity
  8
GRUNDRISS_3OG
  6
Continuous
 62
     7
 48
25.4
100
AcDbLine
 10
490.3211231153
 20
218.1355409088
 30
0.0
 11
490.3211231153
 21
174.2054856515
 31
0.0
  0
LINE
  5
1EC
330
15F
100
AcDbEntity
  8
GRUNDRISS_3OG
  6
HIDDEN2
 62
     7
 48
25.4
100
AcDbLine
 10
485.3211231153
 20
218.3646425976
 30
0.0
 11
485.3211231153
 21
218.6843135943
 31
0.0
  0
LINE
  5
1ED
330
15F
100
AcDbEntity
  8
GRUNDRISS_3OG
  6
Continuous
 62
     7
 48
25.4
100
AcDbLine
 10
485.3211231153
 20
174.2054856515
 30
0.0
 11
485.3211231153
 21
218.1656490808
 31
0.0
  0
LINE
  5
1EE
330
15F
100
AcDbEntity
  8
GRUNDRISS_3OG
  6
HIDDEN2
 62
     7
 48
25.4
100
AcDbLine
 10
485.3211231153
 20
218.1656490808
 30
0.0
 11
485.3211231153
 21
218.2808340256
 31
0.0
  0
LINE
  5
1EF
330
15F
100
AcDbEntity
  8
GRUNDRISS_3OG
  6
HIDDEN2
 62
     7
 48
25.4
100
AcDbLine
 10
485.3211231153
 20
218.3132984416
 30
0.0
 11
485.3211231153
 21
218.315875173
 31
0.0
  0
LINE
  5
1F0
330
15F
100
AcDbEntity
  8
GRUNDRISS_3OG
  6
HIDDEN2
 62
     7
 48
25.4
100
AcDbLine
 10
485.3211231153
 20
218.3132984416
 30
0.0
 11
485.3211231153
 21
218.2808340256
 31
0.0
  0
LINE
  5
1F1
330
15F
100
AcDbEntity
  8
GRUNDRISS_3OG
  6
Continuous
 62
     7
 48
25.4
100
AcDbLine
 10
485.3211231153
 20
282.1258125101
 30
0.0
 11
490.3211231153
 21
282.1258125101
 31
0.0
  0
LINE
  5
1F2
330
15F
100
AcDbEntity
  8
GRUNDRISS_3OG
  6
Continuous
 62
     7
 48
25.4
100
AcDbLine
 10
490.3211231153
 20
282.1258125101
 30
0.0
 11
490.3211231153
 21
238.1656490808
 31
0.0
  0
LINE
  5
1F3
330
15F
100
AcDbEntity
  8
GRUNDRISS_3OG
  6
Continuous
 62
     7
 48
25.4
100
AcDbLine
 10
485.3211231153
 20
238.1656490808
 30
0.0
 11
485.3211231153
 21
282.1258125101
 31
0.0
  0
LINE
  5
1F4
330
15F
100
AcDbEntity
  8
GRUNDRISS_3OG
  6
HIDDEN2
 62
     7
 48
25.4
100
AcDbLine
 10
485.3211231153
 20
237.405910726
 30
0.0
 11
485.3211231153
 21
238.1656490808
 31
0.0
  0
LINE
  5
1F5
330
15F
100
AcDbEntity
  8
STUFE1
  6
HIDDEN2
 62
     7
 48
25.4
100
AcDbLine
 10
472.3211231153
 20
175.4676490808
 30
0.0
 11
486.1211231153
 21
175.4676490808
 31
0.0
  0
LINE
  5
1F6
330
15F
100
AcDbEntity
  8
STUFE1
  6
HIDDEN2
 62
     7
 48
25.4
100
AcDbLine
 10
486.1211231153
 20
180.4476490808
 30
0.0
 11
472.3211231153
 21
180.4476490808
 31
0.0
  0
LINE
  5
1F7
330
15F
100
AcDbEntity
  8
STUFE1
  6
Continuous
 62
     7
 48
25.4
100
AcDbLine
 10
472.3211231153
 20
179.6476490808
 30
0.0
 11
485.3211231153
 21
179.6476490808
 31
0.0
  0
LINE
  5
1F8
330
15F
100
AcDbEntity
  8
STUFE1
  6
HIDDEN2
 62
     7
 48
25.4
100
AcDbLine
 10
485.3211231153
 20
179.6476490808
 30
0.0
 11
486.1211231153
 21
179.6476490808
 31
0.0
  0
LINE
  5
1F9
330
15F
100
AcDbEntity
  8
STUFE1
  6
HIDDEN2
 62
     7
 48
25.4
100
AcDbLine
 10
486.1211231153
 20
184.6276490808
 30
0.0
 11
472.3211231153
 21
184.6276490808
 31
0.0
  0
LINE
  5
1FA
330
15F
100
AcDbEntity
  8
STUFE1
  6
Continuous
 62
     7
 48
25.4
100
AcDbLine
 10
472.3211231153
 20
183.8276490808
 30
0.0
 11
485.3211231153
 21
183.8276490808
 31
0.0
  0
LINE
  5
1FB
330
15F
100
AcDbEntity
  8
STUFE1
  6
HIDDEN2
 62
     7
 48
25.4
100
AcDbLine
 10
485.3211231153
 20
183.8276490808
 30
0.0
 11
486.1211231153
 21
183.8276490808
 31
0.0
  0
LINE
  5
1FC
330
15F
100
AcDbEntity
  8
STUFE1
  6
HIDDEN2
 62
     7
 48
25.4
100
AcDbLine
 10
486.1211231153
 20
188.8076490808
 30
0.0
 11
472.3211231153
 21
188.8076490808
 31
0.0
  0
LINE
  5
1FD
330
15F
100
AcDbEntity
  8
STUFE1
  6
Continuous
 62
     7
 48
25.4
100
AcDbLine
 10
472.3211231153
 20
188.0076490808
 30
0.0
 11
485.3211231153
 21
188.0076490808
 31
0.0
  0
LINE
  5
1FE
330
15F
100
AcDbEntity
  8
STUFE1
  6
HIDDEN2
 62
     7
 48
25.4
100
AcDbLine
 10
485.3211231153
 20
188.0076490808
 30
0.0
 11
486.1211231153
 21
188.0076490808
 31
0.0
  0
LINE
  5
1FF
330
15F
100
AcDbEntity
  8
STUFE1
  6
HIDDEN2
 62
     7
 48
25.4
100
AcDbLine
 10
486.1211231153
 20
192.9876490808
 30
0.0
 11
472.3211231153
 21
192.9876490808
 31
0.0
  0
LINE
  5
200
330
15F
100
AcDbEntity
  8
STUFE1
  6
Continuous
 62
     7
 48
25.4
100
AcDbLine
 10
472.3211231153
 20
192.1876490808
 30
0.0
 11
485.3211231153
 21
192.1876490808
 31
0.0
  0
LINE
  5
201
330
15F
100
AcDbEntity
  8
STUFE1
  6
HIDDEN2
 62
     7
 48
25.4
100
AcDbLine
 10
485.3211231153
 20
192.1876490808
 30
0.0
 11
486.1211231153
 21
192.1876490808
 31
0.0
  0
LINE
  5
202
330
15F
100
AcDbEntity
  8
STUFE1
  6
HIDDEN2
 62
     7
 48
25.4
100
AcDbLine
 10
486.1211231153
 20
197.1676490808
 30
0.0
 11
472.3211231153
 21
197.1676490808
 31
0.0
  0
LINE
  5
203
330
15F
100
AcDbEntity
  8
STUFE2
  6
Continuous
 62
     7
 48
25.4
100
AcDbLine
 10
472.3211231153
 20
196.3676490808
 30
0.0
 11
485.3211231153
 21
196.3676490808
 31
0.0
  0
LINE
  5
204
330
15F
100
AcDbEntity
  8
STUFE2
  6
HIDDEN2
 62
     7
 48
25.4
100
AcDbLine
 10
485.3211231153
 20
196.3676490808
 30
0.0
 11
486.1211231153
 21
196.3676490808
 31
0.0
  0
LINE
  5
205
330
15F
100
AcDbEntity
  8
STUFE2
  6
HIDDEN2
 62
     7
 48
25.4
100
AcDbLine
 10
486.1211231153
 20
202.9434738935
 30
0.0
 11
472.3211231153
 21
199.7929899307
 31
0.0
  0
LINE
  5
206
330
15F
100
AcDbEntity
  8
STUFE4
  6
HIDDEN2
 62
     7
 48
25.4
100
AcDbLine
 10
486.1211231153
 20
215.9164672363
 30
0.0
 11
471.9997226884
 21
204.6515697037
 31
0.0
  0
LINE
  5
207
330
15F
100
AcDbEntity
  8
STUFE4
  6
Continuous
 62
     7
 48
25.4
100
AcDbLine
 10
472.3211231153
 20
201.4245192496
 30
0.0
 11
485.3211231153
 21
207.6865865848
 31
0.0
  0
LINE
  5
208
330
15F
100
AcDbEntity
  8
STUFE4
  6
HIDDEN2
 62
     7
 48
25.4
100
AcDbLine
 10
485.3211231153
 20
207.6865865848
 30
0.0
 11
486.1211231153
 21
208.0719445746
 31
0.0
  0
LINE
  5
209
330
15F
100
AcDbEntity
  8
STUFE3
  6
Continuous
 62
     7
 48
25.4
100
AcDbLine
 10
472.3211231153
 20
198.9929899307
 30
0.0
 11
485.3211231153
 21
201.9608371421
 31
0.0
  0
LINE
  5
20A
330
15F
100
AcDbEntity
  8
STUFE3
  6
HIDDEN2
 62
     7
 48
25.4
100
AcDbLine
 10
485.3211231153
 20
201.9608371421
 30
0.0
 11
486.1211231153
 21
202.1434738935
 31
0.0
  0
LINE
  5
20B
330
15F
100
AcDbEntity
  8
STUFE3
  6
HIDDEN2
 62
     7
 48
25.4
100
AcDbLine
 10
486.1211231153
 20
208.9599202389
 30
0.0
 11
472.3211231153
 21
202.3124949138
 31
0.0
  0
LINE
  5
20C
330
15F
100
AcDbEntity
  8
STUFE5
  6
Continuous
 62
     7
 48
25.4
100
AcDbLine
 10
472.2981810282
 20
203.8662948343
 30
0.0
 11
485.3211231153
 21
214.2549322039
 31
0.0
  0
LINE
  5
20D
330
15F
100
AcDbEntity
  8
STUFE5
  6
HIDDEN2
 62
     7
 48
25.4
100
AcDbLine
 10
485.3211231153
 20
214.2549322039
 30
0.0
 11
486.1211231153
 21
214.89310673
 31
0.0
  0
LINE
  5
20E
330
15F
100
AcDbEntity
  8
STUFE5
  6
HIDDEN2
 62
     7
 48
25.4
100
AcDbLine
 10
486.1211231153
 20
219.3642319121
 30
0.0
 11
481.6515103211
 21
219.3642319121
 31
0.0
  0
LINE
  5
20F
330
15F
100
AcDbEntity
  8
STUFE5
  6
HIDDEN2
 62
     7
 48
25.4
100
AcDbLine
 10
480.6281498148
 20
219.3642319121
 30
0.0
 11
469.6196392385
 21
205.5642319121
 31
0.0
  0
ARC
  5
210
330
15F
100
AcDbEntity
  8
KRUEMMLING
  6
Continuous
 62
     7
 48
25.4
100
AcDbCircle
 10
470.3211231153
 20
203.5642319121
 30
0.0
 40
1.999999999999997
100
AcDbArc
 50
0.0
 51
90.0
  0
LINE
  5
211
330
15F
100
AcDbEntity
  8
KRUEMMLING
  6
Continuous
 62
     7
 48
25.4
100
AcDbLine
 10
472.3211231153
 20
203.5642319121
 30
0.0
 11
471.5211231153
 21
203.5642319121
 31
0.0
  0
ARC
  5
212
330
15F
100
AcDbEntity
  8
KRUEMMLING
  6
Continuous
 62
     7
 48
25.4
100
AcDbCircle
 10
470.3211231153
 20
203.5642319121
 30
0.0
 40
1.200000000000003
100
AcDbArc
 50
0.0
 51
90.0
  0
LINE
  5
213
330
15F
100
AcDbEntity
  8
KRUEMMLING
  6
Continuous
 62
     7
 48
25.4
100
AcDbLine
 10
470.3211231153
 20
204.7642319121
 30
0.0
 11
470.3211231153
 21
205.5642319121
 31
0.0
  0
LINE
  5
214
330
15F
100
AcDbEntity
  8
STUFE6
  6
Continuous
 62
     7
 48
25.4
100
AcDbLine
 10
470.6245337883
 20
205.54108344
 30
0.0
 11
481.5211231153
 21
219.2007816953
 31
0.0
  0
LINE
  5
215
330
15F
100
AcDbEntity
  8
STUFE6
  6
HIDDEN2
 62
     7
 48
25.4
100
AcDbLine
 10
481.5211231153
 20
219.2007816953
 30
0.0
 11
481.6515103211
 21
219.3642319121
 31
0.0
  0
LINE
  5
216
330
15F
100
AcDbEntity
  8
STUFE6
  6
HIDDEN2
 62
     7
 48
25.4
100
AcDbLine
 10
481.6515103211
 20
219.3642319121
 30
0.0
 11
481.5211231153
 21
219.3642319121
 31
0.0
  0
LINE
  5
217
330
15F
100
AcDbEntity
  8
STUFE6
  6
Continuous
 62
     7
 48
25.4
100
AcDbLine
 10
481.5211231153
 20
219.3642319121
 30
0.0
 11
474.6848357778
 21
219.3642319121
 31
0.0
  0
LINE
  5
218
330
15F
100
AcDbEntity
  8
STUFE6
  6
HIDDEN2
 62
     7
 48
25.4
100
AcDbLine
 10
473.7968601135
 20
219.3642319121
 30
0.0
 11
467.1494347885
 21
205.5642319121
 31
0.0
  0
LINE
  5
219
330
15F
100
AcDbEntity
  8
STUFE7
  6
Continuous
 62
     7
 48
25.4
100
AcDbLine
 10
474.6848357778
 20
219.3642319121
 30
0.0
 11
468.7563650967
 21
219.3642319121
 31
0.0
  0
LINE
  5
21A
330
15F
100
AcDbEntity
  8
STUFE7
  6
HIDDEN2
 62
     7
 48
25.4
100
AcDbLine
 10
467.9357822654
 20
219.3642319121
 30
0.0
 11
464.7852983026
 21
205.5642319121
 31
0.0
  0
LINE
  5
21B
330
15F
100
AcDbEntity
  8
STUFE7
  6
Continuous
 62
     7
 48
25.4
100
AcDbLine
 10
468.0374104528
 20
205.5642319121
 30
0.0
 11
474.6848357778
 21
219.3642319121
 31
0.0
  0
LINE
  5
21C
330
15F
100
AcDbEntity
  8
STUFE1
  6
Continuous
 62
     7
 48
25.4
100
AcDbLine
 10
463.0011231153
 20
205.5642319121
 30
0.0
 11
463.0011231153
 21
219.3642319121
 31
0.0
  0
LINE
  5
21D
330
15F
100
AcDbEntity
  8
STUFE1
  6
Continuous
 62
     7
 48
25.4
100
AcDbLine
 10
463.0011231153
 20
219.3642319121
 30
0.0
 11
458.8211231153
 21
219.3642319121
 31
0.0
  0
LINE
  5
21E
330
15F
100
AcDbEntity
  8
STUFE1
  6
HIDDEN2
 62
     7
 48
25.4
100
AcDbLine
 10
458.0211231153
 20
219.3642319121
 30
0.0
 11
458.0211231153
 21
205.5642319121
 31
0.0
  0
LINE
  5
21F
330
15F
100
AcDbEntity
  8
STUFE8
  6
Continuous
 62
     7
 48
25.4
100
AcDbLine
 10
465.6058811338
 20
205.5642319121
 30
0.0
 11
468.7563650967
 21
219.3642319121
 31
0.0
  0
LINE
  5
220
330
15F
100
AcDbEntity
  8
STUFE8
  6
Continuous
 62
     7
 48
25.4
100
AcDbLine
 10
468.7563650967
 20
219.3642319121
 30
0.0
 11
463.0011231153
 21
219.3642319121
 31
0.0
  0
LINE
  5
221
330
15F
100
AcDbEntity
  8
STUFE8
  6
HIDDEN2
 62
     7
 48
25.4
100
AcDbLine
 10
462.2011231153
 20
219.3642319121
 30
0.0
 11
462.2011231153
 21
205.5642319121
 31
0.0
  0
LINE
  5
222
330
15F
100
AcDbEntity
  8
WANGE_OR
  6
HIDDEN2
 62
     7
 48
25.4
100
AcDbLine
 10
486.9211231153
 20
220.1656490808
 30
0.0
 11
486.1211231153
 21
220.1656490808
 31
0.0
  0
LINE
  5
223
330
15F
100
AcDbEntity
  8
WANGE_OR
  6
HIDDEN2
 62
     7
 48
25.4
100
AcDbLine
 10
486.1211231153
 20
220.1656490808
 30
0.0
 11
481.5211231153
 21
220.1656490808
 31
0.0
  0
LINE
  5
224
330
15F
100
AcDbEntity
  8
WANGE_OR
  6
Continuous
 62
     7
 48
25.4
100
AcDbLine
 10
481.5211231153
 20
220.1656490808
 30
0.0
 11
459.2990043196
 21
220.1656490808
 31
0.0
  0
LINE
  5
225
330
15F
100
AcDbEntity
  8
WANGE_OR
  6
Continuous
 62
     7
 48
25.4
100
AcDbLine
 10
459.2990043196
 20
220.1656490808
 30
0.0
 11
438.8211231153
 21
220.1656490808
 31
0.0
  0
LINE
  5
226
330
15F
100
AcDbEntity
  8
WANGE_OR
  6
HIDDEN2
 62
     7
 48
25.4
100
AcDbLine
 10
486.1211231153
 20
219.3656490808
 30
0.0
 11
481.5211231153
 21
219.3656490808
 31
0.0
  0
LINE
  5
227
330
15F
100
AcDbEntity
  8
WANGE_OR
  6
Continuous
 62
     7
 48
25.4
100
AcDbLine
 10
481.5211231153
 20
219.3656490808
 30
0.0
 11
459.2990043196
 21
219.3656490808
 31
0.0
  0
LINE
  5
228
330
15F
100
AcDbEntity
  8
WANGE_OR
  6
HIDDEN2
 62
     7
 48
25.4
100
AcDbLine
 10
486.9211231153
 20
219.3656490808
 30
0.0
 11
486.1211231153
 21
219.3656490808
 31
0.0
  0
LINE
  5
229
330
15F
100
AcDbEntity
  8
WANGE_OR
  6
Continuous
 62
     7
 48
25.4
100
AcDbLine
 10
459.2990043196
 20
219.3656490808
 30
0.0
 11
438.8211231153
 21
219.3656490808
 31
0.0
  0
LINE
  5
22A
330
15F
100
AcDbEntity
  8
WANGE_OR
  6
Continuous
 62
     7
 48
25.4
100
AcDbLine
 10
459.2990043196
 20
220.1656490808
 30
0.0
 11
459.2990043196
 21
219.3656490808
 31
0.0
  0
LINE
  5
22B
330
15F
100
AcDbEntity
  8
WANGE_OR
  6
HIDDEN2
 62
     7
 48
25.4
100
AcDbLine
 10
486.1211231153
 20
220.1656490808
 30
0.0
 11
486.1211231153
 21
219.3656490808
 31
0.0
  0
LINE
  5
22C
330
15F
100
AcDbEntity
  8
WANGE_OR
  6
HIDDEN2
 62
     7
 48
25.4
100
AcDbLine
 10
486.9211231153
 20
220.1656490808
 30
0.0
 11
486.9211231153
 21
219.3656490808
 31
0.0
  0
LINE
  5
22D
330
15F
100
AcDbEntity
  8
WANGE_OR
  6
HIDDEN2
 62
     7
 48
25.4
100
AcDbLine
 10
456.4211231153
 20
220.1656490808
 30
0.0
 11
456.4211231153
 21
219.3656490808
 31
0.0
  0
LINE
  5
22E
330
15F
100
AcDbEntity
  8
WANGE_OR
  6
Continuous
 62
     7
 48
25.4
100
AcDbLine
 10
438.8211231153
 20
220.1656490808
 30
0.0
 11
438.8211231153
 21
219.3656490808
 31
0.0
  0
LINE
  5
22F
330
15F
100
AcDbEntity
  8
STUFE9
  6
Continuous
 62
     7
 48
25.4
100
AcDbLine
 10
458.8211231153
 20
219.3642319121
 30
0.0
 11
458.8211231153
 21
205.5642319121
 31
0.0
  0
LINE
  5
230
330
15F
100
AcDbEntity
  8
STUFE9
  6
Continuous
 62
     7
 48
25.4
100
AcDbLine
 10
438.8211231153
 20
205.5642319121
 30
0.0
 11
438.8211231153
 21
219.3642319121
 31
0.0
  0
LINE
  5
231
330
15F
100
AcDbEntity
  8
STUFE9
  6
Continuous
 62
     7
 48
25.4
100
AcDbLine
 10
438.8211231153
 20
219.3642319121
 30
0.0
 11
458.8211231153
 21
219.3642319121
 31
0.0
  0
LINE
  5
232
330
15F
100
AcDbEntity
  8
WANGE_UR
  6
HIDDEN2
 62
     7
 48
25.4
100
AcDbLine
 10
486.9211231153
 20
175.0676490808
 30
0.0
 11
486.9211231153
 21
196.3676490808
 31
0.0
  0
LINE
  5
233
330
15F
100
AcDbEntity
  8
WANGE_UR
  6
HIDDEN2
 62
     7
 48
25.4
100
AcDbLine
 10
486.9211231153
 20
196.3676490808
 30
0.0
 11
486.9211231153
 21
219.3642319121
 31
0.0
  0
LINE
  5
234
330
15F
100
AcDbEntity
  8
WANGE_UR
  6
HIDDEN2
 62
     7
 48
25.4
100
AcDbLine
 10
486.1211231153
 20
196.3676490808
 30
0.0
 11
486.1211231153
 21
219.3642319121
 31
0.0
  0
LINE
  5
235
330
15F
100
AcDbEntity
  8
WANGE_UR
  6
HIDDEN2
 62
     7
 48
25.4
100
AcDbLine
 10
486.1211231153
 20
175.0676490808
 30
0.0
 11
486.1211231153
 21
196.3676490808
 31
0.0
  0
LINE
  5
236
330
15F
100
AcDbEntity
  8
WANGE_UR
  6
HIDDEN2
 62
     7
 48
25.4
100
AcDbLine
 10
486.9211231153
 20
219.3642319121
 30
0.0
 11
486.1211231153
 21
219.3642319121
 31
0.0
  0
LINE
  5
237
330
15F
100
AcDbEntity
  8
WANGE_UR
  6
HIDDEN2
 62
     7
 48
25.4
100
AcDbLine
 10
486.9211231153
 20
175.0676490808
 30
0.0
 11
486.1211231153
 21
175.0676490808
 31
0.0
  0
LINE
  5
238
330
15F
100
AcDbEntity
  8
WANGE_UR
  6
HIDDEN2
 62
     7
 48
25.4
100
AcDbLine
 10
486.9211231153
 20
177.7627947119
 30
0.0
 11
486.1211231153
 21
177.7627947119
 31
0.0
  0
LINE
  5
239
330
15F
100
AcDbEntity
  8
WANGE_UL
  6
HIDDEN2
 62
     7
 48
25.4
100
AcDbLine
 10
471.5211231153
 20
175.0676490808
 30
0.0
 11
471.5211231153
 21
177.3131016807
 31
0.0
  0
LINE
  5
23A
330
15F
100
AcDbEntity
  8
WANGE_UL
  6
Continuous
 62
     7
 48
25.4
100
AcDbLine
 10
471.5211231153
 20
177.3131016807
 30
0.0
 11
471.5211231153
 21
189.6666681442
 31
0.0
  0
LINE
  5
23B
330
15F
100
AcDbEntity
  8
WANGE_UL
  6
Continuous
 62
     7
 48
25.4
100
AcDbLine
 10
471.5211231153
 20
189.6666681442
 30
0.0
 11
471.5211231153
 21
203.5642319121
 31
0.0
  0
LINE
  5
23C
330
15F
100
AcDbEntity
  8
WANGE_UL
  6
Continuous
 62
     7
 48
25.4
100
AcDbLine
 10
472.3211231153
 20
189.6666681442
 30
0.0
 11
472.3211231153
 21
203.5642319121
 31
0.0
  0
LINE
  5
23D
330
15F
100
AcDbEntity
  8
WANGE_UL
  6
HIDDEN2
 62
     7
 48
25.4
100
AcDbLine
 10
472.3211231153
 20
175.0676490808
 30
0.0
 11
472.3211231153
 21
177.3131016807
 31
0.0
  0
LINE
  5
23E
330
15F
100
AcDbEntity
  8
WANGE_UL
  6
Continuous
 62
     7
 48
25.4
100
AcDbLine
 10
472.3211231153
 20
177.3131016807
 30
0.0
 11
472.3211231153
 21
189.6666681442
 31
0.0
  0
LINE
  5
23F
330
15F
100
AcDbEntity
  8
WANGE_UL
  6
HIDDEN2
 62
     7
 48
25.4
100
AcDbLine
 10
471.5211231153
 20
175.0676490808
 30
0.0
 11
472.3211231153
 21
175.0676490808
 31
0.0
  0
LINE
  5
240
330
15F
100
AcDbEntity
  8
WANGE_UL
  6
HIDDEN2
 62
     7
 48
25.4
100
AcDbLine
 10
471.5211231153
 20
177.7627947119
 30
0.0
 11
472.3211231153
 21
177.7627947119
 31
0.0
  0
LINE
  5
241
330
15F
100
AcDbEntity
  8
WANGE_OL
  6
Continuous
 62
     7
 48
25.4
100
AcDbLine
 10
470.3210516404
 20
204.7642319121
 30
0.0
 11
458.8211231153
 21
204.7642319121
 31
0.0
  0
LINE
  5
242
330
15F
100
AcDbEntity
  8
WANGE_OL
  6
Continuous
 62
     7
 48
25.4
100
AcDbLine
 10
458.8211231153
 20
204.7642319121
 30
0.0
 11
438.8211231153
 21
204.7642319121
 31
0.0
  0
LINE
  5
243
330
15F
100
AcDbEntity
  8
WANGE_OL
  6
Continuous
 62
     7
 48
25.4
100
AcDbLine
 10
470.3210516404
 20
205.5642319121
 30
0.0
 11
458.8211231153
 21
205.5642319121
 31
0.0
  0
LINE
  5
244
330
15F
100
AcDbEntity
  8
WANGE_OL
  6
Continuous
 62
     7
 48
25.4
100
AcDbLine
 10
458.8211231153
 20
205.5642319121
 30
0.0
 11
438.8211231153
 21
205.5642319121
 31
0.0
  0
LINE
  5
245
330
15F
100
AcDbEntity
  8
WANGE_OL
  6
Continuous
 62
     7
 48
25.4
100
AcDbLine
 10
458.8211231153
 20
204.7642319121
 30
0.0
 11
458.8211231153
 21
205.5642319121
 31
0.0
  0
LINE
  5
246
330
15F
100
AcDbEntity
  8
WANGE_OL
  6
HIDDEN2
 62
     7
 48
25.4
100
AcDbLine
 10
456.4211231153
 20
204.7642319121
 30
0.0
 11
456.4211231153
 21
205.5642319121
 31
0.0
  0
LINE
  5
247
330
15F
100
AcDbEntity
  8
WANGE_OL
  6
Continuous
 62
     7
 48
25.4
100
AcDbLine
 10
438.8211231153
 20
204.7642319121
 30
0.0
 11
438.8211231153
 21
205.5642319121
 31
0.0
  0
ENDBLK
  5
249
330
15F
100
AcDbEntity
  8
0
100
AcDbBlockEnd
  0
BLOCK
  5
26C
330
269
100
AcDbEntity
  8
0
100
AcDbBlockBegin
  2
SEANNOT_GROUP
 70
     0
 71
     0
 10
0.0
 20
0.0
 30
0.0
  3
SEANNOT_GROUP
  1

  0
TEXT
  5
26B
330
269
100
AcDbEntity
  8
Default
  6
Continuous
 62
     7
 48
25.4
100
AcDbText
 10
464.874
 20
50.7035
 30
0.0
 40
3.048
  1
Rainer
  7
SEACAD_seiso_ttf
 11
464.874
 21
53.7515
 31
0.0
100
AcDbText
 73
     3
  0
ENDBLK
  5
26D
330
269
100
AcDbEntity
  8
0
100
AcDbBlockEnd
  0
BLOCK
  5
272
330
26F
100
AcDbEntity
  8
0
100
AcDbBlockBegin
  2
SEANNOT_GROUP1
 70
     0
 71
     0
 10
0.0
 20
0.0
 30
0.0
  3
SEANNOT_GROUP1
  1

  0
TEXT
  5
271
330
26F
100
AcDbEntity
  8
Default
  6
Continuous
 62
     7
 48
25.4
100
AcDbText
 10
483.924
 20
50.7035
 30
0.0
 40
3.048
  1
10/27/11
  7
SEACAD_seiso_ttf
 11
483.924
 21
53.7515
 31
0.0
100
AcDbText
 73
     3
  0
ENDBLK
  5
273
330
26F
100
AcDbEntity
  8
0
100
AcDbBlockEnd
  0
BLOCK
  5
27B
330
279
100
AcDbEntity
  8
0
100
AcDbBlockBegin
  2
SEANNOT_GROUP2
 70
     0
 71
     0
 10
0.0
 20
0.0
 30
0.0
  3
SEANNOT_GROUP2
  1

  0
ENDBLK
  5
27C
330
279
100
AcDbEntity
  8
0
100
AcDbBlockEnd
  0
BLOCK
  5
283
330
281
100
AcDbEntity
  8
0
100
AcDbBlockBegin
  2
SEANNOT_GROUP3
 70
     0
 71
     0
 10
0.0
 20
0.0
 30
0.0
  3
SEANNOT_GROUP3
  1

  0
ENDBLK
  5
284
330
281
100
AcDbEntity
  8
0
100
AcDbBlockEnd
  0
BLOCK
  5
288
330
286
100
AcDbEntity
  8
0
100
AcDbBlockBegin
  2
SEANNOT_GROUP4
 70
     0
 71
     0
 10
0.0
 20
0.0
 30
0.0
  3
SEANNOT_GROUP4
  1

  0
ENDBLK
  5
289
330
286
100
AcDbEntity
  8
0
100
AcDbBlockEnd
  0
BLOCK
  5
28D
330
28A
100
AcDbEntity
  8
0
100
AcDbBlockBegin
  2
SEANNOT_GROUP5
 70
     0
 71
     0
 10
0.0
 20
0.0
 30
0.0
  3
SEANNOT_GROUP5
  1

  0
TEXT
  5
28C
330
28A
100
AcDbEntity
  8
Default
  6
Continuous
 62
     7
 48
25.4
100
AcDbText
 10
506.149
 20
18.001
 30
0.0
 40
3.048
  1
FILE NAME: Grundriss_2OG_111027.dft
  7
SEACAD_seiso_ttf
 11
506.149
 21
21.049
 31
0.0
100
AcDbText
 73
     3
  0
ENDBLK
  5
28E
330
28A
100
AcDbEntity
  8
0
100
AcDbBlockEnd
  0
BLOCK
  5
294
330
291
100
AcDbEntity
  8
0
100
AcDbBlockBegin
  2
SEANNOT_GROUP6
 70
     0
 71
     0
 10
0.0
 20
0.0
 30
0.0
  3
SEANNOT_GROUP6
  1

  0
TEXT
  5
293
330
291
100
AcDbEntity
  8
Default
  6
Continuous
 62
     7
 48
25.4
100
AcDbText
 10
553.774
 20
11.651
 30
0.0
 40
3.048
  1
SHEET 1 OF 1
  7
SEACAD_seiso_ttf
 11
553.774
 21
14.699
 31
0.0
100
AcDbText
 73
     3
  0
ENDBLK
  5
295
330
291
100
AcDbEntity
  8
0
100
AcDbBlockEnd
  0
ENDSEC
  0
SECTION
  2
ENTITIES
  0
INSERT
  5
2C
330
1F
100
AcDbEntity
  8
Default
100
AcDbBlockReference
  2
SE
 10
0.0
 20
0.0
 30
0.0
  0
INSERT
  5
160
330
1F
100
AcDbEntity
  8
Default
100
AcDbBlockReference
  2
SE1
 10
0.0
 20
0.0
 30
0.0
  0
LINE
  5
24A
330
1F
100
AcDbEntity
  8
Default
  6
Continuous
 62
     7
 48
25.4
100
AcDbLine
 10
10.0
 20
10.0
 30
0.0
 11
584.0
 21
10.0
 31
0.0
  0
LINE
  5
24B
330
1F
100
AcDbEntity
  8
Default
  6
Continuous
 62
     7
 48
25.4
100
AcDbLine
 10
584.0
 20
10.0
 30
0.0
 11
584.0
 21
410.0
 31
0.0
  0
LINE
  5
24C
330
1F
100
AcDbEntity
  8
Default
  6
Continuous
 62
     7
 48
25.4
100
AcDbLine
 10
584.0
 20
410.0
 30
0.0
 11
10.0
 21
410.0
 31
0.0
  0
LINE
  5
24D
330
1F
100
AcDbEntity
  8
Default
  6
Continuous
 62
     7
 48
25.4
100
AcDbLine
 10
10.0
 20
410.0
 30
0.0
 11
10.0
 21
10.0
 31
0.0
  0
LINE
  5
24E
330
1F
100
AcDbEntity
  8
Default
  6
Continuous
 62
     7
 48
25.4
100
AcDbLine
 10
441.125
 20
10.0
 30
0.0
 11
441.125
 21
60.8
 31
0.0
  0
LINE
  5
24F
330
1F
100
AcDbEntity
  8
Default
  6
Continuous
 62
     7
 48
25.4
100
AcDbLine
 10
463.35
 20
32.225
 30
0.0
 11
463.35
 21
60.8
 31
0.0
  0
LINE
  5
250
330
1F
100
AcDbEntity
  8
Default
  6
Continuous
 62
     7
 48
25.4
100
AcDbLine
 10
482.4
 20
32.225
 30
0.0
 11
482.4
 21
60.8
 31
0.0
  0
LINE
  5
251
330
1F
100
AcDbEntity
  8
Default
  6
Continuous
 62
     7
 48
25.4
100
AcDbLine
 10
504.625
 20
10.0
 30
0.0
 11
504.625
 21
60.8
 31
0.0
  0
LINE
  5
252
330
1F
100
AcDbEntity
  8
Default
  6
Continuous
 62
     7
 48
25.4
100
AcDbLine
 10
514.15
 20
22.7
 30
0.0
 11
514.15
 21
32.098
 31
0.0
  0
LINE
  5
253
330
1F
100
AcDbEntity
  8
Default
  6
Continuous
 62
     7
 48
25.4
100
AcDbLine
 10
526.85
 20
10.0
 30
0.0
 11
526.85
 21
16.35
 31
0.0
  0
LINE
  5
254
330
1F
100
AcDbEntity
  8
Default
  6
Continuous
 62
     7
 48
25.4
100
AcDbLine
 10
552.25
 20
10.0
 30
0.0
 11
552.25
 21
16.35
 31
0.0
  0
LINE
  5
255
330
1F
100
AcDbEntity
  8
Default
  6
Continuous
 62
     7
 48
25.4
100
AcDbLine
 10
574.348
 20
22.7
 30
0.0
 11
574.348
 21
32.098
 31
0.0
  0
LINE
  5
256
330
1F
100
AcDbEntity
  8
Default
  6
Continuous
 62
     7
 48
25.4
100
AcDbLine
 10
441.125
 20
60.8
 30
0.0
 11
584.0
 21
60.8
 31
0.0
  0
LINE
  5
257
330
1F
100
AcDbEntity
  8
Default
  6
Continuous
 62
     7
 48
25.4
100
AcDbLine
 10
441.125
 20
55.085
 30
0.0
 11
504.625
 21
55.085
 31
0.0
  0
LINE
  5
258
330
1F
100
AcDbEntity
  8
Default
  6
Continuous
 62
     7
 48
25.4
100
AcDbLine
 10
441.125
 20
49.37
 30
0.0
 11
504.625
 21
49.37
 31
0.0
  0
LINE
  5
259
330
1F
100
AcDbEntity
  8
Default
  6
Continuous
 62
     7
 48
25.4
100
AcDbLine
 10
504.625
 20
45.052
 30
0.0
 11
584.0
 21
45.052
 31
0.0
  0
LINE
  5
25A
330
1F
100
AcDbEntity
  8
Default
  6
Continuous
 62
     7
 48
25.4
100
AcDbLine
 10
441.125
 20
43.655
 30
0.0
 11
504.625
 21
43.655
 31
0.0
  0
LINE
  5
25B
330
1F
100
AcDbEntity
  8
Default
  6
Continuous
 62
     7
 48
25.4
100
AcDbLine
 10
441.125
 20
37.94
 30
0.0
 11
504.625
 21
37.94
 31
0.0
  0
LINE
  5
25C
330
1F
100
AcDbEntity
  8
Default
  6
Continuous
 62
     7
 48
25.4
100
AcDbLine
 10
441.125
 20
32.225
 30
0.0
 11
584.0
 21
32.225
 31
0.0
  0
LINE
  5
25D
330
1F
100
AcDbEntity
  8
Default
  6
Continuous
 62
     7
 48
25.4
100
AcDbLine
 10
504.625
 20
22.7
 30
0.0
 11
584.0
 21
22.7
 31
0.0
  0
LINE
  5
25E
330
1F
100
AcDbEntity
  8
Default
  6
Continuous
 62
     7
 48
25.4
100
AcDbLine
 10
504.625
 20
16.35
 30
0.0
 11
584.0
 21
16.35
 31
0.0
  0
TEXT
  5
260
330
1F
100
AcDbEntity
  8
Default
  6
Continuous
 62
     7
 48
25.4
100
AcDbText
 10
442.649
 20
50.7727727273
 30
0.0
 40
3.048
  1
DRAWN
  7
SEACAD_seiso_ttf
 11
442.649
 21
53.8207727273
 31
0.0
100
AcDbText
 73
     3
  0
TEXT
  5
261
330
1F
100
AcDbEntity
  8
Default
  6
Continuous
 62
     7
 48
25.4
100
AcDbText
 10
442.649
 20
45.0577727273
 30
0.0
 40
3.048
  1
CHECKED
  7
SEACAD_seiso_ttf
 11
442.649
 21
48.1057727273
 31
0.0
100
AcDbText
 73
     3
  0
TEXT
  5
262
330
1F
100
AcDbEntity
  8
Default
  6
Continuous
 62
     7
 48
25.4
100
AcDbText
 10
442.649
 20
39.3427727273
 30
0.0
 40
3.048
  1
ENG APPR
  7
SEACAD_seiso_ttf
 11
442.649
 21
42.3907727273
 31
0.0
100
AcDbText
 73
     3
  0
TEXT
  5
263
330
1F
100
AcDbEntity
  8
Default
  6
Continuous
 62
     7
 48
25.4
100
AcDbText
 10
442.649
 20
33.6277727273
 30
0.0
 40
3.048
  1
MGR APPR
  7
SEACAD_seiso_ttf
 11
442.649
 21
36.6757727273
 31
0.0
100
AcDbText
 73
     3
  0
TEXT
  5
264
330
1F
100
AcDbEntity
  8
Default
  6
Continuous
 62
     7
 48
25.4
100
AcDbText
 10
451.8853636364
 20
27.1392272727
 30
0.0
 40
3.048
  1
UNLESS OTHERWISE SPECIFIED
  7
SEACAD_seiso_ttf
 11
451.8853636364
 21
30.1872272727
 31
0.0
100
AcDbText
 73
     3
  0
TEXT
  5
265
330
1F
100
AcDbEntity
  8
Default
  6
Continuous
 62
     7
 48
25.4
100
AcDbText
 10
449.9110909091
 20
22.1515909091
 30
0.0
 40
3.048
  1
DIMENSIONS ARE IN MILLIMETERS
  7
SEACAD_seiso_ttf
 11
449.9110909091
 21
25.1995909091
 31
0.0
100
AcDbText
 73
     3
  0
TEXT
  5
266
330
1F
100
AcDbEntity
  8
Default
  6
Continuous
 62
     7
 48
25.4
100
AcDbText
 10
463.4192727273
 20
17.1639545455
 30
0.0
 40
3.048
  1
ANGLES X.X
  7
SEACAD_seiso_ttf
 11
463.4192727273
 21
20.2119545455
 31
0.0
100
AcDbText
 73
     3
  0
TEXT
  5
267
330
1F
100
AcDbEntity
  8
Default
  6
Continuous
 62
     7
 48
25.4
100
AcDbText
 10
455.6953636364
 20
12.1763181818
 30
0.0
 40
3.048
  1
2 PL X.XX 3 PL X.XXX
  7
SEACAD_seiso_ttf
 11
455.6953636364
 21
15.2243181818
 31
0.0
100
AcDbText
 73
     3
  0
TEXT
  5
268
330
1F
100
AcDbEntity
  8
Default
  6
Continuous
 62
     7
 48
25.4
100
AcDbText
 10
469.0996363636
 20
56.4877727273
 30
0.0
 40
3.048
  1
NAME
  7
SEACAD_seiso_ttf
 11
469.0996363636
 21
59.5357727273
 31
0.0
100
AcDbText
 73
     3
  0
INSERT
  5
26A
330
1F
100
AcDbEntity
  8
Default
100
AcDbBlockReference
  2
SEANNOT_GROUP
 10
0.0
 20
0.0
 30
0.0
  0
TEXT
  5
26E
330
1F
100
AcDbEntity
  8
Default
  6
Continuous
 62
     7
 48
25.4
100
AcDbText
 10
490.0835
 20
56.4877727273
 30
0.0
 40
3.048
  1
DATE
  7
SEACAD_seiso_ttf
 11
490.0835
 21
59.5357727273
 31
0.0
100
AcDbText
 73
     3
  0
INSERT
  5
270
330
1F
100
AcDbEntity
  8
Default
100
AcDbBlockReference
  2
SEANNOT_GROUP1
 10
0.0
 20
0.0
 30
0.0
  0
TEXT
  5
275
330
1F
100
AcDbEntity
  8
Default
  6
Continuous
 62
     7
 48
25.4
100
AcDbText
 10
518.5061
 20
51.9862
 30
0.0
 40
6.096
  1
SOLID EDGE
  7
SEACAD_arial_ttfB
 11
518.5061
 21
58.0822
 31
0.0
100
AcDbText
 73
     3
  0
TEXT
  5
277
330
1F
100
AcDbEntity
  8
Default
  6
Continuous
 62
     7
 48
25.4
100
AcDbText
 10
515.6902777778
 20
46.422425303
 30
0.0
 40
3.5
  1
UGS - The PLM Company
  7
SEACAD_arial_ttfI
 11
515.6902777778
 21
49.922425303
 31
0.0
100
AcDbText
 73
     3
  0
TEXT
  5
278
330
1F
100
AcDbEntity
  8
Default
  6
Continuous
 62
     7
 48
25.4
100
AcDbText
 10
505.895
 20
41.7615454545
 30
0.0
 40
2.54
  1
TITLE
  7
SEACAD_seiso_ttf
 11
505.895
 21
44.3015454545
 31
0.0
100
AcDbText
 73
     3
  0
INSERT
  5
27A
330
1F
100
AcDbEntity
  8
Default
100
AcDbBlockReference
  2
SEANNOT_GROUP2
 10
0.0
 20
0.0
 30
0.0
  0
TEXT
  5
27D
330
1F
100
AcDbEntity
  8
Default
  6
Continuous
 62
     7
 48
25.4
100
AcDbText
 10
506.8475
 20
28.9345454545
 30
0.0
 40
2.54
  1
SIZE
  7
SEACAD_seiso_ttf
 11
506.8475
 21
31.4745454545
 31
0.0
100
AcDbText
 73
     3
  0
TEXT
  5
27F
330
1F
100
AcDbEntity
  8
Default
  6
Continuous
 62
     7
 48
25.4
100
AcDbText
 10
507.6210454545
 20
24.7377727273
 30
0.0
 40
3.048
  1
A2
  7
SEACAD_seiso_ttfB
 11
507.6210454545
 21
27.7857727273
 31
0.0
100
AcDbText
 73
     3
  0
TEXT
  5
280
330
1F
100
AcDbEntity
  8
Default
  6
Continuous
 62
     7
 48
25.4
100
AcDbText
 10
515.42
 20
28.9345454545
 30
0.0
 40
2.54
  1
DWG NO
  7
SEACAD_seiso_ttf
 11
515.42
 21
31.4745454545
 31
0.0
100
AcDbText
 73
     3
  0
INSERT
  5
282
330
1F
100
AcDbEntity
  8
Default
100
AcDbBlockReference
  2
SEANNOT_GROUP3
 10
0.0
 20
0.0
 30
0.0
  0
TEXT
  5
285
330
1F
100
AcDbEntity
  8
Default
  6
Continuous
 62
     7
 48
25.4
100
AcDbText
 10
577.0092272727
 20
28.9345454545
 30
0.0
 40
2.54
  1
REV
  7
SEACAD_seiso_ttf
 11
577.0092272727
 21
31.4745454545
 31
0.0
100
AcDbText
 73
     3
  0
INSERT
  5
287
330
1F
100
AcDbEntity
  8
Default
100
AcDbBlockReference
  2
SEANNOT_GROUP4
 10
0.0
 20
0.0
 30
0.0
  0
INSERT
  5
28B
330
1F
100
AcDbEntity
  8
Default
100
AcDbBlockReference
  2
SEANNOT_GROUP5
 10
0.0
 20
0.0
 30
0.0
  0
TEXT
  5
28F
330
1F
100
AcDbEntity
  8
Default
  6
Continuous
 62
     7
 48
25.4
100
AcDbText
 10
506.149
 20
11.7202727273
 30
0.0
 40
3.048
  1
SCALE:
  7
SEACAD_seiso_ttf
 11
506.149
 21
14.7682727273
 31
0.0
100
AcDbText
 73
     3
  0
TEXT
  5
290
330
1F
100
AcDbEntity
  8
Default
  6
Continuous
 62
     7
 48
25.4
100
AcDbText
 10
528.374
 20
11.7202727273
 30
0.0
 40
3.048
  1
WEIGHT:
  7
SEACAD_seiso_ttf
 11
528.374
 21
14.7682727273
 31
0.0
100
AcDbText
 73
     3
  0
INSERT
  5
292
330
1F
100
AcDbEntity
  8
Default
100
AcDbBlockReference
  2
SEANNOT_GROUP6
 10
0.0
 20
0.0
 30
0.0
  0
LINE
  5
296
330
1F
100
AcDbEntity
  8
Default
  6
Continuous
 62
     7
 48
25.4
100
AcDbLine
 10
457.0
 20
410.0
 30
0.0
 11
457.0
 21
390.95
 31
0.0
  0
LINE
  5
297
330
1F
100
AcDbEntity
  8
Default
  6
Continuous
 62
     7
 48
25.4
100
AcDbLine
 10
466.652
 20
403.65
 30
0.0
 11
466.652
 21
390.95
 31
0.0
  0
LINE
  5
298
330
1F
100
AcDbEntity
  8
Default
  6
Continuous
 62
     7
 48
25.4
100
AcDbLine
 10
536.248
 20
403.65
 30
0.0
 11
536.248
 21
390.95
 31
0.0
  0
LINE
  5
299
330
1F
100
AcDbEntity
  8
Default
  6
Continuous
 62
     7
 48
25.4
100
AcDbLine
 10
558.6
 20
403.65
 30
0.0
 11
558.6
 21
390.95
 31
0.0
  0
LINE
  5
29A
330
1F
100
AcDbEntity
  8
Default
  6
Continuous
 62
     7
 48
25.4
100
AcDbLine
 10
457.0
 20
403.65
 30
0.0
 11
584.0
 21
403.65
 31
0.0
  0
LINE
  5
29B
330
1F
100
AcDbEntity
  8
Default
  6
Continuous
 62
     7
 48
25.4
100
AcDbLine
 10
457.0
 20
397.3
 30
0.0
 11
584.0
 21
397.3
 31
0.0
  0
TEXT
  5
29C
330
1F
100
AcDbEntity
  8
Default
  6
Continuous
 62
     7
 48
25.4
100
AcDbText
 10
507.8923636364
 20
405.3702727273
 30
0.0
 40
3.048
  1
REVISION HISTORY
  7
SEACAD_seiso_ttf
 11
507.8923636364
 21
408.4182727273
 31
0.0
100
AcDbText
 73
     3
  0
TEXT
  5
29D
330
1F
100
AcDbEntity
  8
Default
  6
Continuous
 62
     7
 48
25.4
100
AcDbText
 10
459.2282727273
 20
399.0202727273
 30
0.0
 40
3.048
  1
REV
  7
SEACAD_seiso_ttf
 11
459.2282727273
 21
402.0682727273
 31
0.0
100
AcDbText
 73
     3
  0
TEXT
  5
29E
330
1F
100
AcDbEntity
  8
Default
  6
Continuous
 62
     7
 48
25.4
100
AcDbText
 10
492.687
 20
399.0202727273
 30
0.0
 40
3.048
  1
DESCRIPTION
  7
SEACAD_seiso_ttf
 11
492.687
 21
402.0682727273
 31
0.0
100
AcDbText
 73
     3
  0
TEXT
  5
29F
330
1F
100
AcDbEntity
  8
Default
  6
Continuous
 62
     7
 48
25.4
100
AcDbText
 10
543.995
 20
399.0202727273
 30
0.0
 40
3.048
  1
DATE
  7
SEACAD_seiso_ttf
 11
543.995
 21
402.0682727273
 31
0.0
100
AcDbText
 73
     3
  0
TEXT
  5
2A0
330
1F
100
AcDbEntity
  8
Default
  6
Continuous
 62
     7
 48
25.4
100
AcDbText
 10
564.3380909091
 20
399.0202727273
 30
0.0
 40
3.048
  1
APPROVED
  7
SEACAD_seiso_ttf
 11
564.3380909091
 21
402.0682727273
 31
0.0
100
AcDbText
 73
     3
  0
ENDSEC
  0
SECTION
  2
OBJECTS
  0
DICTIONARY
  5
C
330
0
100
AcDbDictionary
281
     1
  3
ACAD_GROUP
350
D
  3
ACAD_LAYOUT
350
1A
  3
ACAD_MLINESTYLE
350
17
  3
ACAD_PLOTSETTINGS
350
19
  3
ACAD_PLOTSTYLENAME
350
E
  0
DICTIONARY
  5
D
102
{ACAD_REACTORS
330
C
102
}
330
C
100
AcDbDictionary
281
     1
  0
DICTIONARY
  5
1A
102
{ACAD_REACTORS
330
C
102
}
330
C
100
AcDbDictionary
281
     1
  3
Layout1
350
1E
  3
Model
350
22
  0
DICTIONARY
  5
17
102
{ACAD_REACTORS
330
C
102
}
330
C
100
AcDbDictionary
281
     1
  3
Standard
350
18
  0
DICTIONARY
  5
19
102
{ACAD_REACTORS
330
C
102
}
330
C
100
AcDbDictionary
281
     1
  0
ACDBDICTIONARYWDFLT
  5
E
102
{ACAD_REACTORS
330
C
102
}
330
C
100
AcDbDictionary
281
     1
  3
Normal
350
F
100
AcDbDictionaryWithDefault
340
F
  0
LAYOUT
  5
1E
102
{ACAD_REACTORS
330
1A
102
}
330
1A
100
AcDbPlotSettings
  1

  2

  4

  6

 40
0.0
 41
0.0
 42
0.0
 43
0.0
 44
0.0
 45
0.0
 46
0.0
 47
0.0
 48
0.0
 49
0.0
140
0.0
141
0.0
142
1.0
143
1.0
 70
   688
 72
     0
 73
     0
 74
     5
  7

 75
    16
147
1.0
148
0.0
149
0.0
100
AcDbLayout
  1
Layout1
 70
     1
 71
     1
 10
0.0
 20
0.0
 11
594.0
 21
420.0
 12
0.0
 22
0.0
 32
0.0
 14
0.0
 24
0.0
 34
0.0
 15
594.0
 25
420.0
 35
0.0
146
0.0
 13
0.0
 23
0.0
 33
0.0
 16
1.0
 26
0.0
 36
0.0
 17
0.0
 27
1.0
 37
0.0
 76
     0
330
1B
  0
LAYOUT
  5
22
102
{ACAD_REACTORS
330
1A
102
}
330
1A
100
AcDbPlotSettings
  1

  2

  4

  6

 40
0.0
 41
0.0
 42
0.0
 43
0.0
 44
0.0
 45
0.0
 46
0.0
 47
0.0
 48
0.0
 49
0.0
140
0.0
141
0.0
142
1.0
143
1.0
 70
  1712
 72
     0
 73
     0
 74
     0
  7

 75
     0
147
1.0
148
0.0
149
0.0
100
AcDbLayout
  1
Model
 70
     1
 71
     0
 10
0.0
 20
0.0
 11
594.0
 21
420.0
 12
0.0
 22
0.0
 32
0.0
 14
0.0
 24
0.0
 34
0.0
 15
594.0
 25
420.0
 35
0.0
146
0.0
 13
0.0
 23
0.0
 33
0.0
 16
1.0
 26
0.0
 36
0.0
 17
0.0
 27
1.0
 37
0.0
 76
     0
330
1F
  0
MLINESTYLE
  5
18
102
{ACAD_REACTORS
330
17
102
}
330
17
100
AcDbMlineStyle
  2
Standard
 70
     0
  3

 62
   256
 51
90.0
 52
90.0
 71
     2
 49
0.5
 62
   256
  6
BYLAYER
 49
-0.5
 62
   256
  6
BYLAYER
  0
ACDBPLACEHOLDER
  5
F
102
{ACAD_REACTORS
330
E
102
}
330
E
  0
ENDSEC
  0
EOF
