  0
SECTION
  2
HEADER
  9
$ACADVER
  1
AC1014
  9
$HANDSEED
  5
FFFF
  9
$MEASUREMENT
 70
     1
  0
ENDSEC
  0
SECTION
  2
TABLES
  0
TABLE
  2
VPORT
  5
8
330
0
100
AcDbSymbolTable
 70
     4
  0
VPORT
  5
2E
330
8
100
AcDbSymbolTableRecord
100
AcDbViewportTableRecord
  2
*ACTIVE
 70
     0
 10
0.0
 20
0.0
 11
1.0
 21
1.0
 12
210.0
 22
148.5
 13
0.0
 23
0.0
 14
10.0
 24
10.0
 15
10.0
 25
10.0
 16
0.0
 26
0.0
 36
1.0
 17
0.0
 27
0.0
 37
0.0
 40
341.0
 41
1.24
 42
50.0
 43
0.0
 44
0.0
 50
0.0
 51
0.0
 71
     0
 72
   100
 73
     1
 74
     3
 75
     0
 76
     0
 77
     0
 78
     0
  0
ENDTAB
  0
TABLE
  2
LTYPE
  5
5
330
0
100
AcDbSymbolTable
 70
     1
  0
LTYPE
  5
14
330
5
100
AcDbSymbolTableRecord
100
AcDbLinetypeTableRecord
  2
BYBLOCK
 70
     0
  3

 72
    65
 73
     0
 40
0.0
  0
LTYPE
  5
15
330
5
100
AcDbSymbolTableRecord
100
AcDbLinetypeTableRecord
  2
BYLAYER
 70
     0
  3

 72
    65
 73
     0
 40
0.0
  0
LTYPE
  5
16
330
5
100
AcDbSymbolTableRecord
100
AcDbLinetypeTableRecord
  2
CONTINUOUS
 70
     0
  3
Solid line
 72
    65
 73
     0
 40
0.0
  0
ENDTAB
  0
TABLE
  2
LAYER
  5
2
100
AcDbSymbolTable
 70
2
  0
LAYER
  5
50
100
AcDbSymbolTableRecord
100
AcDbLayerTableRecord
  2
0
 70
0
  6
CONTINUOUS
  0
LAYER
  5
51
100
AcDbSymbolTableRecord
100
AcDbLayerTableRecord
  2
Ebene_1
 70
0
  6
CONTINUOUS
  0
ENDTAB
  0
TABLE
  2
STYLE
  5
3
330
0
100
AcDbSymbolTable
 70
     1
  0
STYLE
  5
11
330
3
100
AcDbSymbolTableRecord
100
AcDbTextStyleTableRecord
  2
STANDARD
 70
     0
 40
0.0
 41
1.0
 50
0.0
 71
     0
 42
2.5
  3
txt
  4

  0
ENDTAB
  0
TABLE
  2
VIEW
  5
6
330
0
100
AcDbSymbolTable
 70
     0
  0
ENDTAB
  0
TABLE
  2
UCS
  5
7
330
0
100
AcDbSymbolTable
 70
     0
  0
ENDTAB
  0
TABLE
  2
APPID
  5
9
330
0
100
AcDbSymbolTable
 70
     2
  0
APPID
  5
12
330
9
100
AcDbSymbolTableRecord
100
AcDbRegAppTableRecord
  2
ACAD
 70
     0
  0
ENDTAB
  0
TABLE
  2
DIMSTYLE
  5
A
330
0
100
AcDbSymbolTable
 70
     1
  0
DIMSTYLE
105
27
330
A
100
AcDbSymbolTableRecord
100
AcDbDimStyleTableRecord
  2
ISO-25
 70
     0
  3

  4

  5

  6

  7

 40
1.0
 41
2.5
 42
0.625
 43
3.75
 44
1.25
 45
0.0
 46
0.0
 47
0.0
 48
0.0
140
2.5
141
2.5
142
0.0
143
0.03937007874016
144
1.0
145
0.0
146
1.0
147
0.625
 71
     0
 72
     0
 73
     0
 74
     0
 75
     0
 76
     0
 77
     1
 78
     8
170
     0
171
     3
172
     1
173
     0
174
     0
175
     0
176
     0
177
     0
178
     0
270
     2
271
     2
272
     2
273
     2
274
     3
340
11
275
     0
280
     0
281
     0
282
     0
283
     0
284
     8
285
     0
286
     0
287
     3
288
     0
  0
ENDTAB
  0
TABLE
  2
BLOCK_RECORD
  5
1
330
0
100
AcDbSymbolTable
 70
     1
  0
BLOCK_RECORD
  5
1F
330
1
100
AcDbSymbolTableRecord
100
AcDbBlockTableRecord
  2
*MODEL_SPACE
  0
BLOCK_RECORD
  5
1B
330
1
100
AcDbSymbolTableRecord
100
AcDbBlockTableRecord
  2
*PAPER_SPACE
  0
ENDTAB
  0
ENDSEC
  0
SECTION
  2
BLOCKS
  0
BLOCK
  5
20
330
1F
100
AcDbEntity
  8
0
100
AcDbBlockBegin
  2
*MODEL_SPACE
 70
     0
 10
0.0
 20
0.0
 30
0.0
  3
*MODEL_SPACE
  1

  0
ENDBLK
  5
21
330
1F
100
AcDbEntity
  8
0
100
AcDbBlockEnd
  0
BLOCK
  5
1C
330
1B
100
AcDbEntity
 67
     1
  8
0
100
AcDbBlockBegin
  2
*PAPER_SPACE
  1

  0
ENDBLK
  5
1D
330
1B
100
AcDbEntity
 67
     1
  8
0
100
AcDbBlockEnd
  0
ENDSEC
  0
SECTION
  2
ENTITIES
  0
SPLINE
  5
100
100
AcDbEntity
  8
Ebene_1
 62
7
100
AcDbSpline
 70
8
 71
3
 72
8
 73
4
 74
0
 40
0
 40
0
 40
0
 40
0
 40
1
 40
1
 40
1
 40
1
 10
196.029889
 20
636.750266
 30
0.0
 10
192.370639
 20
636.755516
 30
0.0
 10
188.719639
 20
636.739016
 30
0.0
 10
185.061139
 20
636.703766
 30
0.0
  0
SPLINE
  5
101
100
AcDbEntity
  8
Ebene_1
 62
7
100
AcDbSpline
 70
8
 71
3
 72
8
 73
4
 74
0
 40
0
 40
0
 40
0
 40
0
 40
1
 40
1
 40
1
 40
1
 10
185.061139
 20
636.703766
 30
0.0
 10
165.399889
 20
636.363266
 30
0.0
 10
145.616389
 20
635.885516
 30
0.0
 10
126.138890
 20
633.164516
 30
0.0
  0
SPLINE
  5
102
100
AcDbEntity
  8
Ebene_1
 62
7
100
AcDbSpline
 70
8
 71
3
 72
8
 73
4
 74
0
 40
0
 40
0
 40
0
 40
0
 40
1
 40
1
 40
1
 40
1
 10
126.138890
 20
633.164516
 30
0.0
 10
119.417390
 20
629.747516
 30
0.0
 10
115.969640
 20
622.246767
 30
0.0
 10
111.771890
 20
616.312767
 30
0.0
  0
SPLINE
  5
103
100
AcDbEntity
  8
Ebene_1
 62
7
100
AcDbSpline
 70
8
 71
3
 72
8
 73
4
 74
0
 40
0
 40
0
 40
0
 40
0
 40
1
 40
1
 40
1
 40
1
 10
111.771890
 20
616.312767
 30
0.0
 10
104.181140
 20
603.611517
 30
0.0
 10
100.649390
 20
589.016517
 30
0.0
 10
96.467390
 20
574.992267
 30
0.0
  0
SPLINE
  5
104
100
AcDbEntity
  8
Ebene_1
 62
7
100
AcDbSpline
 70
8
 71
3
 72
8
 73
4
 74
0
 40
0
 40
0
 40
0
 40
0
 40
1
 40
1
 40
1
 40
1
 10
96.467390
 20
574.992267
 30
0.0
 10
94.713140
 20
573.085017
 30
0.0
 10
93.513140
 20
570.430767
 30
0.0
 10
91.545890
 20
568.828017
 30
0.0
  0
SPLINE
  5
105
100
AcDbEntity
  8
Ebene_1
 62
7
100
AcDbSpline
 70
8
 71
3
 72
8
 73
4
 74
0
 40
0
 40
0
 40
0
 40
0
 40
1
 40
1
 40
1
 40
1
 10
91.545890
 20
568.828017
 30
0.0
 10
89.786390
 20
569.253267
 30
0.0
 10
91.673390
 20
573.223017
 30
0.0
 10
91.241390
 20
575.109267
 30
0.0
  0
SPLINE
  5
106
100
AcDbEntity
  8
Ebene_1
 62
7
100
AcDbSpline
 70
8
 71
3
 72
8
 73
4
 74
0
 40
0
 40
0
 40
0
 40
0
 40
1
 40
1
 40
1
 40
1
 10
91.241390
 20
575.109267
 30
0.0
 10
92.271890
 20
580.936017
 30
0.0
 10
85.297640
 20
584.483517
 30
0.0
 10
80.436890
 20
582.257517
 30
0.0
  0
SPLINE
  5
107
100
AcDbEntity
  8
Ebene_1
 62
7
100
AcDbSpline
 70
8
 71
3
 72
8
 73
4
 74
0
 40
0
 40
0
 40
0
 40
0
 40
1
 40
1
 40
1
 40
1
 10
80.436890
 20
582.257517
 30
0.0
 10
75.516890
 20
580.357017
 30
0.0
 10
68.061140
 20
579.853767
 30
0.0
 10
66.163640
 20
574.054017
 30
0.0
  0
SPLINE
  5
108
100
AcDbEntity
  8
Ebene_1
 62
7
100
AcDbSpline
 70
8
 71
3
 72
8
 73
4
 74
0
 40
0
 40
0
 40
0
 40
0
 40
1
 40
1
 40
1
 40
1
 10
66.163640
 20
574.054017
 30
0.0
 10
66.114140
 20
567.478017
 30
0.0
 10
72.897890
 20
562.554267
 30
0.0
 10
79.242140
 20
563.366517
 30
0.0
  0
SPLINE
  5
109
100
AcDbEntity
  8
Ebene_1
 62
7
100
AcDbSpline
 70
8
 71
3
 72
8
 73
4
 74
0
 40
0
 40
0
 40
0
 40
0
 40
1
 40
1
 40
1
 40
1
 10
79.242140
 20
563.366517
 30
0.0
 10
82.161890
 20
562.890267
 30
0.0
 10
83.399390
 20
559.251267
 30
0.0
 10
85.195640
 20
557.249517
 30
0.0
  0
SPLINE
  5
10a
100
AcDbEntity
  8
Ebene_1
 62
7
100
AcDbSpline
 70
8
 71
3
 72
8
 73
4
 74
0
 40
0
 40
0
 40
0
 40
0
 40
1
 40
1
 40
1
 40
1
 10
85.195640
 20
557.249517
 30
0.0
 10
85.347890
 20
546.628018
 30
0.0
 10
82.934390
 20
535.980268
 30
0.0
 10
83.531390
 20
525.280768
 30
0.0
  0
SPLINE
  5
10b
100
AcDbEntity
  8
Ebene_1
 62
7
100
AcDbSpline
 70
8
 71
3
 72
8
 73
4
 74
0
 40
0
 40
0
 40
0
 40
0
 40
1
 40
1
 40
1
 40
1
 10
83.531390
 20
525.280768
 30
0.0
 10
83.838140
 20
518.510518
 30
0.0
 10
83.160140
 20
511.389268
 30
0.0
 10
85.242140
 20
504.889768
 30
0.0
  0
SPLINE
  5
10c
100
AcDbEntity
  8
Ebene_1
 62
7
100
AcDbSpline
 70
8
 71
3
 72
8
 73
4
 74
0
 40
0
 40
0
 40
0
 40
0
 40
1
 40
1
 40
1
 40
1
 10
85.242140
 20
504.889768
 30
0.0
 10
85.828640
 20
504.271768
 30
0.0
 10
86.391140
 20
504.092518
 30
0.0
 10
86.929640
 20
504.163018
 30
0.0
  0
SPLINE
  5
10d
100
AcDbEntity
  8
Ebene_1
 62
7
100
AcDbSpline
 70
8
 71
3
 72
8
 73
4
 74
0
 40
0
 40
0
 40
0
 40
0
 40
1
 40
1
 40
1
 40
1
 10
86.929640
 20
504.163018
 30
0.0
 10
86.811890
 20
503.775268
 30
0.0
 10
86.718890
 20
503.377768
 30
0.0
 10
86.718890
 20
502.967518
 30
0.0
  0
SPLINE
  5
10e
100
AcDbEntity
  8
Ebene_1
 62
7
100
AcDbSpline
 70
8
 71
3
 72
8
 73
4
 74
0
 40
0
 40
0
 40
0
 40
0
 40
1
 40
1
 40
1
 40
1
 10
86.718890
 20
447.842519
 30
0.0
 10
86.718890
 20
445.438019
 30
0.0
 10
88.908140
 20
443.248769
 30
0.0
 10
91.312640
 20
443.248769
 30
0.0
  0
LWPOLYLINE
  5
10f
100
AcDbEntity
  8
Ebene_1
 62
7
100
AcDbPolyline
 90
2
 70
0
 10
86.718890
 20
502.967518
 30
0.0
 10
86.718890
 20
447.842519
 30
0.0
  0
SPLINE
  5
110
100
AcDbEntity
  8
Ebene_1
 62
7
100
AcDbSpline
 70
8
 71
3
 72
8
 73
4
 74
0
 40
0
 40
0
 40
0
 40
0
 40
1
 40
1
 40
1
 40
1
 10
109.687640
 20
443.248769
 30
0.0
 10
112.092140
 20
443.250269
 30
0.0
 10
114.281390
 20
445.438019
 30
0.0
 10
114.281390
 20
447.842519
 30
0.0
  0
LWPOLYLINE
  5
111
100
AcDbEntity
  8
Ebene_1
 62
7
100
AcDbPolyline
 90
2
 70
0
 10
91.312640
 20
443.248769
 30
0.0
 10
109.687640
 20
443.248769
 30
0.0
  0
SPLINE
  5
112
100
AcDbEntity
  8
Ebene_1
 62
7
100
AcDbSpline
 70
8
 71
3
 72
8
 73
4
 74
0
 40
0
 40
0
 40
0
 40
0
 40
1
 40
1
 40
1
 40
1
 10
275.601888
 20
447.842519
 30
0.0
 10
275.601888
 20
445.438019
 30
0.0
 10
277.791138
 20
443.250269
 30
0.0
 10
280.195638
 20
443.248769
 30
0.0
  0
LWPOLYLINE
  5
113
100
AcDbEntity
  8
Ebene_1
 62
7
100
AcDbPolyline
 90
4
 70
0
 10
114.281390
 20
447.842519
 30
0.0
 10
114.281390
 20
466.850519
 30
0.0
 10
275.601888
 20
466.850519
 30
0.0
 10
275.601888
 20
447.842519
 30
0.0
  0
SPLINE
  5
114
100
AcDbEntity
  8
Ebene_1
 62
7
100
AcDbSpline
 70
8
 71
3
 72
8
 73
4
 74
0
 40
0
 40
0
 40
0
 40
0
 40
1
 40
1
 40
1
 40
1
 10
298.570637
 20
443.248769
 30
0.0
 10
300.975887
 20
443.250269
 30
0.0
 10
303.162887
 20
445.438019
 30
0.0
 10
303.164387
 20
447.842519
 30
0.0
  0
LWPOLYLINE
  5
115
100
AcDbEntity
  8
Ebene_1
 62
7
100
AcDbPolyline
 90
2
 70
0
 10
280.195638
 20
443.248769
 30
0.0
 10
298.570637
 20
443.248769
 30
0.0
  0
SPLINE
  5
116
100
AcDbEntity
  8
Ebene_1
 62
7
100
AcDbSpline
 70
8
 71
3
 72
8
 73
4
 74
0
 40
0
 40
0
 40
0
 40
0
 40
1
 40
1
 40
1
 40
1
 10
303.164387
 20
502.967518
 30
0.0
 10
303.164387
 20
503.403268
 30
0.0
 10
303.085637
 20
503.824018
 30
0.0
 10
302.953637
 20
504.233518
 30
0.0
  0
SPLINE
  5
117
100
AcDbEntity
  8
Ebene_1
 62
7
100
AcDbSpline
 70
8
 71
3
 72
8
 73
4
 74
0
 40
0
 40
0
 40
0
 40
0
 40
1
 40
1
 40
1
 40
1
 10
302.953637
 20
504.233518
 30
0.0
 10
306.258887
 20
504.215518
 30
0.0
 10
305.424137
 20
509.544268
 30
0.0
 10
305.953637
 20
511.921018
 30
0.0
  0
SPLINE
  5
118
100
AcDbEntity
  8
Ebene_1
 62
7
100
AcDbSpline
 70
8
 71
3
 72
8
 73
4
 74
0
 40
0
 40
0
 40
0
 40
0
 40
1
 40
1
 40
1
 40
1
 10
305.953637
 20
511.921018
 30
0.0
 10
306.513887
 20
526.198018
 30
0.0
 10
306.474137
 20
540.724768
 30
0.0
 10
304.242887
 20
554.788017
 30
0.0
  0
SPLINE
  5
119
100
AcDbEntity
  8
Ebene_1
 62
7
100
AcDbSpline
 70
8
 71
3
 72
8
 73
4
 74
0
 40
0
 40
0
 40
0
 40
0
 40
1
 40
1
 40
1
 40
1
 10
304.242887
 20
554.788017
 30
0.0
 10
304.619387
 20
558.192267
 30
0.0
 10
307.604387
 20
561.337017
 30
0.0
 10
310.125887
 20
563.272017
 30
0.0
  0
SPLINE
  5
11a
100
AcDbEntity
  8
Ebene_1
 62
7
100
AcDbSpline
 70
8
 71
3
 72
8
 73
4
 74
0
 40
0
 40
0
 40
0
 40
0
 40
1
 40
1
 40
1
 40
1
 10
310.125887
 20
563.272017
 30
0.0
 10
316.197137
 20
562.972767
 30
0.0
 10
322.903637
 20
566.455767
 30
0.0
 10
323.836637
 20
572.951517
 30
0.0
  0
SPLINE
  5
11b
100
AcDbEntity
  8
Ebene_1
 62
7
100
AcDbSpline
 70
8
 71
3
 72
8
 73
4
 74
0
 40
0
 40
0
 40
0
 40
0
 40
1
 40
1
 40
1
 40
1
 10
323.836637
 20
572.951517
 30
0.0
 10
322.977887
 20
578.984517
 30
0.0
 10
315.412637
 20
580.216017
 30
0.0
 10
310.664387
 20
581.951517
 30
0.0
  0
SPLINE
  5
11c
100
AcDbEntity
  8
Ebene_1
 62
7
100
AcDbSpline
 70
8
 71
3
 72
8
 73
4
 74
0
 40
0
 40
0
 40
0
 40
0
 40
1
 40
1
 40
1
 40
1
 10
310.664387
 20
581.951517
 30
0.0
 10
306.367637
 20
583.729017
 30
0.0
 10
299.073887
 20
582.897267
 30
0.0
 10
298.641137
 20
577.170267
 30
0.0
  0
SPLINE
  5
11d
100
AcDbEntity
  8
Ebene_1
 62
7
100
AcDbSpline
 70
8
 71
3
 72
8
 73
4
 74
0
 40
0
 40
0
 40
0
 40
0
 40
1
 40
1
 40
1
 40
1
 10
298.641137
 20
577.170267
 30
0.0
 10
298.185137
 20
574.561767
 30
0.0
 10
299.869637
 20
570.501267
 30
0.0
 10
298.711637
 20
568.780017
 30
0.0
  0
SPLINE
  5
11e
100
AcDbEntity
  8
Ebene_1
 62
7
100
AcDbSpline
 70
8
 71
3
 72
8
 73
4
 74
0
 40
0
 40
0
 40
0
 40
0
 40
1
 40
1
 40
1
 40
1
 10
298.711637
 20
568.780017
 30
0.0
 10
296.043137
 20
569.896017
 30
0.0
 10
294.980387
 20
573.362517
 30
0.0
 10
293.180387
 20
575.530017
 30
0.0
  0
SPLINE
  5
11f
100
AcDbEntity
  8
Ebene_1
 62
7
100
AcDbSpline
 70
8
 71
3
 72
8
 73
4
 74
0
 40
0
 40
0
 40
0
 40
0
 40
1
 40
1
 40
1
 40
1
 10
293.180387
 20
575.530017
 30
0.0
 10
289.516638
 20
588.342267
 30
0.0
 10
286.191888
 20
601.617267
 30
0.0
 10
279.914388
 20
613.522017
 30
0.0
  0
SPLINE
  5
120
100
AcDbEntity
  8
Ebene_1
 62
7
100
AcDbSpline
 70
8
 71
3
 72
8
 73
4
 74
0
 40
0
 40
0
 40
0
 40
0
 40
1
 40
1
 40
1
 40
1
 10
279.914388
 20
613.522017
 30
0.0
 10
275.586138
 20
620.446017
 30
0.0
 10
271.218888
 20
628.053267
 30
0.0
 10
264.539388
 20
632.975516
 30
0.0
  0
SPLINE
  5
121
100
AcDbEntity
  8
Ebene_1
 62
7
100
AcDbSpline
 70
8
 71
3
 72
8
 73
4
 74
0
 40
0
 40
0
 40
0
 40
0
 40
1
 40
1
 40
1
 40
1
 10
264.539388
 20
632.975516
 30
0.0
 10
252.960888
 20
635.415266
 30
0.0
 10
240.776388
 20
634.843016
 30
0.0
 10
228.961638
 20
635.975516
 30
0.0
  0
SPLINE
  5
122
100
AcDbEntity
  8
Ebene_1
 62
7
100
AcDbSpline
 70
8
 71
3
 72
8
 73
4
 74
0
 40
0
 40
0
 40
0
 40
0
 40
1
 40
1
 40
1
 40
1
 10
228.961638
 20
635.975516
 30
0.0
 10
217.995888
 20
636.506516
 30
0.0
 10
207.006889
 20
636.733766
 30
0.0
 10
196.029889
 20
636.750266
 30
0.0
  0
LWPOLYLINE
  5
123
100
AcDbEntity
  8
Ebene_1
 62
7
100
AcDbPolyline
 90
2
 70
0
 10
303.164387
 20
447.842519
 30
0.0
 10
303.164387
 20
502.967518
 30
0.0
  0
SPLINE
  5
124
100
AcDbEntity
  8
Ebene_1
 62
7
100
AcDbSpline
 70
8
 71
3
 72
8
 73
4
 74
0
 40
0
 40
0
 40
0
 40
0
 40
1
 40
1
 40
1
 40
1
 10
195.115639
 20
630.820766
 30
0.0
 10
216.766638
 20
630.821516
 30
0.0
 10
238.419888
 20
630.751766
 30
0.0
 10
240.115638
 20
630.586766
 30
0.0
  0
SPLINE
  5
125
100
AcDbEntity
  8
Ebene_1
 62
7
100
AcDbSpline
 70
8
 71
3
 72
8
 73
4
 74
0
 40
0
 40
0
 40
0
 40
0
 40
1
 40
1
 40
1
 40
1
 10
240.115638
 20
630.586766
 30
0.0
 10
241.536888
 20
630.448766
 30
0.0
 10
243.373638
 20
630.051266
 30
0.0
 10
244.240638
 20
629.719766
 30
0.0
  0
SPLINE
  5
126
100
AcDbEntity
  8
Ebene_1
 62
7
100
AcDbSpline
 70
8
 71
3
 72
8
 73
4
 74
0
 40
0
 40
0
 40
0
 40
0
 40
1
 40
1
 40
1
 40
1
 10
244.240638
 20
629.719766
 30
0.0
 10
245.958888
 20
629.062016
 30
0.0
 10
246.615888
 20
628.367517
 30
0.0
 10
250.474638
 20
623.227767
 30
0.0
  0
SPLINE
  5
127
100
AcDbEntity
  8
Ebene_1
 62
7
100
AcDbSpline
 70
8
 71
3
 72
8
 73
4
 74
0
 40
0
 40
0
 40
0
 40
0
 40
1
 40
1
 40
1
 40
1
 10
250.474638
 20
623.227767
 30
0.0
 10
254.311638
 20
618.118017
 30
0.0
 10
255.506388
 20
616.821267
 30
0.0
 10
259.966638
 20
612.844767
 30
0.0
  0
SPLINE
  5
128
100
AcDbEntity
  8
Ebene_1
 62
7
100
AcDbSpline
 70
8
 71
3
 72
8
 73
4
 74
0
 40
0
 40
0
 40
0
 40
0
 40
1
 40
1
 40
1
 40
1
 10
259.966638
 20
612.844767
 30
0.0
 10
267.597138
 20
606.043017
 30
0.0
 10
268.392138
 20
604.929267
 30
0.0
 10
270.583638
 20
597.938517
 30
0.0
  0
SPLINE
  5
129
100
AcDbEntity
  8
Ebene_1
 62
7
100
AcDbSpline
 70
8
 71
3
 72
8
 73
4
 74
0
 40
0
 40
0
 40
0
 40
0
 40
1
 40
1
 40
1
 40
1
 10
270.583638
 20
597.938517
 30
0.0
 10
271.278138
 20
595.723017
 30
0.0
 10
273.339888
 20
589.225017
 30
0.0
 10
275.177388
 20
583.477767
 30
0.0
  0
SPLINE
  5
12a
100
AcDbEntity
  8
Ebene_1
 62
7
100
AcDbSpline
 70
8
 71
3
 72
8
 73
4
 74
0
 40
0
 40
0
 40
0
 40
0
 40
1
 40
1
 40
1
 40
1
 10
275.177388
 20
583.477767
 30
0.0
 10
277.014888
 20
577.729767
 30
0.0
 10
278.479638
 20
572.703267
 30
0.0
 10
278.435388
 20
572.321517
 30
0.0
  0
LWPOLYLINE
  5
12b
100
AcDbEntity
  8
Ebene_1
 62
7
100
AcDbPolyline
 90
1
 70
1
 10
196.029889
 20
636.750266
 30
0.0
  0
SPLINE
  5
12c
100
AcDbEntity
  8
Ebene_1
 62
7
100
AcDbSpline
 70
8
 71
3
 72
8
 73
4
 74
0
 40
0
 40
0
 40
0
 40
0
 40
1
 40
1
 40
1
 40
1
 10
259.825638
 20
571.453767
 30
0.0
 10
224.072388
 20
571.132767
 30
0.0
 10
183.069889
 20
571.059267
 30
0.0
 10
158.997139
 20
571.243017
 30
0.0
  0
SPLINE
  5
12d
100
AcDbEntity
  8
Ebene_1
 62
7
100
AcDbSpline
 70
8
 71
3
 72
8
 73
4
 74
0
 40
0
 40
0
 40
0
 40
0
 40
1
 40
1
 40
1
 40
1
 10
158.997139
 20
571.243017
 30
0.0
 10
145.631389
 20
571.345017
 30
0.0
 10
129.526640
 20
571.432767
 30
0.0
 10
123.207890
 20
571.453767
 30
0.0
  0
SPLINE
  5
12e
100
AcDbEntity
  8
Ebene_1
 62
7
100
AcDbSpline
 70
8
 71
3
 72
8
 73
4
 74
0
 40
0
 40
0
 40
0
 40
0
 40
1
 40
1
 40
1
 40
1
 10
123.207890
 20
571.453767
 30
0.0
 10
113.079890
 20
571.487517
 30
0.0
 10
111.700640
 20
571.553517
 30
0.0
 10
111.559640
 20
571.922517
 30
0.0
  0
SPLINE
  5
12f
100
AcDbEntity
  8
Ebene_1
 62
7
100
AcDbSpline
 70
8
 71
3
 72
8
 73
4
 74
0
 40
0
 40
0
 40
0
 40
0
 40
1
 40
1
 40
1
 40
1
 10
111.559640
 20
571.922517
 30
0.0
 10
111.471140
 20
572.152767
 30
0.0
 10
112.757390
 20
576.592017
 30
0.0
 10
114.418640
 20
581.789517
 30
0.0
  0
SPLINE
  5
130
100
AcDbEntity
  8
Ebene_1
 62
7
100
AcDbSpline
 70
8
 71
3
 72
8
 73
4
 74
0
 40
0
 40
0
 40
0
 40
0
 40
1
 40
1
 40
1
 40
1
 10
114.418640
 20
581.789517
 30
0.0
 10
116.080640
 20
586.987017
 30
0.0
 10
118.154390
 20
593.519517
 30
0.0
 10
119.035640
 20
596.320767
 30
0.0
  0
SPLINE
  5
131
100
AcDbEntity
  8
Ebene_1
 62
7
100
AcDbSpline
 70
8
 71
3
 72
8
 73
4
 74
0
 40
0
 40
0
 40
0
 40
0
 40
1
 40
1
 40
1
 40
1
 10
119.035640
 20
596.320767
 30
0.0
 10
121.631390
 20
604.572267
 30
0.0
 10
122.518640
 20
605.991267
 30
0.0
 10
127.989140
 20
610.875267
 30
0.0
  0
SPLINE
  5
132
100
AcDbEntity
  8
Ebene_1
 62
7
100
AcDbSpline
 70
8
 71
3
 72
8
 73
4
 74
0
 40
0
 40
0
 40
0
 40
0
 40
1
 40
1
 40
1
 40
1
 10
127.989140
 20
610.875267
 30
0.0
 10
133.626139
 20
615.907767
 30
0.0
 10
135.957889
 20
618.356517
 30
0.0
 10
139.215889
 20
622.641267
 30
0.0
  0
SPLINE
  5
133
100
AcDbEntity
  8
Ebene_1
 62
7
100
AcDbSpline
 70
8
 71
3
 72
8
 73
4
 74
0
 40
0
 40
0
 40
0
 40
0
 40
1
 40
1
 40
1
 40
1
 10
139.215889
 20
622.641267
 30
0.0
 10
141.012889
 20
625.004517
 30
0.0
 10
142.937389
 20
627.456267
 30
0.0
 10
143.505139
 20
628.078767
 30
0.0
  0
SPLINE
  5
134
100
AcDbEntity
  8
Ebene_1
 62
7
100
AcDbSpline
 70
8
 71
3
 72
8
 73
4
 74
0
 40
0
 40
0
 40
0
 40
0
 40
1
 40
1
 40
1
 40
1
 10
143.505139
 20
628.078767
 30
0.0
 10
144.827389
 20
629.528516
 30
0.0
 10
146.744389
 20
630.235016
 30
0.0
 10
150.114139
 20
630.562766
 30
0.0
  0
SPLINE
  5
135
100
AcDbEntity
  8
Ebene_1
 62
7
100
AcDbSpline
 70
8
 71
3
 72
8
 73
4
 74
0
 40
0
 40
0
 40
0
 40
0
 40
1
 40
1
 40
1
 40
1
 10
150.114139
 20
630.562766
 30
0.0
 10
151.811389
 20
630.727766
 30
0.0
 10
173.464639
 20
630.820016
 30
0.0
 10
195.115639
 20
630.820766
 30
0.0
  0
LWPOLYLINE
  5
136
100
AcDbEntity
  8
Ebene_1
 62
7
100
AcDbPolyline
 90
3
 70
0
 10
278.435388
 20
572.321517
 30
0.0
 10
278.364888
 20
571.618017
 30
0.0
 10
259.825638
 20
571.453767
 30
0.0
  0
SPLINE
  5
137
100
AcDbEntity
  8
Ebene_1
 62
7
100
AcDbSpline
 70
8
 71
3
 72
8
 73
4
 74
0
 40
0
 40
0
 40
0
 40
0
 40
1
 40
1
 40
1
 40
1
 10
104.412140
 20
561.937767
 30
0.0
 10
115.920140
 20
559.526517
 30
0.0
 10
126.415640
 20
552.277767
 30
0.0
 10
136.943389
 20
547.078768
 30
0.0
  0
SPLINE
  5
138
100
AcDbEntity
  8
Ebene_1
 62
7
100
AcDbSpline
 70
8
 71
3
 72
8
 73
4
 74
0
 40
0
 40
0
 40
0
 40
0
 40
1
 40
1
 40
1
 40
1
 10
136.943389
 20
547.078768
 30
0.0
 10
142.914139
 20
544.825018
 30
0.0
 10
150.888139
 20
538.690768
 30
0.0
 10
146.201389
 20
531.657268
 30
0.0
  0
SPLINE
  5
139
100
AcDbEntity
  8
Ebene_1
 62
7
100
AcDbSpline
 70
8
 71
3
 72
8
 73
4
 74
0
 40
0
 40
0
 40
0
 40
0
 40
1
 40
1
 40
1
 40
1
 10
146.201389
 20
531.657268
 30
0.0
 10
138.294889
 20
526.071268
 30
0.0
 10
127.209890
 20
529.783768
 30
0.0
 10
118.170140
 20
530.016268
 30
0.0
  0
SPLINE
  5
13a
100
AcDbEntity
  8
Ebene_1
 62
7
100
AcDbSpline
 70
8
 71
3
 72
8
 73
4
 74
0
 40
0
 40
0
 40
0
 40
0
 40
1
 40
1
 40
1
 40
1
 10
118.170140
 20
530.016268
 30
0.0
 10
110.982140
 20
532.073518
 30
0.0
 10
99.677390
 20
531.378268
 30
0.0
 10
96.209390
 20
539.297518
 30
0.0
  0
SPLINE
  5
13b
100
AcDbEntity
  8
Ebene_1
 62
7
100
AcDbSpline
 70
8
 71
3
 72
8
 73
4
 74
0
 40
0
 40
0
 40
0
 40
0
 40
1
 40
1
 40
1
 40
1
 10
96.209390
 20
539.297518
 30
0.0
 10
95.758640
 20
546.775768
 30
0.0
 10
94.035140
 20
560.746017
 30
0.0
 10
104.412140
 20
561.937767
 30
0.0
  0
LWPOLYLINE
  5
13c
100
AcDbEntity
  8
Ebene_1
 62
7
100
AcDbPolyline
 90
1
 70
1
 10
195.115639
 20
630.820766
 30
0.0
  0
SPLINE
  5
13d
100
AcDbEntity
  8
Ebene_1
 62
7
100
AcDbSpline
 70
8
 71
3
 72
8
 73
4
 74
0
 40
0
 40
0
 40
0
 40
0
 40
1
 40
1
 40
1
 40
1
 10
284.178138
 20
561.515517
 30
0.0
 10
295.870637
 20
561.936267
 30
0.0
 10
298.107887
 20
542.453518
 30
0.0
 10
290.740637
 20
536.249518
 30
0.0
  0
SPLINE
  5
13e
100
AcDbEntity
  8
Ebene_1
 62
7
100
AcDbSpline
 70
8
 71
3
 72
8
 73
4
 74
0
 40
0
 40
0
 40
0
 40
0
 40
1
 40
1
 40
1
 40
1
 10
290.740637
 20
536.249518
 30
0.0
 10
279.107388
 20
528.748018
 30
0.0
 10
263.918388
 20
529.486768
 30
0.0
 10
250.521888
 20
529.382518
 30
0.0
  0
SPLINE
  5
13f
100
AcDbEntity
  8
Ebene_1
 62
7
100
AcDbSpline
 70
8
 71
3
 72
8
 73
4
 74
0
 40
0
 40
0
 40
0
 40
0
 40
1
 40
1
 40
1
 40
1
 10
250.521888
 20
529.382518
 30
0.0
 10
244.084638
 20
528.370018
 30
0.0
 10
237.813888
 20
536.224768
 30
0.0
 10
244.357638
 20
540.820018
 30
0.0
  0
SPLINE
  5
140
100
AcDbEntity
  8
Ebene_1
 62
7
100
AcDbSpline
 70
8
 71
3
 72
8
 73
4
 74
0
 40
0
 40
0
 40
0
 40
0
 40
1
 40
1
 40
1
 40
1
 10
244.357638
 20
540.820018
 30
0.0
 10
255.987138
 20
550.072017
 30
0.0
 10
269.814888
 20
557.548767
 30
0.0
 10
284.178138
 20
561.515517
 30
0.0
  0
LWPOLYLINE
  5
141
100
AcDbEntity
  8
Ebene_1
 62
7
100
AcDbPolyline
 90
1
 70
1
 10
104.412140
 20
561.937767
 30
0.0
  0
LWPOLYLINE
  5
142
100
AcDbEntity
  8
Ebene_1
 62
7
100
AcDbPolyline
 90
1
 70
1
 10
284.178138
 20
561.515517
 30
0.0
  0
ENDSEC
  0
SECTION
  2
OBJECTS
  0
DICTIONARY
  5
C
330
0
100
AcDbDictionary
  3
ACAD_GROUP
350
D
  3
ACAD_MLINESTYLE
350
17
  0
DICTIONARY
  5
D
330
C
100
AcDbDictionary
  0
DICTIONARY
  5
1A
330
C
100
AcDbDictionary
  0
DICTIONARY
  5
17
330
C
100
AcDbDictionary
  3
STANDARD
350
18
  0
DICTIONARY
  5
19
330
C
100
AcDbDictionary
  0
ENDSEC
  0
EOF
