  0
SECTION
  2
HEADER
  9
$ACADVER
  1
AC1014
  9
$HANDSEED
  5
FFFF
  9
$MEASUREMENT
 70
     1
  0
ENDSEC
  0
SECTION
  2
TABLES
  0
TABLE
  2
VPORT
  5
8
330
0
100
AcDbSymbolTable
 70
     4
  0
VPORT
  5
2E
330
8
100
AcDbSymbolTableRecord
100
AcDbViewportTableRecord
  2
*ACTIVE
 70
     0
 10
0.0
 20
0.0
 11
1.0
 21
1.0
 12
210.0
 22
148.5
 13
0.0
 23
0.0
 14
10.0
 24
10.0
 15
10.0
 25
10.0
 16
0.0
 26
0.0
 36
1.0
 17
0.0
 27
0.0
 37
0.0
 40
341.0
 41
1.24
 42
50.0
 43
0.0
 44
0.0
 50
0.0
 51
0.0
 71
     0
 72
   100
 73
     1
 74
     3
 75
     0
 76
     0
 77
     0
 78
     0
  0
ENDTAB
  0
TABLE
  2
LTYPE
  5
5
330
0
100
AcDbSymbolTable
 70
     1
  0
LTYPE
  5
14
330
5
100
AcDbSymbolTableRecord
100
AcDbLinetypeTableRecord
  2
BYBLOCK
 70
     0
  3

 72
    65
 73
     0
 40
0.0
  0
LTYPE
  5
15
330
5
100
AcDbSymbolTableRecord
100
AcDbLinetypeTableRecord
  2
BYLAYER
 70
     0
  3

 72
    65
 73
     0
 40
0.0
  0
LTYPE
  5
16
330
5
100
AcDbSymbolTableRecord
100
AcDbLinetypeTableRecord
  2
CONTINUOUS
 70
     0
  3
Solid line
 72
    65
 73
     0
 40
0.0
  0
ENDTAB
  0
TABLE
  2
LAYER
  5
2
100
AcDbSymbolTable
 70
2
  0
LAYER
  5
50
100
AcDbSymbolTableRecord
100
AcDbLayerTableRecord
  2
0
 70
0
  6
CONTINUOUS
  0
LAYER
  5
51
100
AcDbSymbolTableRecord
100
AcDbLayerTableRecord
  2
Ebene_1
 70
0
  6
CONTINUOUS
  0
ENDTAB
  0
TABLE
  2
STYLE
  5
3
330
0
100
AcDbSymbolTable
 70
     1
  0
STYLE
  5
11
330
3
100
AcDbSymbolTableRecord
100
AcDbTextStyleTableRecord
  2
STANDARD
 70
     0
 40
0.0
 41
1.0
 50
0.0
 71
     0
 42
2.5
  3
txt
  4

  0
ENDTAB
  0
TABLE
  2
VIEW
  5
6
330
0
100
AcDbSymbolTable
 70
     0
  0
ENDTAB
  0
TABLE
  2
UCS
  5
7
330
0
100
AcDbSymbolTable
 70
     0
  0
ENDTAB
  0
TABLE
  2
APPID
  5
9
330
0
100
AcDbSymbolTable
 70
     2
  0
APPID
  5
12
330
9
100
AcDbSymbolTableRecord
100
AcDbRegAppTableRecord
  2
ACAD
 70
     0
  0
ENDTAB
  0
TABLE
  2
DIMSTYLE
  5
A
330
0
100
AcDbSymbolTable
 70
     1
  0
DIMSTYLE
105
27
330
A
100
AcDbSymbolTableRecord
100
AcDbDimStyleTableRecord
  2
ISO-25
 70
     0
  3

  4

  5

  6

  7

 40
1.0
 41
2.5
 42
0.625
 43
3.75
 44
1.25
 45
0.0
 46
0.0
 47
0.0
 48
0.0
140
2.5
141
2.5
142
0.0
143
0.03937007874016
144
1.0
145
0.0
146
1.0
147
0.625
 71
     0
 72
     0
 73
     0
 74
     0
 75
     0
 76
     0
 77
     1
 78
     8
170
     0
171
     3
172
     1
173
     0
174
     0
175
     0
176
     0
177
     0
178
     0
270
     2
271
     2
272
     2
273
     2
274
     3
340
11
275
     0
280
     0
281
     0
282
     0
283
     0
284
     8
285
     0
286
     0
287
     3
288
     0
  0
ENDTAB
  0
TABLE
  2
BLOCK_RECORD
  5
1
330
0
100
AcDbSymbolTable
 70
     1
  0
BLOCK_RECORD
  5
1F
330
1
100
AcDbSymbolTableRecord
100
AcDbBlockTableRecord
  2
*MODEL_SPACE
  0
BLOCK_RECORD
  5
1B
330
1
100
AcDbSymbolTableRecord
100
AcDbBlockTableRecord
  2
*PAPER_SPACE
  0
ENDTAB
  0
ENDSEC
  0
SECTION
  2
BLOCKS
  0
BLOCK
  5
20
330
1F
100
AcDbEntity
  8
0
100
AcDbBlockBegin
  2
*MODEL_SPACE
 70
     0
 10
0.0
 20
0.0
 30
0.0
  3
*MODEL_SPACE
  1

  0
ENDBLK
  5
21
330
1F
100
AcDbEntity
  8
0
100
AcDbBlockEnd
  0
BLOCK
  5
1C
330
1B
100
AcDbEntity
 67
     1
  8
0
100
AcDbBlockBegin
  2
*PAPER_SPACE
  1

  0
ENDBLK
  5
1D
330
1B
100
AcDbEntity
 67
     1
  8
0
100
AcDbBlockEnd
  0
ENDSEC
  0
SECTION
  2
ENTITIES
  0
SPLINE
  5
100
100
AcDbEntity
  8
Ebene_1
 62
7
100
AcDbSpline
 70
8
 71
3
 72
8
 73
4
 74
0
 40
0
 40
0
 40
0
 40
0
 40
1
 40
1
 40
1
 40
1
 10
139.232153
 20
659.474331
 30
0.0
 10
146.981903
 20
659.724081
 30
0.0
 10
153.482153
 20
662.724081
 30
0.0
 10
158.732153
 20
668.474331
 30
0.0
  0
SPLINE
  5
101
100
AcDbEntity
  8
Ebene_1
 62
7
100
AcDbSpline
 70
8
 71
3
 72
8
 73
4
 74
0
 40
0
 40
0
 40
0
 40
0
 40
1
 40
1
 40
1
 40
1
 10
158.732153
 20
668.474331
 30
0.0
 10
163.982153
 20
674.224581
 30
0.0
 10
166.481903
 20
680.974581
 30
0.0
 10
166.232153
 20
688.724331
 30
0.0
  0
SPLINE
  5
102
100
AcDbEntity
  8
Ebene_1
 62
7
100
AcDbSpline
 70
8
 71
3
 72
8
 73
4
 74
0
 40
0
 40
0
 40
0
 40
0
 40
1
 40
1
 40
1
 40
1
 10
166.232153
 20
688.724331
 30
0.0
 10
165.982403
 20
696.475581
 30
0.0
 10
163.106903
 20
703.100331
 30
0.0
 10
157.607153
 20
708.599331
 30
0.0
  0
SPLINE
  5
103
100
AcDbEntity
  8
Ebene_1
 62
7
100
AcDbSpline
 70
8
 71
3
 72
8
 73
4
 74
0
 40
0
 40
0
 40
0
 40
0
 40
1
 40
1
 40
1
 40
1
 10
157.607153
 20
708.599331
 30
0.0
 10
152.107403
 20
714.099081
 30
0.0
 10
145.481903
 20
716.724081
 30
0.0
 10
137.732153
 20
716.474331
 30
0.0
  0
SPLINE
  5
104
100
AcDbEntity
  8
Ebene_1
 62
7
100
AcDbSpline
 70
8
 71
3
 72
8
 73
4
 74
0
 40
0
 40
0
 40
0
 40
0
 40
1
 40
1
 40
1
 40
1
 10
137.732153
 20
716.474331
 30
0.0
 10
129.982403
 20
716.224581
 30
0.0
 10
123.482153
 20
713.224581
 30
0.0
 10
118.232153
 20
707.474331
 30
0.0
  0
SPLINE
  5
105
100
AcDbEntity
  8
Ebene_1
 62
7
100
AcDbSpline
 70
8
 71
3
 72
8
 73
4
 74
0
 40
0
 40
0
 40
0
 40
0
 40
1
 40
1
 40
1
 40
1
 10
118.232153
 20
707.474331
 30
0.0
 10
112.982153
 20
701.724081
 30
0.0
 10
110.357153
 20
694.974081
 30
0.0
 10
110.357153
 20
687.224331
 30
0.0
  0
SPLINE
  5
106
100
AcDbEntity
  8
Ebene_1
 62
7
100
AcDbSpline
 70
8
 71
3
 72
8
 73
4
 74
0
 40
0
 40
0
 40
0
 40
0
 40
1
 40
1
 40
1
 40
1
 10
110.357153
 20
687.224331
 30
0.0
 10
110.357153
 20
679.474581
 30
0.0
 10
113.231903
 20
672.849081
 30
0.0
 10
118.982153
 20
667.349331
 30
0.0
  0
SPLINE
  5
107
100
AcDbEntity
  8
Ebene_1
 62
7
100
AcDbSpline
 70
8
 71
3
 72
8
 73
4
 74
0
 40
0
 40
0
 40
0
 40
0
 40
1
 40
1
 40
1
 40
1
 10
118.982153
 20
667.349331
 30
0.0
 10
124.732403
 20
661.849581
 30
0.0
 10
131.482403
 20
659.224581
 30
0.0
 10
139.232153
 20
659.474331
 30
0.0
  0
LWPOLYLINE
  5
108
100
AcDbEntity
  8
Ebene_1
 62
7
100
AcDbPolyline
 90
1
 70
1
 10
139.232153
 20
659.474331
 30
0.0
  0
SPLINE
  5
109
100
AcDbEntity
  8
Ebene_1
 62
7
100
AcDbSpline
 70
8
 71
3
 72
8
 73
4
 74
0
 40
0
 40
0
 40
0
 40
0
 40
1
 40
1
 40
1
 40
1
 10
159.107153
 20
641.099332
 30
0.0
 10
152.606903
 20
649.099581
 30
0.0
 10
144.607403
 20
653.099331
 30
0.0
 10
135.107153
 20
653.099331
 30
0.0
  0
SPLINE
  5
10a
100
AcDbEntity
  8
Ebene_1
 62
7
100
AcDbSpline
 70
8
 71
3
 72
8
 73
4
 74
0
 40
0
 40
0
 40
0
 40
0
 40
1
 40
1
 40
1
 40
1
 10
135.107153
 20
653.099331
 30
0.0
 10
128.606903
 20
653.099331
 30
0.0
 10
122.357153
 20
650.349081
 30
0.0
 10
116.357153
 20
644.849331
 30
0.0
  0
LWPOLYLINE
  5
10b
100
AcDbEntity
  8
Ebene_1
 62
7
100
AcDbPolyline
 90
3
 70
0
 10
234.107152
 20
564.599332
 30
0.0
 10
192.857152
 20
587.099332
 30
0.0
 10
159.107153
 20
641.099332
 30
0.0
  0
SPLINE
  5
10c
100
AcDbEntity
  8
Ebene_1
 62
7
100
AcDbSpline
 70
8
 71
3
 72
8
 73
4
 74
0
 40
0
 40
0
 40
0
 40
0
 40
1
 40
1
 40
1
 40
1
 10
65.357154
 20
593.099332
 30
0.0
 10
63.857154
 20
591.099082
 30
0.0
 10
62.857404
 20
588.849082
 30
0.0
 10
62.357154
 20
586.349332
 30
0.0
  0
LWPOLYLINE
  5
10d
100
AcDbEntity
  8
Ebene_1
 62
7
100
AcDbPolyline
 90
2
 70
0
 10
116.357153
 20
644.849331
 30
0.0
 10
65.357154
 20
593.099332
 30
0.0
  0
SPLINE
  5
10e
100
AcDbEntity
  8
Ebene_1
 62
7
100
AcDbSpline
 70
8
 71
3
 72
8
 73
4
 74
0
 40
0
 40
0
 40
0
 40
0
 40
1
 40
1
 40
1
 40
1
 10
55.607154
 20
527.099333
 30
0.0
 10
55.607154
 20
523.599833
 30
0.0
 10
56.857404
 20
520.599833
 30
0.0
 10
59.357154
 20
518.099333
 30
0.0
  0
SPLINE
  5
10f
100
AcDbEntity
  8
Ebene_1
 62
7
100
AcDbSpline
 70
8
 71
3
 72
8
 73
4
 74
0
 40
0
 40
0
 40
0
 40
0
 40
1
 40
1
 40
1
 40
1
 10
59.357154
 20
518.099333
 30
0.0
 10
61.856904
 20
515.600333
 30
0.0
 10
64.856904
 20
514.349333
 30
0.0
 10
68.357154
 20
514.349333
 30
0.0
  0
SPLINE
  5
110
100
AcDbEntity
  8
Ebene_1
 62
7
100
AcDbSpline
 70
8
 71
3
 72
8
 73
4
 74
0
 40
0
 40
0
 40
0
 40
0
 40
1
 40
1
 40
1
 40
1
 10
68.357154
 20
514.349333
 30
0.0
 10
71.857404
 20
514.349333
 30
0.0
 10
74.732154
 20
515.600333
 30
0.0
 10
76.982154
 20
518.099333
 30
0.0
  0
SPLINE
  5
111
100
AcDbEntity
  8
Ebene_1
 62
7
100
AcDbSpline
 70
8
 71
3
 72
8
 73
4
 74
0
 40
0
 40
0
 40
0
 40
0
 40
1
 40
1
 40
1
 40
1
 10
76.982154
 20
518.099333
 30
0.0
 10
79.232154
 20
520.599833
 30
0.0
 10
80.606904
 20
523.349333
 30
0.0
 10
81.107154
 20
526.349333
 30
0.0
  0
LWPOLYLINE
  5
112
100
AcDbEntity
  8
Ebene_1
 62
7
100
AcDbPolyline
 90
3
 70
0
 10
62.357154
 20
586.349332
 30
0.0
 10
55.607154
 20
528.599333
 30
0.0
 10
55.607154
 20
527.099333
 30
0.0
  0
SPLINE
  5
113
100
AcDbEntity
  8
Ebene_1
 62
7
100
AcDbSpline
 70
8
 71
3
 72
8
 73
4
 74
0
 40
0
 40
0
 40
0
 40
0
 40
1
 40
1
 40
1
 40
1
 10
58.607154
 20
390.598585
 30
0.0
 10
57.607404
 20
387.598585
 30
0.0
 10
57.107154
 20
384.855085
 30
0.0
 10
57.107154
 20
382.347085
 30
0.0
  0
SPLINE
  5
114
100
AcDbEntity
  8
Ebene_1
 62
7
100
AcDbSpline
 70
8
 71
3
 72
8
 73
4
 74
0
 40
0
 40
0
 40
0
 40
0
 40
1
 40
1
 40
1
 40
1
 10
57.107154
 20
382.347085
 30
0.0
 10
57.107154
 20
376.855585
 30
0.0
 10
58.982154
 20
372.222085
 30
0.0
 10
62.732154
 20
368.472085
 30
0.0
  0
SPLINE
  5
115
100
AcDbEntity
  8
Ebene_1
 62
7
100
AcDbSpline
 70
8
 71
3
 72
8
 73
4
 74
0
 40
0
 40
0
 40
0
 40
0
 40
1
 40
1
 40
1
 40
1
 10
62.732154
 20
368.472085
 30
0.0
 10
66.482154
 20
364.722085
 30
0.0
 10
71.107404
 20
363.099085
 30
0.0
 10
76.607154
 20
363.597085
 30
0.0
  0
SPLINE
  5
116
100
AcDbEntity
  8
Ebene_1
 62
7
100
AcDbSpline
 70
8
 71
3
 72
8
 73
4
 74
0
 40
0
 40
0
 40
0
 40
0
 40
1
 40
1
 40
1
 40
1
 10
76.607154
 20
363.597085
 30
0.0
 10
84.107154
 20
363.597085
 30
0.0
 10
89.606904
 20
367.105585
 30
0.0
 10
93.107154
 20
374.097085
 30
0.0
  0
LWPOLYLINE
  5
117
100
AcDbEntity
  8
Ebene_1
 62
7
100
AcDbPolyline
 90
5
 70
0
 10
81.107154
 20
526.349333
 30
0.0
 10
86.357154
 20
575.849332
 30
0.0
 10
104.357153
 20
593.849332
 30
0.0
 10
87.857154
 20
455.849334
 30
0.0
 10
58.607154
 20
390.598585
 30
0.0
  0
SPLINE
  5
118
100
AcDbEntity
  8
Ebene_1
 62
7
100
AcDbSpline
 70
8
 71
3
 72
8
 73
4
 74
0
 40
0
 40
0
 40
0
 40
0
 40
1
 40
1
 40
1
 40
1
 10
124.607153
 20
444.598584
 30
0.0
 10
124.607153
 20
445.101084
 30
0.0
 10
124.856903
 20
445.974834
 30
0.0
 10
125.357153
 20
447.223584
 30
0.0
  0
SPLINE
  5
119
100
AcDbEntity
  8
Ebene_1
 62
7
100
AcDbSpline
 70
8
 71
3
 72
8
 73
4
 74
0
 40
0
 40
0
 40
0
 40
0
 40
1
 40
1
 40
1
 40
1
 10
125.357153
 20
447.223584
 30
0.0
 10
125.858153
 20
448.476084
 30
0.0
 10
126.358403
 20
449.601084
 30
0.0
 10
126.857153
 20
450.598584
 30
0.0
  0
SPLINE
  5
11a
100
AcDbEntity
  8
Ebene_1
 62
7
100
AcDbSpline
 70
8
 71
3
 72
8
 73
4
 74
0
 40
0
 40
0
 40
0
 40
0
 40
1
 40
1
 40
1
 40
1
 10
126.857153
 20
450.598584
 30
0.0
 10
127.357403
 20
451.599834
 30
0.0
 10
127.607153
 20
452.601084
 30
0.0
 10
127.607153
 20
453.598584
 30
0.0
  0
LWPOLYLINE
  5
11b
100
AcDbEntity
  8
Ebene_1
 62
7
100
AcDbPolyline
 90
2
 70
0
 10
93.107154
 20
374.097085
 30
0.0
 10
124.607153
 20
444.598584
 30
0.0
  0
SPLINE
  5
11c
100
AcDbEntity
  8
Ebene_1
 62
7
100
AcDbSpline
 70
8
 71
3
 72
8
 73
4
 74
0
 40
0
 40
0
 40
0
 40
0
 40
1
 40
1
 40
1
 40
1
 10
163.607153
 20
376.347085
 30
0.0
 10
167.107403
 20
367.347085
 30
0.0
 10
173.357152
 20
363.097585
 30
0.0
 10
182.357152
 20
363.597085
 30
0.0
  0
SPLINE
  5
11d
100
AcDbEntity
  8
Ebene_1
 62
7
100
AcDbSpline
 70
8
 71
3
 72
8
 73
4
 74
0
 40
0
 40
0
 40
0
 40
0
 40
1
 40
1
 40
1
 40
1
 10
182.357152
 20
363.597085
 30
0.0
 10
187.357402
 20
363.597085
 30
0.0
 10
191.732152
 20
365.472085
 30
0.0
 10
195.482152
 20
369.222085
 30
0.0
  0
SPLINE
  5
11e
100
AcDbEntity
  8
Ebene_1
 62
7
100
AcDbSpline
 70
8
 71
3
 72
8
 73
4
 74
0
 40
0
 40
0
 40
0
 40
0
 40
1
 40
1
 40
1
 40
1
 10
195.482152
 20
369.222085
 30
0.0
 10
199.232152
 20
372.972085
 30
0.0
 10
201.107152
 20
377.605585
 30
0.0
 10
201.107152
 20
383.097085
 30
0.0
  0
SPLINE
  5
11f
100
AcDbEntity
  8
Ebene_1
 62
7
100
AcDbSpline
 70
8
 71
3
 72
8
 73
4
 74
0
 40
0
 40
0
 40
0
 40
0
 40
1
 40
1
 40
1
 40
1
 10
201.107152
 20
383.097085
 30
0.0
 10
201.107152
 20
383.605585
 30
0.0
 10
200.981902
 20
384.222085
 30
0.0
 10
200.732152
 20
384.972085
 30
0.0
  0
SPLINE
  5
120
100
AcDbEntity
  8
Ebene_1
 62
7
100
AcDbSpline
 70
8
 71
3
 72
8
 73
4
 74
0
 40
0
 40
0
 40
0
 40
0
 40
1
 40
1
 40
1
 40
1
 10
200.732152
 20
384.972085
 30
0.0
 10
200.482402
 20
385.722085
 30
0.0
 10
200.357152
 20
386.349085
 30
0.0
 10
200.357152
 20
386.848585
 30
0.0
  0
LWPOLYLINE
  5
121
100
AcDbEntity
  8
Ebene_1
 62
7
100
AcDbPolyline
 90
3
 70
0
 10
127.607153
 20
453.598584
 30
0.0
 10
131.357153
 20
487.349333
 30
0.0
 10
163.607153
 20
376.347085
 30
0.0
  0
SPLINE
  5
122
100
AcDbEntity
  8
Ebene_1
 62
7
100
AcDbSpline
 70
8
 71
3
 72
8
 73
4
 74
0
 40
0
 40
0
 40
0
 40
0
 40
1
 40
1
 40
1
 40
1
 10
173.357152
 20
570.599332
 30
0.0
 10
174.356902
 20
569.099332
 30
0.0
 10
175.607152
 20
567.849082
 30
0.0
 10
177.107152
 20
566.849332
 30
0.0
  0
LWPOLYLINE
  5
123
100
AcDbEntity
  8
Ebene_1
 62
7
100
AcDbPolyline
 90
4
 70
0
 10
200.357152
 20
386.848585
 30
0.0
 10
155.357153
 20
540.599333
 30
0.0
 10
160.607153
 20
590.849332
 30
0.0
 10
173.357152
 20
570.599332
 30
0.0
  0
SPLINE
  5
124
100
AcDbEntity
  8
Ebene_1
 62
7
100
AcDbSpline
 70
8
 71
3
 72
8
 73
4
 74
0
 40
0
 40
0
 40
0
 40
0
 40
1
 40
1
 40
1
 40
1
 10
221.357152
 20
542.099333
 30
0.0
 10
224.357152
 20
541.099583
 30
0.0
 10
226.357402
 20
540.599333
 30
0.0
 10
227.357152
 20
540.599333
 30
0.0
  0
SPLINE
  5
125
100
AcDbEntity
  8
Ebene_1
 62
7
100
AcDbSpline
 70
8
 71
3
 72
8
 73
4
 74
0
 40
0
 40
0
 40
0
 40
0
 40
1
 40
1
 40
1
 40
1
 10
227.357152
 20
540.599333
 30
0.0
 10
230.857402
 20
540.599333
 30
0.0
 10
233.857402
 20
541.974083
 30
0.0
 10
236.357152
 20
544.724333
 30
0.0
  0
SPLINE
  5
126
100
AcDbEntity
  8
Ebene_1
 62
7
100
AcDbSpline
 70
8
 71
3
 72
8
 73
4
 74
0
 40
0
 40
0
 40
0
 40
0
 40
1
 40
1
 40
1
 40
1
 10
236.357152
 20
544.724333
 30
0.0
 10
238.856902
 20
547.475333
 30
0.0
 10
240.107152
 20
550.599833
 30
0.0
 10
240.107152
 20
554.099333
 30
0.0
  0
SPLINE
  5
127
100
AcDbEntity
  8
Ebene_1
 62
7
100
AcDbSpline
 70
8
 71
3
 72
8
 73
4
 74
0
 40
0
 40
0
 40
0
 40
0
 40
1
 40
1
 40
1
 40
1
 10
240.107152
 20
554.099333
 30
0.0
 10
240.107152
 20
558.599333
 30
0.0
 10
238.106902
 20
562.099583
 30
0.0
 10
234.107152
 20
564.599332
 30
0.0
  0
LWPOLYLINE
  5
128
100
AcDbEntity
  8
Ebene_1
 62
7
100
AcDbPolyline
 90
2
 70
0
 10
177.107152
 20
566.849332
 30
0.0
 10
221.357152
 20
542.099333
 30
0.0
  0
LWPOLYLINE
  5
129
100
AcDbEntity
  8
Ebene_1
 62
7
100
AcDbPolyline
 90
1
 70
1
 10
234.107152
 20
564.599332
 30
0.0
  0
ENDSEC
  0
SECTION
  2
OBJECTS
  0
DICTIONARY
  5
C
330
0
100
AcDbDictionary
  3
ACAD_GROUP
350
D
  3
ACAD_MLINESTYLE
350
17
  0
DICTIONARY
  5
D
330
C
100
AcDbDictionary
  0
DICTIONARY
  5
1A
330
C
100
AcDbDictionary
  0
DICTIONARY
  5
17
330
C
100
AcDbDictionary
  3
STANDARD
350
18
  0
DICTIONARY
  5
19
330
C
100
AcDbDictionary
  0
ENDSEC
  0
EOF
